{
date = "2013-05-15 12:53:49 +0000";
designer = "Pete Sekan";
designerURL = "http://about.me/pdxiii";
familyName = "JimmyStash";
fontMaster = (
{
ascender = 600;
capHeight = 600;
descender = "-350";
horizontalStems = (
37,
39
);
id = "1E238986-8A4D-4620-9F99-918EE406194F";
userData = {
GSOffsetHorizontal = 15;
GSOffsetVertical = 20;
};
verticalStems = (
56
);
weight = Light;
weightValue = 56;
xHeight = 370;
},
{
ascender = 600;
capHeight = 600;
descender = "-350";
horizontalStems = (
56,
63
);
id = "05DCEB7D-DEF5-48FB-88E5-EF320714A6F1";
userData = {
GSOffsetHorizontal = 15;
GSOffsetVertical = 20;
};
verticalStems = (
96
);
weight = Bold;
weightValue = 96;
xHeight = 370;
}
);
glyphs = (
{
glyphname = "A";
lastChange = "2013-05-31 11:52:55 +0100";
layers = (
{
anchors = (
{
name = "ogonek";
position = "{288, 10}";
},
{
name = "top";
position = "{168, 600}";
}
);
background = {
paths = (
{
closed = 1;
nodes = (
"369 0 LINE",
"345 76 OFFCURVE",
"221.519 452.419 OFFCURVE",
"219.942 557.033 CURVE",
"220 599 LINE",
"165 561 LINE",
"165.225 516.225 LINE",
"160.813 409.952 OFFCURVE",
"138.638 307.706 OFFCURVE",
"111.314 218.837 CURVE",
"98.2613 223.316 OFFCURVE",
"88.9399 227.848 OFFCURVE",
"85 231 CURVE",
"51 184 LINE",
"56.3889 181.126 OFFCURVE",
"73.1351 175.671 OFFCURVE",
"95.5821 170.602 CURVE",
"61.7804 72.5482 OFFCURVE",
"24.1257 -5 OFFCURVE",
"3 -46 CURVE",
"70 18 LINE",
"89.3131 43.1069 OFFCURVE",
"116.832 93.5772 OFFCURVE",
"143.048 162.265 CURVE",
"168.851 159.037 OFFCURVE",
"218 152 OFFCURVE",
"243 156 CURVE",
"263 83 OFFCURVE",
"285 29 OFFCURVE",
"332 -42 CURVE"
);
}
);
};
layerId = "1E238986-8A4D-4620-9F99-918EE406194F";
name = "Light";
paths = (
{
closed = 1;
nodes = (
"220 599 LINE",
"225 318 OFFCURVE",
"120 83 OFFCURVE",
"70 18 CURVE",
"3 -46 LINE",
"48 42 OFFCURVE",
"168 293 OFFCURVE",
"166 561 CURVE"
);
},
{
closed = 1;
nodes = (
"100 219 OFFCURVE",
"193 187 OFFCURVE",
"273 214 CURVE",
"238 164 LINE",
"169 148 OFFCURVE",
"66 176 OFFCURVE",
"51 184 CURVE",
"85 231 LINE"
);
},
{
closed = 1;
nodes = (
"220 599 LINE",
"217 430 OFFCURVE",
"248 255 OFFCURVE",
"330 0 CURVE",
"293 -64 LINE",
"215 160 OFFCURVE",
"163 359 OFFCURVE",
"166 561 CURVE"
);
}
);
width = 320;
},
{
anchors = (
{
name = "ogonek";
position = "{355, -27}";
},
{
name = "top";
position = "{178, 602}";
}
);
layerId = "05DCEB7D-DEF5-48FB-88E5-EF320714A6F1";
name = "Bold";
paths = (
{
closed = 1;
nodes = (
"219 576 LINE",
"224 295 OFFCURVE",
"157 140 OFFCURVE",
"107 75 CURVE",
"0 -19 LINE",
"45 69 OFFCURVE",
"148 236 OFFCURVE",
"146 500 CURVE"
);
},
{
closed = 1;
nodes = (
"99 231 OFFCURVE",
"242 184 OFFCURVE",
"321 199 CURVE",
"281 118 LINE",
"212 102 OFFCURVE",
"43 147 OFFCURVE",
"28 155 CURVE",
"83 232 LINE"
);
},
{
closed = 1;
nodes = (
"219 583 LINE",
"216 414 OFFCURVE",
"297 266 OFFCURVE",
"402 28 CURVE",
"333 -41 LINE",
"245 154 OFFCURVE",
"162 298 OFFCURVE",
"146 500 CURVE"
);
}
);
width = 356;
}
);
unicode = 0041;
},
{
glyphname = "B";
lastChange = "2013-05-28 12:26:31 +0100";
layers = (
{
background = {
paths = (
{
closed = 1;
nodes = (
"1 578 LINE",
"45 581 OFFCURVE",
"86 585 OFFCURVE",
"122 585 CURVE SMOOTH",
"261 583 OFFCURVE",
"350 544 OFFCURVE",
"338 478 CURVE SMOOTH",
"330 434 OFFCURVE",
"270 353 OFFCURVE",
"104 277 CURVE",
"138 352 LINE",
"170 367 OFFCURVE",
"221 391 OFFCURVE",
"243 407 CURVE",
"259 458 OFFCURVE",
"205 480 OFFCURVE",
"103 486 CURVE SMOOTH",
"59 488 OFFCURVE",
"-1 488 OFFCURVE",
"-67 481 CURVE"
);
},
{
closed = 1;
nodes = (
"138 352 LINE",
"178 356 OFFCURVE",
"379 349 OFFCURVE",
"379 247 CURVE SMOOTH",
"379 151 OFFCURVE",
"205 -7 OFFCURVE",
"72 -7 CURVE SMOOTH",
"51 -7 OFFCURVE",
"-21 8 OFFCURVE",
"-80 81 CURVE",
"-20 176 LINE",
"-9 159 OFFCURVE",
"70 95 OFFCURVE",
"131 95 CURVE SMOOTH",
"192 95 OFFCURVE",
"281 149 OFFCURVE",
"292 156 CURVE",
"292 249 OFFCURVE",
"183 265 OFFCURVE",
"75 265 CURVE"
);
},
{
closed = 1;
nodes = (
"129 538 LINE",
"123 113 LINE",
"39 45 LINE",
"37 445 LINE"
);
}
);
};
layerId = "1E238986-8A4D-4620-9F99-918EE406194F";
name = "Light";
paths = (
{
closed = 1;
nodes = (
"44 588 LINE",
"81 445 OFFCURVE",
"119 280 OFFCURVE",
"155 65 CURVE",
"108 0 LINE",
"79 170 OFFCURVE",
"40 320 OFFCURVE",
"3 526 CURVE"
);
},
{
closed = 1;
nodes = (
"-53 587 LINE",
"191 610 OFFCURVE",
"311 536 OFFCURVE",
"262 449 CURVE",
"232 390 LINE",
"273 511 OFFCURVE",
"112 537 OFFCURVE",
"-98 524 CURVE"
);
},
{
closed = 1;
nodes = (
"91 358 LINE",
"157 358 OFFCURVE",
"220 376 OFFCURVE",
"259 449 CURVE",
"232 390 LINE",
"221 370 OFFCURVE",
"123 302 OFFCURVE",
"54 311 CURVE"
);
},
{
closed = 1;
nodes = (
"118 356 LINE",
"332 379 OFFCURVE",
"354 254 OFFCURVE",
"330 195 CURVE",
"290 126 LINE",
"331 237 OFFCURVE",
"243 329 OFFCURVE",
"73 316 CURVE"
);
},
{
closed = 1;
nodes = (
"155 65 LINE",
"192 91 OFFCURVE",
"271 101 OFFCURVE",
"327 195 CURVE",
"290 126 LINE",
"216 41 OFFCURVE",
"167 30 OFFCURVE",
"108 0 CURVE"
);
}
);
width = 350;
},
{
layerId = "05DCEB7D-DEF5-48FB-88E5-EF320714A6F1";
name = "Bold";
paths = (
{
closed = 1;
nodes = (
"84 588 LINE",
"121 445 OFFCURVE",
"159 312 OFFCURVE",
"195 97 CURVE",
"148 0 LINE",
"119 170 OFFCURVE",
"72 272 OFFCURVE",
"35 478 CURVE"
);
},
{
closed = 1;
nodes = (
"-13 587 LINE",
"231 610 OFFCURVE",
"397 536 OFFCURVE",
"348 449 CURVE",
"280 366 LINE",
"336 497 OFFCURVE",
"144 489 OFFCURVE",
"-66 476 CURVE"
);
},
{
closed = 1;
nodes = (
"131 358 LINE",
"197 358 OFFCURVE",
"309 376 OFFCURVE",
"348 449 CURVE",
"280 366 LINE",
"269 346 OFFCURVE",
"163 269 OFFCURVE",
"94 278 CURVE"
);
},
{
closed = 1;
nodes = (
"158 356 LINE",
"372 379 OFFCURVE",
"440 272 OFFCURVE",
"416 213 CURVE",
"346 110 LINE",
"387 221 OFFCURVE",
"283 296 OFFCURVE",
"113 283 CURVE"
);
},
{
closed = 1;
nodes = (
"195 97 LINE",
"232 97 OFFCURVE",
"357 119 OFFCURVE",
"413 213 CURVE",
"346 110 LINE",
"272 25 OFFCURVE",
"207 9 OFFCURVE",
"148 0 CURVE"
);
}
);
width = 401;
}
);
unicode = 0042;
},
{
glyphname = "C";
lastChange = "2013-05-31 11:54:19 +0100";
layers = (
{
anchors = (
{
name = "bottom";
position = "{145, 0}";
},
{
name = "top";
position = "{145, 600}";
}
);
background = {
paths = (
{
closed = 1;
nodes = (
"127 586 LINE",
"170 589 OFFCURVE",
"250 562 OFFCURVE",
"278 514 CURVE",
"270 471 OFFCURVE",
"199 428 OFFCURVE",
"184 443 CURVE",
"159 476 OFFCURVE",
"125 496 OFFCURVE",
"60 489 CURVE"
);
},
{
closed = 1;
nodes = (
"127 586 LINE",
"78 486 OFFCURVE",
"85 362 OFFCURVE",
"85 314 CURVE SMOOTH",
"85 243 OFFCURVE",
"112 99 OFFCURVE",
"182 99 CURVE SMOOTH",
"219 99 OFFCURVE",
"252 129 OFFCURVE",
"273 173 CURVE",
"349 255 LINE",
"314 93 OFFCURVE",
"247 -2 OFFCURVE",
"158 -2 CURVE SMOOTH",
"48 -2 OFFCURVE",
"7 147 OFFCURVE",
"5 238 CURVE SMOOTH",
"3 301 OFFCURVE",
"3 406 OFFCURVE",
"52 493 CURVE"
);
}
);
};
layerId = "1E238986-8A4D-4620-9F99-918EE406194F";
name = "Light";
paths = (
{
closed = 1;
nodes = (
"198 434 LINE",
"183 518 OFFCURVE",
"137 556 OFFCURVE",
"111 569 CURVE",
"148 603 LINE",
"189 596 OFFCURVE",
"237 556 OFFCURVE",
"254 465 CURVE"
);
},
{
closed = 1;
nodes = (
"174 -15 LINE",
"-50 130 OFFCURVE",
"-14 578 OFFCURVE",
"148 603 CURVE",
"117 568 LINE",
"37 471 OFFCURVE",
"56 138 OFFCURVE",
"203 37 CURVE"
);
},
{
closed = 1;
nodes = (
"351 299 LINE",
"356 166 OFFCURVE",
"289 30 OFFCURVE",
"174 -15 CURVE",
"203 37 LINE",
"243 83 OFFCURVE",
"296 173 OFFCURVE",
"294 266 CURVE"
);
}
);
width = 290;
},
{
anchors = (
{
name = "bottom";
position = "{160, 0}";
},
{
name = "top";
position = "{160, 600}";
}
);
layerId = "05DCEB7D-DEF5-48FB-88E5-EF320714A6F1";
name = "Bold";
paths = (
{
closed = 1;
nodes = (
"213 434 LINE",
"185 476 OFFCURVE",
"138 490 OFFCURVE",
"105 490 CURVE",
"163 603 LINE",
"204 596 OFFCURVE",
"237 582 OFFCURVE",
"293 514 CURVE"
);
},
{
closed = 1;
nodes = (
"189 -15 LINE",
"-64 105 OFFCURVE",
"1 578 OFFCURVE",
"163 603 CURVE",
"111 489 LINE",
"102 392 OFFCURVE",
"77 176 OFFCURVE",
"210 97 CURVE"
);
},
{
closed = 1;
nodes = (
"389 299 LINE",
"394 166 OFFCURVE",
"304 30 OFFCURVE",
"189 -15 CURVE",
"210 97 LINE",
"261 129 OFFCURVE",
"288 162 OFFCURVE",
"309 228 CURVE"
);
}
);
width = 335;
}
);
unicode = 0043;
},
{
glyphname = "D";
lastChange = "2013-05-28 12:26:31 +0100";
layers = (
{
background = {
paths = (
{
closed = 1;
nodes = (
"158 479 LINE",
"158 103 LINE",
"70 37 LINE",
"69 389 LINE"
);
},
{
closed = 1;
nodes = (
"399 188 OFFCURVE",
"228 -14 OFFCURVE",
"110 -14 CURVE SMOOTH",
"81 -14 OFFCURVE",
"16 -1 OFFCURVE",
"-44 72 CURVE",
"13 164 LINE",
"24 148 OFFCURVE",
"100 85 OFFCURVE",
"161 85 CURVE SMOOTH",
"217 85 OFFCURVE",
"300 141 OFFCURVE",
"315 192 CURVE",
"283 405 OFFCURVE",
"48 449 OFFCURVE",
"-15 523 CURVE",
"84 601 LINE",
"125 526 OFFCURVE",
"368 485 OFFCURVE",
"399 281 CURVE"
);
}
);
};
layerId = "1E238986-8A4D-4620-9F99-918EE406194F";
name = "Light";
paths = (
{
closed = 1;
nodes = (
"86 459 LINE",
"123 350 OFFCURVE",
"118 275 OFFCURVE",
"150 90 CURVE",
"93 26 LINE",
"65 180 OFFCURVE",
"72 255 OFFCURVE",
"35 397 CURVE"
);
},
{
closed = 1;
nodes = (
"56 600 LINE",
"7 503 OFFCURVE",
"369 297 OFFCURVE",
"342 126 CURVE",
"310 61 LINE",
"327 273 OFFCURVE",
"-35 443 OFFCURVE",
"11 537 CURVE"
);
},
{
closed = 1;
nodes = (
"70 113 LINE",
"70 32 OFFCURVE",
"253 2 OFFCURVE",
"339 126 CURVE",
"310 61 LINE",
"231 -47 OFFCURVE",
"33 -20 OFFCURVE",
"33 66 CURVE"
);
}
);
width = 344;
},
{
layerId = "05DCEB7D-DEF5-48FB-88E5-EF320714A6F1";
name = "Bold";
paths = (
{
closed = 1;
nodes = (
"118 467 LINE",
"164 353 OFFCURVE",
"158 265 OFFCURVE",
"202 72 CURVE",
"127 15 LINE",
"89 176 OFFCURVE",
"99 254 OFFCURVE",
"49 403 CURVE"
);
},
{
closed = 1;
nodes = (
"86 600 LINE",
"56 496 OFFCURVE",
"399 297 OFFCURVE",
"392 149 CURVE",
"340 61 LINE",
"330 263 OFFCURVE",
"-5 443 OFFCURVE",
"29 520 CURVE"
);
},
{
closed = 1;
nodes = (
"63 140 LINE",
"73 54 OFFCURVE",
"283 42 OFFCURVE",
"389 149 CURVE",
"340 61 LINE",
"261 -47 OFFCURVE",
"23 -20 OFFCURVE",
"13 66 CURVE"
);
}
);
width = 372;
}
);
unicode = 0044;
},
{
glyphname = "E";
lastChange = "2013-05-31 12:15:09 +0100";
layers = (
{
anchors = (
{
name = "bottom";
position = "{130, 0}";
},
{
name = "ogonek";
position = "{234, 10}";
},
{
name = "top";
position = "{111, 602}";
}
);
background = {
paths = (
{
closed = 1;
nodes = (
"68 467 LINE",
"118 353 OFFCURVE",
"111 275 OFFCURVE",
"155 82 CURVE",
"77 15 LINE",
"39 176 OFFCURVE",
"49 254 OFFCURVE",
"-1 403 CURVE"
);
}
);
};
layerId = "1E238986-8A4D-4620-9F99-918EE406194F";
name = "Light";
paths = (
{
closed = 1;
nodes = (
"55 589 LINE",
"92 420 OFFCURVE",
"97 275 OFFCURVE",
"139 20 CURVE",
"82 -44 LINE",
"54 180 OFFCURVE",
"51 325 OFFCURVE",
"4 527 CURVE"
);
},
{
closed = 1;
nodes = (
"118 329 OFFCURVE",
"131 337 OFFCURVE",
"201 344 CURVE",
"166 284 LINE",
"107 288 OFFCURVE",
"84 266 OFFCURVE",
"59 254 CURVE",
"93 321 LINE"
);
},
{
closed = 1;
nodes = (
"191 15 OFFCURVE",
"146 -19 OFFCURVE",
"82 -44 CURVE",
"139 20 LINE",
"192 58 OFFCURVE",
"234 76 OFFCURVE",
"297 74 CURVE",
"255 10 LINE"
);
},
{
closed = 1;
nodes = (
"39 549 OFFCURVE",
"132 557 OFFCURVE",
"212 584 CURVE",
"177 524 LINE",
"108 508 OFFCURVE",
"5 496 OFFCURVE",
"-10 504 CURVE",
"24 561 LINE"
);
}
);
width = 260;
},
{
anchors = (
{
name = "bottom";
position = "{136, 0}";
},
{
name = "ogonek";
position = "{240, 10}";
},
{
name = "top";
position = "{117, 602}";
}
);
layerId = "05DCEB7D-DEF5-48FB-88E5-EF320714A6F1";
name = "Bold";
paths = (
{
closed = 1;
nodes = (
"80 552 LINE",
"108 420 OFFCURVE",
"125 315 OFFCURVE",
"155 70 CURVE",
"78 -14 LINE",
"50 210 OFFCURVE",
"47 325 OFFCURVE",
"0 527 CURVE"
);
},
{
closed = 1;
nodes = (
"124 339 OFFCURVE",
"167 347 OFFCURVE",
"237 354 CURVE",
"202 274 LINE",
"143 278 OFFCURVE",
"90 256 OFFCURVE",
"65 244 CURVE",
"99 331 LINE"
);
},
{
closed = 1;
nodes = (
"197 45 OFFCURVE",
"142 11 OFFCURVE",
"78 -14 CURVE",
"155 70 LINE",
"208 108 OFFCURVE",
"240 126 OFFCURVE",
"303 124 CURVE",
"261 40 LINE"
);
},
{
closed = 1;
nodes = (
"70 575 OFFCURVE",
"138 567 OFFCURVE",
"228 574 CURVE",
"183 514 LINE",
"114 498 OFFCURVE",
"15 519 OFFCURVE",
"0 527 CURVE",
"55 587 LINE"
);
}
);
width = 263;
}
);
unicode = 0045;
},
{
glyphname = "F";
lastChange = "2013-05-28 12:26:31 +0100";
layers = (
{
layerId = "1E238986-8A4D-4620-9F99-918EE406194F";
name = "Light";
paths = (
{
closed = 1;
nodes = (
"55 589 LINE",
"102 420 OFFCURVE",
"107 267 OFFCURVE",
"139 12 CURVE",
"82 -52 LINE",
"54 172 OFFCURVE",
"51 325 OFFCURVE",
"4 527 CURVE"
);
},
{
closed = 1;
nodes = (
"108 299 OFFCURVE",
"115 307 OFFCURVE",
"161 314 CURVE",
"126 254 LINE",
"101 248 OFFCURVE",
"84 236 OFFCURVE",
"59 224 CURVE",
"93 291 LINE"
);
},
{
closed = 1;
nodes = (
"39 549 OFFCURVE",
"122 557 OFFCURVE",
"202 584 CURVE",
"147 524 LINE",
"78 508 OFFCURVE",
"5 496 OFFCURVE",
"-10 504 CURVE",
"24 561 LINE"
);
}
);
width = 170;
},
{
layerId = "05DCEB7D-DEF5-48FB-88E5-EF320714A6F1";
name = "Bold";
paths = (
{
closed = 1;
nodes = (
"71 569 LINE",
"108 400 OFFCURVE",
"125 315 OFFCURVE",
"155 70 CURVE",
"78 -14 LINE",
"50 210 OFFCURVE",
"47 305 OFFCURVE",
"0 507 CURVE"
);
},
{
closed = 1;
nodes = (
"124 329 OFFCURVE",
"167 337 OFFCURVE",
"237 344 CURVE",
"202 264 LINE",
"143 268 OFFCURVE",
"90 246 OFFCURVE",
"65 234 CURVE",
"99 321 LINE"
);
},
{
closed = 1;
nodes = (
"49 572 OFFCURVE",
"138 547 OFFCURVE",
"228 564 CURVE",
"183 494 LINE",
"114 478 OFFCURVE",
"15 499 OFFCURVE",
"0 507 CURVE",
"34 584 LINE"
);
}
);
width = 227;
}
);
leftMetricsKey = "E";
rightMetricsKey = "=E+20";
unicode = 0046;
},
{
glyphname = "G";
lastChange = "2013-05-28 12:26:31 +0100";
layers = (
{
background = {
paths = (
{
closed = 1;
nodes = (
"220 311 LINE",
"276 320 OFFCURVE",
"335 344 OFFCURVE",
"330 296 CURVE",
"315 231 OFFCURVE",
"313 163 OFFCURVE",
"330 94 CURVE",
"336 72 OFFCURVE",
"326 72 OFFCURVE",
"324 61 CURVE",
"310 37 OFFCURVE",
"294 23 OFFCURVE",
"275 14 CURVE",
"247 77 OFFCURVE",
"237 151 OFFCURVE",
"251 236 CURVE",
"161 226 LINE"
);
},
{
closed = 1;
nodes = (
"158 582 LINE",
"201 585 OFFCURVE",
"272 527 OFFCURVE",
"290 469 CURVE",
"282 426 OFFCURVE",
"212 384 OFFCURVE",
"197 399 CURVE",
"188 457 OFFCURVE",
"157 494 OFFCURVE",
"92 487 CURVE"
);
},
{
closed = 1;
nodes = (
"158 582 LINE",
"110 484 OFFCURVE",
"116 361 OFFCURVE",
"116 314 CURVE SMOOTH",
"116 244 OFFCURVE",
"143 101 OFFCURVE",
"172 101 CURVE SMOOTH",
"191 101 OFFCURVE",
"223 103 OFFCURVE",
"245 146 CURVE",
"319 227 LINE",
"285 67 OFFCURVE",
"202 1 OFFCURVE",
"148 1 CURVE SMOOTH",
"80 1 OFFCURVE",
"39 149 OFFCURVE",
"38 223 CURVE SMOOTH",
"36 301 OFFCURVE",
"35 404 OFFCURVE",
"84 491 CURVE"
);
}
);
};
layerId = "1E238986-8A4D-4620-9F99-918EE406194F";
name = "Light";
paths = (
{
closed = 1;
nodes = (
"178 404 LINE",
"163 488 OFFCURVE",
"137 556 OFFCURVE",
"111 569 CURVE",
"148 603 LINE",
"189 596 OFFCURVE",
"217 526 OFFCURVE",
"234 435 CURVE"
);
},
{
closed = 1;
nodes = (
"103 -15 LINE",
"-40 130 OFFCURVE",
"-4 578 OFFCURVE",
"148 603 CURVE",
"117 568 LINE",
"37 471 OFFCURVE",
"56 138 OFFCURVE",
"142 37 CURVE"
);
},
{
closed = 1;
nodes = (
"250 299 LINE",
"255 166 OFFCURVE",
"218 30 OFFCURVE",
"103 -15 CURVE",
"142 37 LINE",
"182 83 OFFCURVE",
"195 173 OFFCURVE",
"193 266 CURVE"
);
},
{
closed = 1;
nodes = (
"248 347 LINE",
"252 247 OFFCURVE",
"277 104 OFFCURVE",
"316 0 CURVE",
"250 -26 LINE",
"216 83 OFFCURVE",
"194 234 OFFCURVE",
"187 328 CURVE"
);
},
{
closed = 1;
nodes = (
"127 324 OFFCURVE",
"192 320 OFFCURVE",
"248 347 CURVE",
"202 292 LINE",
"155 277 OFFCURVE",
"101 276 OFFCURVE",
"85 282 CURVE",
"111 334 LINE"
);
}
);
width = 280;
},
{
layerId = "05DCEB7D-DEF5-48FB-88E5-EF320714A6F1";
name = "Bold";
paths = (
{
closed = 1;
nodes = (
"210 418 LINE",
"180 486 OFFCURVE",
"161 517 OFFCURVE",
"135 530 CURVE",
"172 600 LINE",
"213 593 OFFCURVE",
"257 568 OFFCURVE",
"274 477 CURVE"
);
},
{
closed = 1;
nodes = (
"109 0 LINE",
"-34 145 OFFCURVE",
"1 590 OFFCURVE",
"172 600 CURVE",
"141 529 LINE",
"90 434 OFFCURVE",
"94 197 OFFCURVE",
"163 95 CURVE"
);
},
{
closed = 1;
nodes = (
"276 311 LINE",
"281 178 OFFCURVE",
"224 45 OFFCURVE",
"109 0 CURVE",
"163 95 LINE",
"191 156 OFFCURVE",
"192 173 OFFCURVE",
"190 266 CURVE"
);
},
{
closed = 1;
nodes = (
"274 359 LINE",
"278 259 OFFCURVE",
"303 116 OFFCURVE",
"342 12 CURVE",
"247 -26 LINE",
"213 83 OFFCURVE",
"191 234 OFFCURVE",
"184 328 CURVE"
);
},
{
closed = 1;
nodes = (
"157 324 OFFCURVE",
"218 332 OFFCURVE",
"274 359 CURVE",
"199 265 LINE",
"152 250 OFFCURVE",
"131 249 OFFCURVE",
"115 255 CURVE",
"141 334 LINE"
);
}
);
width = 307;
}
);
leftMetricsKey = "C";
unicode = 0047;
},
{
glyphname = "H";
lastChange = "2013-05-28 12:26:31 +0100";
layers = (
{
background = {
paths = (
{
closed = 1;
nodes = (
"65 569 LINE",
"102 400 OFFCURVE",
"119 315 OFFCURVE",
"149 70 CURVE",
"72 -14 LINE",
"44 210 OFFCURVE",
"41 305 OFFCURVE",
"-6 507 CURVE"
);
},
{
closed = 1;
nodes = (
"118 329 OFFCURVE",
"161 337 OFFCURVE",
"231 344 CURVE",
"196 264 LINE",
"137 268 OFFCURVE",
"84 246 OFFCURVE",
"59 234 CURVE",
"93 321 LINE"
);
}
);
};
layerId = "1E238986-8A4D-4620-9F99-918EE406194F";
name = "Light";
paths = (
{
closed = 1;
nodes = (
"35 599 LINE",
"82 430 OFFCURVE",
"95 275 OFFCURVE",
"127 20 CURVE",
"75 -12 LINE",
"47 212 OFFCURVE",
"35 359 OFFCURVE",
"-12 561 CURVE"
);
},
{
closed = 1;
nodes = (
"195 599 LINE",
"242 430 OFFCURVE",
"255 255 OFFCURVE",
"287 0 CURVE",
"233 -64 LINE",
"205 160 OFFCURVE",
"193 359 OFFCURVE",
"146 561 CURVE"
);
},
{
closed = 1;
nodes = (
"108 269 OFFCURVE",
"161 277 OFFCURVE",
"241 304 CURVE",
"206 254 LINE",
"137 238 OFFCURVE",
"74 226 OFFCURVE",
"59 234 CURVE",
"93 281 LINE"
);
}
);
width = 280;
},
{
layerId = "05DCEB7D-DEF5-48FB-88E5-EF320714A6F1";
name = "Bold";
paths = (
{
closed = 1;
nodes = (
"69 600 LINE",
"105 431 OFFCURVE",
"119 325 OFFCURVE",
"151 70 CURVE",
"77 -12 LINE",
"49 212 OFFCURVE",
"47 310 OFFCURVE",
"0 512 CURVE"
);
},
{
closed = 1;
nodes = (
"239 610 LINE",
"275 441 OFFCURVE",
"300 282 OFFCURVE",
"332 27 CURVE",
"258 -55 LINE",
"230 169 OFFCURVE",
"208 353 OFFCURVE",
"161 555 CURVE"
);
},
{
closed = 1;
nodes = (
"101 309 OFFCURVE",
"183 327 OFFCURVE",
"263 354 CURVE",
"228 274 LINE",
"161 267 OFFCURVE",
"78 235 OFFCURVE",
"63 243 CURVE",
"86 321 LINE"
);
}
);
width = 312;
}
);
leftMetricsKey = "E";
unicode = 0048;
},
{
glyphname = "I";
lastChange = "2013-05-28 12:26:31 +0100";
layers = (
{
anchors = (
{
name = "ogonek";
position = "{81, 10}";
},
{
name = "top";
position = "{-16, 600}";
}
);
layerId = "1E238986-8A4D-4620-9F99-918EE406194F";
name = "Light";
paths = (
{
closed = 1;
nodes = (
"17 599 LINE",
"64 430 OFFCURVE",
"77 255 OFFCURVE",
"109 0 CURVE",
"52 -24 LINE",
"24 200 OFFCURVE",
"12 359 OFFCURVE",
"-35 561 CURVE"
);
}
);
width = 90;
},
{
anchors = (
{
name = "ogonek";
position = "{112, 10}";
},
{
name = "top";
position = "{15, 600}";
}
);
layerId = "05DCEB7D-DEF5-48FB-88E5-EF320714A6F1";
name = "Bold";
paths = (
{
closed = 1;
nodes = (
"78 610 LINE",
"114 441 OFFCURVE",
"139 282 OFFCURVE",
"171 27 CURVE",
"97 -55 LINE",
"69 169 OFFCURVE",
"47 353 OFFCURVE",
"0 555 CURVE"
);
}
);
width = 151;
}
);
leftMetricsKey = "E";
rightMetricsKey = "H";
unicode = 0049;
},
{
glyphname = "J";
lastChange = "2013-05-28 12:26:31 +0100";
layers = (
{
background = {
paths = (
{
closed = 1;
nodes = (
"187 610 LINE",
"223 441 OFFCURVE",
"248 282 OFFCURVE",
"280 27 CURVE",
"206 -55 LINE",
"178 169 OFFCURVE",
"156 353 OFFCURVE",
"109 555 CURVE"
);
}
);
};
layerId = "1E238986-8A4D-4620-9F99-918EE406194F";
name = "Light";
paths = (
{
closed = 1;
nodes = (
"176 460 OFFCURVE",
"303 -89 OFFCURVE",
"303 -307 CURVE",
"247 -333 LINE",
"243 -167 OFFCURVE",
"117 467 OFFCURVE",
"110 580 CURVE",
"172 600 LINE"
);
},
{
closed = 1;
nodes = (
"85 -24 OFFCURVE",
"171 -129 OFFCURVE",
"303 -307 CURVE",
"243 -344 LINE",
"139 -196 OFFCURVE",
"-4 -31 OFFCURVE",
"190 60 CURVE"
);
},
{
closed = 1;
nodes = (
"0 565 OFFCURVE",
"93 573 OFFCURVE",
"173 600 CURVE",
"128 550 LINE",
"59 534 OFFCURVE",
"-34 522 OFFCURVE",
"-49 530 CURVE",
"-15 577 LINE"
);
}
);
width = 250;
},
{
layerId = "05DCEB7D-DEF5-48FB-88E5-EF320714A6F1";
name = "Bold";
paths = (
{
closed = 1;
nodes = (
"220 460 OFFCURVE",
"347 -89 OFFCURVE",
"347 -307 CURVE",
"267 -333 LINE",
"263 -167 OFFCURVE",
"137 467 OFFCURVE",
"130 580 CURVE",
"216 600 LINE"
);
},
{
closed = 1;
nodes = (
"105 -24 OFFCURVE",
"215 -129 OFFCURVE",
"347 -307 CURVE",
"263 -344 LINE",
"127 -180 OFFCURVE",
"-29 -36 OFFCURVE",
"210 60 CURVE"
);
},
{
closed = 1;
nodes = (
"20 565 OFFCURVE",
"137 573 OFFCURVE",
"217 600 CURVE",
"148 514 LINE",
"79 498 OFFCURVE",
"-14 486 OFFCURVE",
"-29 494 CURVE",
"5 577 LINE"
);
}
);
width = 280;
}
);
unicode = 004A;
},
{
glyphname = "K";
lastChange = "2013-05-28 12:26:31 +0100";
layers = (
{
background = {
paths = (
{
closed = 1;
nodes = (
"47 610 LINE",
"83 441 OFFCURVE",
"108 282 OFFCURVE",
"140 27 CURVE",
"66 -55 LINE",
"38 169 OFFCURVE",
"16 353 OFFCURVE",
"-31 555 CURVE"
);
}
);
};
layerId = "1E238986-8A4D-4620-9F99-918EE406194F";
name = "Light";
paths = (
{
closed = 1;
nodes = (
"41 589 LINE",
"88 420 OFFCURVE",
"93 275 OFFCURVE",
"125 20 CURVE",
"68 -44 LINE",
"40 180 OFFCURVE",
"37 325 OFFCURVE",
"-10 527 CURVE"
);
},
{
closed = 1;
nodes = (
"287 42 OFFCURVE",
"189 260 OFFCURVE",
"76 270 CURVE",
"145 295 LINE",
"254 265 OFFCURVE",
"340 66 OFFCURVE",
"340 0 CURVE",
"281 -42 LINE"
);
},
{
closed = 1;
nodes = (
"76 270 LINE",
"167 347 OFFCURVE",
"170 451 OFFCURVE",
"137 537 CURVE",
"187 592 LINE",
"215 492 OFFCURVE",
"249 370 OFFCURVE",
"145 295 CURVE"
);
}
);
width = 326;
},
{
layerId = "05DCEB7D-DEF5-48FB-88E5-EF320714A6F1";
name = "Bold";
paths = (
{
closed = 1;
nodes = (
"84 596 LINE",
"131 427 OFFCURVE",
"136 282 OFFCURVE",
"168 27 CURVE",
"78 -22 LINE",
"50 202 OFFCURVE",
"47 347 OFFCURVE",
"0 549 CURVE"
);
},
{
closed = 1;
nodes = (
"310 47 OFFCURVE",
"216 264 OFFCURVE",
"119 277 CURVE",
"207 295 LINE",
"316 265 OFFCURVE",
"402 66 OFFCURVE",
"402 0 CURVE",
"314 -35 LINE"
);
},
{
closed = 1;
nodes = (
"119 277 LINE",
"210 354 OFFCURVE",
"203 458 OFFCURVE",
"170 544 CURVE",
"249 592 LINE",
"277 492 OFFCURVE",
"311 370 OFFCURVE",
"207 295 CURVE"
);
}
);
width = 358;
}
);
leftMetricsKey = "E";
unicode = 004B;
},
{
glyphname = "L";
lastChange = "2013-05-28 12:26:31 +0100";
layers = (
{
layerId = "1E238986-8A4D-4620-9F99-918EE406194F";
name = "Light";
paths = (
{
closed = 1;
nodes = (
"-3 599 LINE",
"44 430 OFFCURVE",
"77 275 OFFCURVE",
"109 20 CURVE",
"52 -44 LINE",
"24 180 OFFCURVE",
"-8 359 OFFCURVE",
"-55 561 CURVE"
);
},
{
closed = 1;
nodes = (
"181 35 OFFCURVE",
"116 1 OFFCURVE",
"52 -44 CURVE",
"109 20 LINE",
"172 68 OFFCURVE",
"224 86 OFFCURVE",
"287 74 CURVE",
"245 20 LINE"
);
}
);
width = 190;
},
{
layerId = "05DCEB7D-DEF5-48FB-88E5-EF320714A6F1";
name = "Bold";
paths = (
{
closed = 1;
nodes = (
"78 610 LINE",
"114 441 OFFCURVE",
"139 282 OFFCURVE",
"171 27 CURVE",
"97 -55 LINE",
"69 169 OFFCURVE",
"47 353 OFFCURVE",
"0 555 CURVE"
);
},
{
closed = 1;
nodes = (
"226 25 OFFCURVE",
"161 -9 OFFCURVE",
"97 -54 CURVE",
"170 27 LINE",
"233 75 OFFCURVE",
"285 93 OFFCURVE",
"348 81 CURVE",
"290 10 LINE"
);
}
);
width = 251;
}
);
leftMetricsKey = "E";
unicode = 004C;
},
{
glyphname = "M";
lastChange = "2013-05-28 12:26:31 +0100";
layers = (
{
background = {
paths = (
{
closed = 1;
nodes = (
"152 608 LINE",
"188 439 OFFCURVE",
"213 280 OFFCURVE",
"245 25 CURVE",
"171 -57 LINE",
"143 167 OFFCURVE",
"121 351 OFFCURVE",
"74 553 CURVE"
);
}
);
};
layerId = "1E238986-8A4D-4620-9F99-918EE406194F";
name = "Light";
paths = (
{
closed = 1;
nodes = (
"37 599 LINE",
"74 460 OFFCURVE",
"97 275 OFFCURVE",
"129 20 CURVE",
"72 -12 LINE",
"44 212 OFFCURVE",
"32 389 OFFCURVE",
"-5 561 CURVE"
);
},
{
closed = 1;
nodes = (
"267 599 LINE",
"274 430 OFFCURVE",
"327 255 OFFCURVE",
"359 0 CURVE",
"310 -49 LINE",
"282 175 OFFCURVE",
"232 359 OFFCURVE",
"225 561 CURVE"
);
},
{
closed = 1;
nodes = (
"40 599 LINE",
"61 550 OFFCURVE",
"169 389 OFFCURVE",
"199 283 CURVE",
"151 236 LINE",
"124 356 OFFCURVE",
"25 472 OFFCURVE",
"-7 560 CURVE"
);
},
{
closed = 1;
nodes = (
"269 599 LINE",
"240 462 OFFCURVE",
"224 385 OFFCURVE",
"200 272 CURVE",
"152 237 LINE",
"188 372 OFFCURVE",
"196 467 OFFCURVE",
"224 563 CURVE"
);
}
);
width = 359;
},
{
layerId = "05DCEB7D-DEF5-48FB-88E5-EF320714A6F1";
name = "Bold";
paths = (
{
closed = 1;
nodes = (
"71 600 LINE",
"108 461 OFFCURVE",
"139 282 OFFCURVE",
"171 27 CURVE",
"97 -55 LINE",
"69 169 OFFCURVE",
"39 384 OFFCURVE",
"2 556 CURVE"
);
},
{
closed = 1;
nodes = (
"377 618 LINE",
"384 449 OFFCURVE",
"437 274 OFFCURVE",
"469 19 CURVE",
"391 -49 LINE",
"363 175 OFFCURVE",
"313 359 OFFCURVE",
"306 561 CURVE"
);
},
{
closed = 1;
nodes = (
"74 600 LINE",
"95 551 OFFCURVE",
"263 397 OFFCURVE",
"293 291 CURVE",
"215 220 LINE",
"188 340 OFFCURVE",
"32 467 OFFCURVE",
"0 555 CURVE"
);
},
{
closed = 1;
nodes = (
"379 618 LINE",
"350 481 OFFCURVE",
"318 393 OFFCURVE",
"294 280 CURVE",
"216 221 LINE",
"252 356 OFFCURVE",
"277 467 OFFCURVE",
"305 563 CURVE"
);
}
);
width = 449;
}
);
leftMetricsKey = "E";
rightMetricsKey = "I";
unicode = 004D;
},
{
glyphname = "N";
lastChange = "2013-05-28 12:26:31 +0100";
layers = (
{
anchors = (
{
name = "bottom";
position = "{160, 0}";
},
{
name = "top";
position = "{122, 600}";
}
);
background = {
paths = (
{
closed = 1;
nodes = (
"-3 610 LINE",
"33 441 OFFCURVE",
"58 282 OFFCURVE",
"90 27 CURVE",
"16 -55 LINE",
"-12 169 OFFCURVE",
"-34 353 OFFCURVE",
"-81 555 CURVE"
);
},
{
closed = 1;
nodes = (
"269 610 LINE",
"305 441 OFFCURVE",
"330 282 OFFCURVE",
"362 27 CURVE",
"288 -55 LINE",
"260 169 OFFCURVE",
"238 353 OFFCURVE",
"191 555 CURVE"
);
}
);
};
layerId = "1E238986-8A4D-4620-9F99-918EE406194F";
name = "Light";
paths = (
{
closed = 1;
nodes = (
"37 599 LINE",
"74 460 OFFCURVE",
"97 275 OFFCURVE",
"129 20 CURVE",
"72 -12 LINE",
"44 212 OFFCURVE",
"32 389 OFFCURVE",
"-5 561 CURVE"
);
},
{
closed = 1;
nodes = (
"255 600 LINE",
"262 431 OFFCURVE",
"277 255 OFFCURVE",
"309 0 CURVE",
"280 -49 LINE",
"243 153 OFFCURVE",
"202 359 OFFCURVE",
"195 561 CURVE"
);
},
{
closed = 1;
nodes = (
"40 599 LINE",
"61 550 OFFCURVE",
"278 106 OFFCURVE",
"308 0 CURVE",
"280 -49 LINE",
"253 71 OFFCURVE",
"25 472 OFFCURVE",
"-7 560 CURVE"
);
}
);
width = 320;
},
{
anchors = (
{
name = "bottom";
position = "{221, 0}";
},
{
name = "top";
position = "{183, 600}";
}
);
layerId = "05DCEB7D-DEF5-48FB-88E5-EF320714A6F1";
name = "Bold";
paths = (
{
closed = 1;
nodes = (
"55 610 LINE",
"92 471 OFFCURVE",
"115 286 OFFCURVE",
"147 31 CURVE",
"79 -28 LINE",
"51 196 OFFCURVE",
"39 373 OFFCURVE",
"2 545 CURVE"
);
},
{
closed = 1;
nodes = (
"330 610 LINE",
"337 441 OFFCURVE",
"372 282 OFFCURVE",
"404 27 CURVE",
"354 -49 LINE",
"317 153 OFFCURVE",
"263 359 OFFCURVE",
"256 561 CURVE"
);
},
{
closed = 1;
nodes = (
"58 610 LINE",
"79 561 OFFCURVE",
"373 133 OFFCURVE",
"403 27 CURVE",
"354 -49 LINE",
"327 71 OFFCURVE",
"32 456 OFFCURVE",
"0 544 CURVE"
);
}
);
width = 384;
}
);
leftMetricsKey = "M";
rightMetricsKey = "M";
unicode = 004E;
},
{
glyphname = "O";
lastChange = "2013-05-28 12:26:31 +0100";
layers = (
{
anchors = (
{
name = "top";
position = "{95, 600}";
}
);
background = {
paths = (
{
closed = 1;
nodes = (
"76 619 LINE",
"112 450 OFFCURVE",
"137 291 OFFCURVE",
"169 36 CURVE",
"95 -46 LINE",
"67 178 OFFCURVE",
"45 362 OFFCURVE",
"-2 564 CURVE"
);
}
);
};
layerId = "1E238986-8A4D-4620-9F99-918EE406194F";
name = "Light";
paths = (
{
closed = 1;
nodes = (
"110 599 LINE",
"17 469 OFFCURVE",
"38 67 OFFCURVE",
"168 35 CURVE",
"119 -3 LINE",
"-17 47 OFFCURVE",
"-24 455 OFFCURVE",
"58 561 CURVE"
);
},
{
closed = 1;
nodes = (
"119 -3 LINE",
"212 127 OFFCURVE",
"188 529 OFFCURVE",
"58 561 CURVE",
"110 599 LINE",
"246 549 OFFCURVE",
"250 141 OFFCURVE",
"168 35 CURVE"
);
}
);
width = 240;
},
{
anchors = (
{
name = "top";
position = "{139, 600}";
}
);
layerId = "05DCEB7D-DEF5-48FB-88E5-EF320714A6F1";
name = "Bold";
paths = (
{
closed = 1;
nodes = (
"154 599 LINE",
"61 469 OFFCURVE",
"82 67 OFFCURVE",
"212 35 CURVE",
"139 -46 LINE",
"3 4 OFFCURVE",
"-12 432 OFFCURVE",
"70 538 CURVE"
);
},
{
closed = 1;
nodes = (
"139 -46 LINE",
"232 84 OFFCURVE",
"200 506 OFFCURVE",
"70 538 CURVE",
"154 599 LINE",
"290 549 OFFCURVE",
"294 141 OFFCURVE",
"212 35 CURVE"
);
}
);
width = 284;
}
);
leftMetricsKey = "C";
unicode = 004F;
},
{
glyphname = "Oslash";
lastChange = "2013-05-28 12:26:31 +0100";
layers = (
{
components = (
{
name = "O";
transform = "{1, 0, 0, 1, 0, 0}";
}
);
layerId = "1E238986-8A4D-4620-9F99-918EE406194F";
name = "Light";
paths = (
{
closed = 1;
nodes = (
"262 550 LINE",
"207 449 OFFCURVE",
"39 115 OFFCURVE",
"19 50 CURVE",
"-38 -14 LINE",
"-33 74 OFFCURVE",
"152 431 OFFCURVE",
"210 519 CURVE"
);
}
);
width = 240;
},
{
components = (
{
name = "O";
transform = "{1, 0, 0, 1, 0, 0}";
}
);
layerId = "05DCEB7D-DEF5-48FB-88E5-EF320714A6F1";
name = "Bold";
paths = (
{
closed = 1;
nodes = (
"262 550 LINE",
"207 449 OFFCURVE",
"39 115 OFFCURVE",
"19 50 CURVE",
"-38 -14 LINE",
"-33 74 OFFCURVE",
"152 431 OFFCURVE",
"210 519 CURVE"
);
}
);
width = 240;
}
);
rightMetricsKey = "=O+50";
unicode = 00D8;
},
{
glyphname = "P";
lastChange = "2013-05-28 12:26:31 +0100";
layers = (
{
layerId = "1E238986-8A4D-4620-9F99-918EE406194F";
name = "Light";
paths = (
{
closed = 1;
nodes = (
"-13 587 LINE",
"171 610 OFFCURVE",
"311 536 OFFCURVE",
"262 449 CURVE",
"232 390 LINE",
"273 511 OFFCURVE",
"92 537 OFFCURVE",
"-58 524 CURVE"
);
},
{
closed = 1;
nodes = (
"49 363 LINE",
"49 282 OFFCURVE",
"173 325 OFFCURVE",
"259 449 CURVE",
"232 390 LINE",
"153 282 OFFCURVE",
"12 230 OFFCURVE",
"12 316 CURVE"
);
},
{
closed = 1;
nodes = (
"75 589 LINE",
"122 420 OFFCURVE",
"127 275 OFFCURVE",
"159 20 CURVE",
"112 -44 LINE",
"84 180 OFFCURVE",
"81 325 OFFCURVE",
"34 527 CURVE"
);
}
);
width = 240;
},
{
layerId = "05DCEB7D-DEF5-48FB-88E5-EF320714A6F1";
name = "Bold";
paths = (
{
closed = 1;
nodes = (
"14 581 LINE",
"198 604 OFFCURVE",
"351 536 OFFCURVE",
"302 449 CURVE",
"257 361 LINE",
"298 482 OFFCURVE",
"85 530 OFFCURVE",
"-65 517 CURVE"
);
},
{
closed = 1;
nodes = (
"55 354 LINE",
"55 273 OFFCURVE",
"213 325 OFFCURVE",
"299 449 CURVE",
"257 361 LINE",
"178 253 OFFCURVE",
"-16 195 OFFCURVE",
"-16 281 CURVE"
);
},
{
closed = 1;
nodes = (
"115 579 LINE",
"162 420 OFFCURVE",
"167 275 OFFCURVE",
"199 20 CURVE",
"125 -60 LINE",
"97 164 OFFCURVE",
"94 309 OFFCURVE",
"47 511 CURVE"
);
}
);
width = 301;
}
);
unicode = 0050;
},
{
glyphname = "Q";
lastChange = "2013-05-31 12:15:09 +0100";
layers = (
{
background = {
paths = (
{
closed = 1;
nodes = (
"110 599 LINE",
"17 469 OFFCURVE",
"38 67 OFFCURVE",
"168 35 CURVE",
"95 -46 LINE",
"-41 4 OFFCURVE",
"-56 432 OFFCURVE",
"26 538 CURVE"
);
},
{
closed = 1;
nodes = (
"95 -46 LINE",
"188 84 OFFCURVE",
"156 506 OFFCURVE",
"26 538 CURVE",
"110 599 LINE",
"246 549 OFFCURVE",
"250 141 OFFCURVE",
"168 35 CURVE"
);
}
);
};
layerId = "1E238986-8A4D-4620-9F99-918EE406194F";
name = "Light";
paths = (
{
closed = 1;
nodes = (
"80 -3 LINE",
"180 2 OFFCURVE",
"270 -38 OFFCURVE",
"370 -31 CURVE",
"311 -86 LINE",
"211 -90 OFFCURVE",
"122 -48 OFFCURVE",
"22 -50 CURVE"
);
},
{
closed = 1;
nodes = (
"110 599 LINE",
"17 469 OFFCURVE",
"38 67 OFFCURVE",
"168 35 CURVE",
"119 -3 LINE",
"-17 47 OFFCURVE",
"-24 455 OFFCURVE",
"58 561 CURVE"
);
},
{
closed = 1;
nodes = (
"119 -3 LINE",
"212 127 OFFCURVE",
"188 529 OFFCURVE",
"58 561 CURVE",
"110 599 LINE",
"246 549 OFFCURVE",
"250 141 OFFCURVE",
"168 35 CURVE"
);
}
);
width = 270;
},
{
layerId = "05DCEB7D-DEF5-48FB-88E5-EF320714A6F1";
name = "Bold";
paths = (
{
closed = 1;
nodes = (
"129 -14 LINE",
"229 -9 OFFCURVE",
"319 -49 OFFCURVE",
"419 -42 CURVE",
"340 -128 LINE",
"240 -132 OFFCURVE",
"151 -90 OFFCURVE",
"51 -92 CURVE"
);
},
{
closed = 1;
nodes = (
"154 599 LINE",
"61 469 OFFCURVE",
"82 67 OFFCURVE",
"212 35 CURVE",
"139 -46 LINE",
"3 4 OFFCURVE",
"-12 432 OFFCURVE",
"70 538 CURVE"
);
},
{
closed = 1;
nodes = (
"139 -46 LINE",
"232 84 OFFCURVE",
"200 506 OFFCURVE",
"70 538 CURVE",
"154 599 LINE",
"290 549 OFFCURVE",
"294 141 OFFCURVE",
"212 35 CURVE"
);
}
);
width = 294;
}
);
leftMetricsKey = "C";
unicode = 0051;
},
{
glyphname = "R";
lastChange = "2013-05-28 12:26:31 +0100";
layers = (
{
background = {
paths = (
{
closed = 1;
nodes = (
"-26 581 LINE",
"158 604 OFFCURVE",
"311 536 OFFCURVE",
"262 449 CURVE",
"217 361 LINE",
"258 482 OFFCURVE",
"45 530 OFFCURVE",
"-105 517 CURVE"
);
},
{
closed = 1;
nodes = (
"15 354 LINE",
"15 273 OFFCURVE",
"173 325 OFFCURVE",
"259 449 CURVE",
"217 361 LINE",
"138 253 OFFCURVE",
"-56 195 OFFCURVE",
"-56 281 CURVE"
);
},
{
closed = 1;
nodes = (
"75 579 LINE",
"122 420 OFFCURVE",
"127 275 OFFCURVE",
"159 20 CURVE",
"85 -60 LINE",
"57 164 OFFCURVE",
"54 309 OFFCURVE",
"7 511 CURVE"
);
}
);
};
layerId = "1E238986-8A4D-4620-9F99-918EE406194F";
name = "Light";
paths = (
{
closed = 1;
nodes = (
"-13 587 LINE",
"171 610 OFFCURVE",
"311 536 OFFCURVE",
"262 449 CURVE",
"232 390 LINE",
"273 511 OFFCURVE",
"92 537 OFFCURVE",
"-58 524 CURVE"
);
},
{
closed = 1;
nodes = (
"75 589 LINE",
"122 420 OFFCURVE",
"127 275 OFFCURVE",
"159 20 CURVE",
"112 -44 LINE",
"84 180 OFFCURVE",
"81 325 OFFCURVE",
"34 527 CURVE"
);
},
{
closed = 1;
nodes = (
"321 42 OFFCURVE",
"238 260 OFFCURVE",
"125 270 CURVE",
"163 313 LINE",
"272 283 OFFCURVE",
"374 66 OFFCURVE",
"374 0 CURVE",
"315 -42 LINE"
);
},
{
closed = 1;
nodes = (
"101 293 LINE",
"145 301 OFFCURVE",
"208 356 OFFCURVE",
"259 449 CURVE",
"232 390 LINE",
"202 325 OFFCURVE",
"136 265 OFFCURVE",
"90 250 CURVE"
);
}
);
width = 340;
},
{
layerId = "05DCEB7D-DEF5-48FB-88E5-EF320714A6F1";
name = "Bold";
paths = (
{
closed = 1;
nodes = (
"27 587 LINE",
"211 610 OFFCURVE",
"351 536 OFFCURVE",
"302 449 CURVE",
"262 370 LINE",
"303 491 OFFCURVE",
"85 530 OFFCURVE",
"-65 517 CURVE"
);
},
{
closed = 1;
nodes = (
"115 589 LINE",
"162 420 OFFCURVE",
"167 275 OFFCURVE",
"199 20 CURVE",
"125 -60 LINE",
"97 164 OFFCURVE",
"94 309 OFFCURVE",
"47 511 CURVE"
);
},
{
closed = 1;
nodes = (
"330 42 OFFCURVE",
"252 222 OFFCURVE",
"139 232 CURVE",
"203 285 LINE",
"312 255 OFFCURVE",
"400 89 OFFCURVE",
"400 23 CURVE",
"324 -42 LINE"
);
},
{
closed = 1;
nodes = (
"141 291 LINE",
"185 299 OFFCURVE",
"248 370 OFFCURVE",
"299 449 CURVE",
"262 370 LINE",
"232 314 OFFCURVE",
"158 226 OFFCURVE",
"112 211 CURVE"
);
}
);
width = 356;
}
);
leftMetricsKey = "P";
rightMetricsKey = "K";
unicode = 0052;
},
{
glyphname = "S";
lastChange = "2013-05-28 12:26:31 +0100";
layers = (
{
background = {
paths = (
{
closed = 1;
nodes = (
"-13 587 LINE",
"171 610 OFFCURVE",
"311 536 OFFCURVE",
"262 449 CURVE",
"222 370 LINE",
"263 491 OFFCURVE",
"45 530 OFFCURVE",
"-105 517 CURVE"
);
},
{
closed = 1;
nodes = (
"75 589 LINE",
"122 420 OFFCURVE",
"127 275 OFFCURVE",
"159 20 CURVE",
"85 -60 LINE",
"57 164 OFFCURVE",
"54 309 OFFCURVE",
"7 511 CURVE"
);
},
{
closed = 1;
nodes = (
"290 42 OFFCURVE",
"212 250 OFFCURVE",
"99 260 CURVE",
"163 313 LINE",
"272 283 OFFCURVE",
"360 89 OFFCURVE",
"360 23 CURVE",
"284 -42 LINE"
);
},
{
closed = 1;
nodes = (
"101 305 LINE",
"145 313 OFFCURVE",
"208 356 OFFCURVE",
"259 449 CURVE",
"222 370 LINE",
"192 314 OFFCURVE",
"118 254 OFFCURVE",
"72 239 CURVE"
);
}
);
};
layerId = "1E238986-8A4D-4620-9F99-918EE406194F";
name = "Light";
paths = (
{
closed = 1;
nodes = (
"45 600 LINE",
"-4 503 OFFCURVE",
"366 160 OFFCURVE",
"329 0 CURVE",
"285 -45 LINE",
"324 141 OFFCURVE",
"-48 444 OFFCURVE",
"8 548 CURVE"
);
},
{
closed = 1;
nodes = (
"59 113 LINE",
"59 32 OFFCURVE",
"240 -68 OFFCURVE",
"326 0 CURVE",
"285 -45 LINE",
"206 -97 OFFCURVE",
"22 -20 OFFCURVE",
"22 66 CURVE"
);
},
{
closed = 1;
nodes = (
"219 481 LINE",
"202 516 OFFCURVE",
"61 576 OFFCURVE",
"8 548 CURVE",
"45 600 LINE",
"87 623 OFFCURVE",
"218 571 OFFCURVE",
"250 526 CURVE"
);
}
);
width = 310;
},
{
layerId = "05DCEB7D-DEF5-48FB-88E5-EF320714A6F1";
name = "Bold";
paths = (
{
closed = 1;
nodes = (
"45 589 LINE",
"10 469 OFFCURVE",
"392 183 OFFCURVE",
"355 23 CURVE",
"285 -45 LINE",
"324 141 OFFCURVE",
"-49 407 OFFCURVE",
"7 511 CURVE"
);
},
{
closed = 1;
nodes = (
"85 126 LINE",
"85 45 OFFCURVE",
"266 -45 OFFCURVE",
"352 23 CURVE",
"285 -45 LINE",
"206 -97 OFFCURVE",
"22 -20 OFFCURVE",
"22 66 CURVE"
);
},
{
closed = 1;
nodes = (
"196 454 LINE",
"175 484 OFFCURVE",
"53 530 OFFCURVE",
"7 511 CURVE",
"45 589 LINE",
"87 612 OFFCURVE",
"218 571 OFFCURVE",
"250 526 CURVE"
);
}
);
width = 330;
}
);
unicode = 0053;
},
{
glyphname = "T";
lastChange = "2013-05-28 12:26:31 +0100";
layers = (
{
layerId = "1E238986-8A4D-4620-9F99-918EE406194F";
name = "Light";
paths = (
{
closed = 1;
nodes = (
"103 599 LINE",
"130 460 OFFCURVE",
"148 235 OFFCURVE",
"170 -20 CURVE",
"113 -52 LINE",
"95 172 OFFCURVE",
"73 399 OFFCURVE",
"46 571 CURVE"
);
},
{
closed = 1;
nodes = (
"-37 549 LINE",
"67 532 OFFCURVE",
"171 546 OFFCURVE",
"275 569 CURVE",
"231 514 LINE",
"129 488 OFFCURVE",
"11 489 OFFCURVE",
"-91 503 CURVE"
);
}
);
width = 210;
},
{
layerId = "05DCEB7D-DEF5-48FB-88E5-EF320714A6F1";
name = "Bold";
paths = (
{
closed = 1;
nodes = (
"115 589 LINE",
"142 450 OFFCURVE",
"177 275 OFFCURVE",
"199 20 CURVE",
"123 -53 LINE",
"105 171 OFFCURVE",
"85 368 OFFCURVE",
"43 531 CURVE"
);
},
{
closed = 1;
nodes = (
"-17 561 LINE",
"87 544 OFFCURVE",
"191 558 OFFCURVE",
"295 581 CURVE",
"215 508 LINE",
"113 482 OFFCURVE",
"-5 483 OFFCURVE",
"-107 497 CURVE"
);
}
);
width = 240;
}
);
unicode = 0054;
},
{
glyphname = "U";
lastChange = "2013-05-28 12:26:31 +0100";
layers = (
{
anchors = (
{
name = "ogonek";
position = "{297, 10}";
},
{
name = "top";
position = "{128, 600}";
}
);
background = {
paths = (
{
closed = 1;
nodes = (
"22 463 OFFCURVE",
"141 50 OFFCURVE",
"154 -20 CURVE",
"202 27 LINE",
"192 83 OFFCURVE",
"58 541 OFFCURVE",
"47 600 CURVE",
"0 561 LINE"
);
},
{
closed = 1;
nodes = (
"220 441 OFFCURVE",
"175 115 OFFCURVE",
"154 -20 CURVE",
"202 27 LINE",
"219 164 OFFCURVE",
"259 472 OFFCURVE",
"270 609 CURVE",
"220 570 LINE"
);
}
);
};
layerId = "1E238986-8A4D-4620-9F99-918EE406194F";
name = "Light";
paths = (
{
closed = 1;
nodes = (
"240 600 LINE",
"259 544 OFFCURVE",
"269 96 OFFCURVE",
"326 0 CURVE",
"270 -31 LINE",
"216 75 OFFCURVE",
"231 452 OFFCURVE",
"198 561 CURVE"
);
},
{
closed = 1;
nodes = (
"51 585 LINE",
"62 482 OFFCURVE",
"76 137 OFFCURVE",
"164 47 CURVE",
"106 0 LINE",
"29 59 OFFCURVE",
"11 403 OFFCURVE",
"-2 546 CURVE"
);
},
{
closed = 1;
nodes = (
"240 600 LINE",
"245 463 OFFCURVE",
"210 184 OFFCURVE",
"164 47 CURVE",
"106 0 LINE",
"156 135 OFFCURVE",
"214 432 OFFCURVE",
"198 561 CURVE"
);
}
);
width = 330;
},
{
anchors = (
{
name = "ogonek";
position = "{320, 10}";
},
{
name = "top";
position = "{151, 600}";
}
);
background = {
paths = (
{
closed = 1;
nodes = (
"262 618 LINE",
"289 479 OFFCURVE",
"302 255 OFFCURVE",
"324 0 CURVE",
"248 -73 LINE",
"230 151 OFFCURVE",
"236 377 OFFCURVE",
"194 540 CURVE"
);
}
);
};
layerId = "05DCEB7D-DEF5-48FB-88E5-EF320714A6F1";
name = "Bold";
paths = (
{
closed = 1;
nodes = (
"285 615 LINE",
"304 559 OFFCURVE",
"292 96 OFFCURVE",
"349 0 CURVE",
"271 -73 LINE",
"217 33 OFFCURVE",
"250 431 OFFCURVE",
"217 540 CURVE"
);
},
{
closed = 1;
nodes = (
"74 585 LINE",
"85 482 OFFCURVE",
"99 137 OFFCURVE",
"187 47 CURVE",
"112 -28 LINE",
"35 31 OFFCURVE",
"23 368 OFFCURVE",
"10 511 CURVE"
);
},
{
closed = 1;
nodes = (
"285 615 LINE",
"290 478 OFFCURVE",
"233 184 OFFCURVE",
"187 47 CURVE",
"112 -28 LINE",
"162 107 OFFCURVE",
"233 411 OFFCURVE",
"217 540 CURVE"
);
}
);
width = 334;
}
);
unicode = 0055;
},
{
glyphname = "V";
lastChange = "2013-05-31 12:15:09 +0100";
layers = (
{
layerId = "1E238986-8A4D-4620-9F99-918EE406194F";
name = "Light";
paths = (
{
closed = 1;
nodes = (
"47 600 LINE",
"58 541 OFFCURVE",
"192 83 OFFCURVE",
"202 27 CURVE",
"154 -20 LINE",
"141 50 OFFCURVE",
"22 463 OFFCURVE",
"0 561 CURVE"
);
},
{
closed = 1;
nodes = (
"270 609 LINE",
"259 472 OFFCURVE",
"219 164 OFFCURVE",
"202 27 CURVE",
"154 -20 LINE",
"175 115 OFFCURVE",
"220 441 OFFCURVE",
"220 570 CURVE"
);
}
);
width = 270;
},
{
background = {
paths = (
{
closed = 1;
nodes = (
"262 615 LINE",
"281 559 OFFCURVE",
"269 96 OFFCURVE",
"326 0 CURVE",
"248 -73 LINE",
"194 33 OFFCURVE",
"227 431 OFFCURVE",
"194 540 CURVE"
);
},
{
closed = 1;
nodes = (
"51 585 LINE",
"62 482 OFFCURVE",
"76 137 OFFCURVE",
"164 47 CURVE",
"89 -28 LINE",
"12 31 OFFCURVE",
"0 368 OFFCURVE",
"-13 511 CURVE"
);
},
{
closed = 1;
nodes = (
"262 615 LINE",
"267 478 OFFCURVE",
"210 184 OFFCURVE",
"164 47 CURVE",
"89 -28 LINE",
"139 107 OFFCURVE",
"210 411 OFFCURVE",
"194 540 CURVE"
);
}
);
};
layerId = "05DCEB7D-DEF5-48FB-88E5-EF320714A6F1";
name = "Bold";
paths = (
{
closed = 1;
nodes = (
"40 600 LINE",
"50 519 OFFCURVE",
"175 91 OFFCURVE",
"196 40 CURVE",
"121 -38 LINE",
"97 22 OFFCURVE",
"-12 400 OFFCURVE",
"-20 511 CURVE"
);
},
{
closed = 1;
nodes = (
"295 615 LINE",
"284 478 OFFCURVE",
"213 177 OFFCURVE",
"196 40 CURVE",
"121 -38 LINE",
"142 97 OFFCURVE",
"212 411 OFFCURVE",
"227 540 CURVE"
);
}
);
width = 275;
}
);
unicode = 0056;
},
{
glyphname = "W";
lastChange = "2013-05-31 12:15:09 +0100";
layers = (
{
anchors = (
{
name = "top";
position = "{200, 600}";
}
);
layerId = "1E238986-8A4D-4620-9F99-918EE406194F";
name = "Light";
paths = (
{
closed = 1;
nodes = (
"13 600 LINE",
"43 580 OFFCURVE",
"111 132 OFFCURVE",
"154 0 CURVE",
"98 -35 LINE",
"65 90 OFFCURVE",
"5 430 OFFCURVE",
"-27 560 CURVE"
);
},
{
closed = 1;
nodes = (
"233 497 LINE",
"194 360 OFFCURVE",
"168 113 OFFCURVE",
"154 0 CURVE",
"98 -35 LINE",
"124 100 OFFCURVE",
"144 365 OFFCURVE",
"182 461 CURVE"
);
},
{
closed = 1;
nodes = (
"235 500 LINE",
"246 441 OFFCURVE",
"342 83 OFFCURVE",
"362 27 CURVE",
"308 -20 LINE",
"291 50 OFFCURVE",
"204 363 OFFCURVE",
"182 461 CURVE"
);
},
{
closed = 1;
nodes = (
"390 609 LINE",
"379 472 OFFCURVE",
"379 164 OFFCURVE",
"362 27 CURVE",
"308 -20 LINE",
"329 115 OFFCURVE",
"330 441 OFFCURVE",
"330 570 CURVE"
);
}
);
width = 420;
},
{
anchors = (
{
name = "top";
position = "{233, 600}";
}
);
layerId = "05DCEB7D-DEF5-48FB-88E5-EF320714A6F1";
name = "Bold";
paths = (
{
closed = 1;
nodes = (
"40 600 LINE",
"50 519 OFFCURVE",
"175 91 OFFCURVE",
"196 40 CURVE",
"121 -38 LINE",
"97 22 OFFCURVE",
"-12 400 OFFCURVE",
"-20 511 CURVE"
);
},
{
closed = 1;
nodes = (
"267 478 LINE",
"256 341 OFFCURVE",
"213 177 OFFCURVE",
"196 40 CURVE",
"121 -38 LINE",
"142 97 OFFCURVE",
"184 274 OFFCURVE",
"199 403 CURVE"
);
},
{
closed = 1;
nodes = (
"267 478 LINE",
"256 341 OFFCURVE",
"412 166 OFFCURVE",
"395 29 CURVE",
"320 -49 LINE",
"341 86 OFFCURVE",
"184 274 OFFCURVE",
"199 403 CURVE"
);
},
{
closed = 1;
nodes = (
"475 613 LINE",
"455 532 OFFCURVE",
"424 80 OFFCURVE",
"395 29 CURVE",
"320 -49 LINE",
"346 11 OFFCURVE",
"374 422 OFFCURVE",
"396 533 CURVE"
);
}
);
width = 455;
}
);
leftMetricsKey = "V";
rightMetricsKey = "V";
unicode = 0057;
},
{
glyphname = "X";
lastChange = "2013-05-31 12:15:09 +0100";
layers = (
{
layerId = "1E238986-8A4D-4620-9F99-918EE406194F";
name = "Light";
paths = (
{
closed = 1;
nodes = (
"47 600 LINE",
"58 541 OFFCURVE",
"282 123 OFFCURVE",
"302 17 CURVE",
"254 -30 LINE",
"231 90 OFFCURVE",
"22 463 OFFCURVE",
"0 561 CURVE"
);
},
{
closed = 1;
nodes = (
"330 599 LINE",
"239 462 OFFCURVE",
"89 164 OFFCURVE",
"72 27 CURVE",
"4 -10 LINE",
"25 125 OFFCURVE",
"180 441 OFFCURVE",
"260 570 CURVE"
);
}
);
width = 300;
},
{
layerId = "05DCEB7D-DEF5-48FB-88E5-EF320714A6F1";
name = "Bold";
paths = (
{
closed = 1;
nodes = (
"54 600 LINE",
"65 541 OFFCURVE",
"289 123 OFFCURVE",
"309 17 CURVE",
"234 -30 LINE",
"211 90 OFFCURVE",
"2 463 OFFCURVE",
"-20 561 CURVE"
);
},
{
closed = 1;
nodes = (
"327 599 LINE",
"236 462 OFFCURVE",
"86 164 OFFCURVE",
"69 27 CURVE",
"-19 -10 LINE",
"2 125 OFFCURVE",
"157 441 OFFCURVE",
"237 570 CURVE"
);
}
);
width = 307;
}
);
unicode = 0058;
},
{
glyphname = "Y";
lastChange = "2013-05-28 12:26:31 +0100";
layers = (
{
anchors = (
{
name = "top";
position = "{131, 600}";
}
);
background = {
paths = (
{
closed = 1;
nodes = (
"236 600 LINE",
"255 544 OFFCURVE",
"259 96 OFFCURVE",
"316 0 CURVE",
"270 -31 LINE",
"216 75 OFFCURVE",
"231 452 OFFCURVE",
"198 561 CURVE"
);
},
{
closed = 1;
nodes = (
"51 585 LINE",
"62 482 OFFCURVE",
"76 137 OFFCURVE",
"164 47 CURVE",
"116 0 LINE",
"39 59 OFFCURVE",
"17 403 OFFCURVE",
"4 546 CURVE"
);
},
{
closed = 1;
nodes = (
"236 600 LINE",
"241 463 OFFCURVE",
"210 184 OFFCURVE",
"164 47 CURVE",
"116 0 LINE",
"166 135 OFFCURVE",
"214 432 OFFCURVE",
"198 561 CURVE"
);
}
);
};
layerId = "1E238986-8A4D-4620-9F99-918EE406194F";
name = "Light";
paths = (
{
closed = 1;
nodes = (
"51 605 LINE",
"62 502 OFFCURVE",
"86 177 OFFCURVE",
"174 87 CURVE",
"116 40 LINE",
"39 99 OFFCURVE",
"9 417 OFFCURVE",
"-4 560 CURVE"
);
},
{
closed = 1;
nodes = (
"246 584 LINE",
"251 447 OFFCURVE",
"220 224 OFFCURVE",
"174 87 CURVE",
"116 40 LINE",
"166 175 OFFCURVE",
"214 412 OFFCURVE",
"198 541 CURVE"
);
},
{
closed = 1;
nodes = (
"251 444 OFFCURVE",
"378 -79 OFFCURVE",
"378 -297 CURVE",
"322 -333 LINE",
"318 -167 OFFCURVE",
"205 426 OFFCURVE",
"198 539 CURVE",
"247 584 LINE"
);
},
{
closed = 1;
nodes = (
"160 -24 OFFCURVE",
"246 -119 OFFCURVE",
"378 -297 CURVE",
"318 -344 LINE",
"214 -196 OFFCURVE",
"71 -31 OFFCURVE",
"265 60 CURVE"
);
}
);
width = 330;
},
{
anchors = (
{
name = "top";
position = "{144, 600}";
}
);
background = {
paths = (
{
closed = 1;
nodes = (
"236 600 LINE",
"255 544 OFFCURVE",
"259 96 OFFCURVE",
"316 0 CURVE",
"270 -31 LINE",
"216 75 OFFCURVE",
"231 452 OFFCURVE",
"198 561 CURVE"
);
},
{
closed = 1;
nodes = (
"51 585 LINE",
"62 482 OFFCURVE",
"76 137 OFFCURVE",
"164 47 CURVE",
"116 0 LINE",
"39 59 OFFCURVE",
"17 403 OFFCURVE",
"4 546 CURVE"
);
},
{
closed = 1;
nodes = (
"236 600 LINE",
"241 463 OFFCURVE",
"210 184 OFFCURVE",
"164 47 CURVE",
"116 0 LINE",
"166 135 OFFCURVE",
"214 432 OFFCURVE",
"198 561 CURVE"
);
}
);
};
layerId = "05DCEB7D-DEF5-48FB-88E5-EF320714A6F1";
name = "Bold";
paths = (
{
closed = 1;
nodes = (
"64 605 LINE",
"75 502 OFFCURVE",
"89 137 OFFCURVE",
"177 47 CURVE",
"102 -28 LINE",
"25 31 OFFCURVE",
"13 388 OFFCURVE",
"0 531 CURVE"
);
},
{
closed = 1;
nodes = (
"275 595 LINE",
"280 458 OFFCURVE",
"223 184 OFFCURVE",
"177 47 CURVE",
"102 -28 LINE",
"152 107 OFFCURVE",
"227 411 OFFCURVE",
"211 540 CURVE"
);
},
{
closed = 1;
nodes = (
"283 460 OFFCURVE",
"410 -89 OFFCURVE",
"410 -307 CURVE",
"330 -333 LINE",
"326 -167 OFFCURVE",
"218 427 OFFCURVE",
"211 540 CURVE",
"279 600 LINE"
);
},
{
closed = 1;
nodes = (
"168 -24 OFFCURVE",
"278 -129 OFFCURVE",
"410 -307 CURVE",
"326 -344 LINE",
"190 -180 OFFCURVE",
"34 -36 OFFCURVE",
"273 60 CURVE"
);
}
);
width = 343;
}
);
leftMetricsKey = "U";
rightMetricsKey = "J";
unicode = 0059;
},
{
glyphname = "Z";
lastChange = "2013-05-28 12:26:31 +0100";
layers = (
{
layerId = "1E238986-8A4D-4620-9F99-918EE406194F";
name = "Light";
paths = (
{
closed = 1;
nodes = (
"135 544 OFFCURVE",
"230 566 OFFCURVE",
"331 600 CURVE",
"241 533 LINE",
"159 493 OFFCURVE",
"80 494 OFFCURVE",
"-14 495 CURVE",
"44 542 LINE"
);
},
{
closed = 1;
nodes = (
"-36 -20 LINE",
"-15 115 OFFCURVE",
"180 441 OFFCURVE",
"260 570 CURVE",
"330 599 LINE",
"239 462 OFFCURVE",
"49 154 OFFCURVE",
"32 37 CURVE"
);
},
{
closed = 1;
nodes = (
"141 368 OFFCURVE",
"197 364 OFFCURVE",
"254 360 CURVE",
"206 326 LINE",
"147 329 OFFCURVE",
"89 333 OFFCURVE",
"30 336 CURVE",
"84 372 LINE"
);
},
{
closed = 1;
nodes = (
"119 90 OFFCURVE",
"194 112 OFFCURVE",
"302 109 CURVE",
"243 64 LINE",
"140 58 OFFCURVE",
"67 29 OFFCURVE",
"-36 -20 CURVE",
"22 37 LINE"
);
}
);
width = 240;
},
{
layerId = "05DCEB7D-DEF5-48FB-88E5-EF320714A6F1";
name = "Bold";
paths = (
{
closed = 1;
nodes = (
"186 572 OFFCURVE",
"351 578 OFFCURVE",
"478 614 CURVE",
"382 541 LINE",
"260 475 OFFCURVE",
"102 491 OFFCURVE",
"4 526 CURVE",
"79 600 LINE"
);
},
{
closed = 1;
nodes = (
"-40 25 LINE",
"82 205 OFFCURVE",
"241 369 OFFCURVE",
"363 549 CURVE",
"478 614 LINE",
"352 449 OFFCURVE",
"211 286 OFFCURVE",
"85 121 CURVE"
);
},
{
closed = 1;
nodes = (
"179 396 OFFCURVE",
"366 370 OFFCURVE",
"454 395 CURVE",
"344 310 LINE",
"269 281 OFFCURVE",
"98 309 OFFCURVE",
"31 321 CURVE",
"104 406 LINE"
);
},
{
closed = 1;
nodes = (
"183 189 OFFCURVE",
"353 143 OFFCURVE",
"480 104 CURVE",
"397 31 LINE",
"282 70 OFFCURVE",
"109 76 OFFCURVE",
"-40 25 CURVE",
"27 118 LINE"
);
}
);
width = 450;
}
);
unicode = 005A;
},
{
glyphname = "a";
lastChange = "2013-05-28 12:26:31 +0100";
layers = (
{
anchors = (
{
name = "ogonek";
position = "{193, 10}";
},
{
name = "top";
position = "{99, 370}";
}
);
layerId = "1E238986-8A4D-4620-9F99-918EE406194F";
name = "Light";
paths = (
{
closed = 1;
nodes = (
"171 366 LINE",
"175 247 OFFCURVE",
"201 104 OFFCURVE",
"240 0 CURVE",
"184 -26 LINE",
"150 83 OFFCURVE",
"127 234 OFFCURVE",
"120 347 CURVE"
);
},
{
closed = 1;
nodes = (
"96 52 LINE",
"132 116 OFFCURVE",
"154 346 OFFCURVE",
"69 352 CURVE",
"106 386 LINE",
"184 409 OFFCURVE",
"190 23 OFFCURVE",
"67 0 CURVE"
);
},
{
closed = 1;
nodes = (
"67 0 LINE",
"-33 145 OFFCURVE",
"13 372 OFFCURVE",
"106 386 CURVE",
"75 351 LINE",
"44 265 OFFCURVE",
"53 153 OFFCURVE",
"96 52 CURVE"
);
}
);
width = 225;
},
{
anchors = (
{
name = "ogonek";
position = "{254, 10}";
},
{
name = "top";
position = "{160, 370}";
}
);
layerId = "05DCEB7D-DEF5-48FB-88E5-EF320714A6F1";
name = "Bold";
paths = (
{
closed = 1;
nodes = (
"260 390 LINE",
"264 271 OFFCURVE",
"300 108 OFFCURVE",
"339 4 CURVE",
"252 -26 LINE",
"218 83 OFFCURVE",
"185 254 OFFCURVE",
"178 367 CURVE"
);
},
{
closed = 1;
nodes = (
"197 65 LINE",
"268 129 OFFCURVE",
"193 272 OFFCURVE",
"100 323 CURVE",
"144 376 LINE",
"237 329 OFFCURVE",
"387 51 OFFCURVE",
"118 -14 CURVE"
);
},
{
closed = 1;
nodes = (
"118 -14 LINE",
"-12 90 OFFCURVE",
"-55 276 OFFCURVE",
"144 376 CURVE",
"100 323 LINE",
"66 235 OFFCURVE",
"85 127 OFFCURVE",
"197 65 CURVE"
);
}
);
width = 312;
}
);
unicode = 0061;
},
{
glyphname = "b";
lastChange = "2013-05-28 12:26:31 +0100";
layers = (
{
background = {
paths = (
{
closed = 1;
nodes = (
"144 66 OFFCURVE",
"161 139 OFFCURVE",
"161 173 CURVE SMOOTH",
"161 222 OFFCURVE",
"141 304 OFFCURVE",
"98 345 CURVE",
"143 390 LINE",
"195 343 OFFCURVE",
"217 259 OFFCURVE",
"217 202 CURVE SMOOTH",
"217 107 OFFCURVE",
"127 10 OFFCURVE",
"62 -5 CURVE",
"101 52 LINE"
);
}
);
};
layerId = "1E238986-8A4D-4620-9F99-918EE406194F";
name = "Light";
paths = (
{
closed = 1;
nodes = (
"-43 600 LINE",
"0 568 OFFCURVE",
"69 274 OFFCURVE",
"101 52 CURVE",
"62 -5 LINE",
"33 208 OFFCURVE",
"-42 473 OFFCURVE",
"-89 561 CURVE"
);
},
{
closed = 1;
nodes = (
"174 66 OFFCURVE",
"181 279 OFFCURVE",
"98 345 CURVE",
"143 390 LINE",
"255 273 OFFCURVE",
"247 55 OFFCURVE",
"62 -5 CURVE",
"101 52 LINE"
);
},
{
closed = 1;
nodes = (
"62 -5 LINE",
"53 124 OFFCURVE",
"50 223 OFFCURVE",
"98 345 CURVE",
"143 390 LINE",
"102 266 OFFCURVE",
"74 173 OFFCURVE",
"101 52 CURVE"
);
}
);
width = 207;
},
{
background = {
paths = (
{
closed = 1;
nodes = (
"44 542 LINE",
"72 410 OFFCURVE",
"89 305 OFFCURVE",
"119 60 CURVE",
"42 -24 LINE",
"14 200 OFFCURVE",
"11 315 OFFCURVE",
"-36 517 CURVE"
);
},
{
closed = 1;
nodes = (
"214 542 LINE",
"242 410 OFFCURVE",
"259 305 OFFCURVE",
"289 60 CURVE",
"212 -24 LINE",
"184 200 OFFCURVE",
"181 315 OFFCURVE",
"134 517 CURVE"
);
}
);
};
layerId = "05DCEB7D-DEF5-48FB-88E5-EF320714A6F1";
name = "Bold";
paths = (
{
closed = 1;
nodes = (
"17 610 LINE",
"60 578 OFFCURVE",
"129 284 OFFCURVE",
"161 62 CURVE",
"82 -25 LINE",
"53 188 OFFCURVE",
"-2 473 OFFCURVE",
"-49 561 CURVE"
);
},
{
closed = 1;
nodes = (
"204 76 OFFCURVE",
"287 297 OFFCURVE",
"148 345 CURVE",
"213 400 LINE",
"363 353 OFFCURVE",
"321 97 OFFCURVE",
"82 -25 CURVE",
"161 62 LINE"
);
},
{
closed = 1;
nodes = (
"82 -25 LINE",
"73 104 OFFCURVE",
"100 223 OFFCURVE",
"148 345 CURVE",
"213 400 LINE",
"172 276 OFFCURVE",
"134 183 OFFCURVE",
"161 62 CURVE"
);
}
);
width = 310;
}
);
unicode = 0062;
},
{
glyphname = "c";
lastChange = "2013-05-28 12:26:31 +0100";
layers = (
{
anchors = (
{
name = "bottom";
position = "{62, 0}";
},
{
name = "top";
position = "{97, 370}";
}
);
layerId = "1E238986-8A4D-4620-9F99-918EE406194F";
name = "Light";
paths = (
{
closed = 1;
nodes = (
"115 273 LINE",
"105 329 OFFCURVE",
"97 352 OFFCURVE",
"56 352 CURVE",
"93 386 LINE",
"129 389 OFFCURVE",
"158 366 OFFCURVE",
"169 295 CURVE"
);
},
{
closed = 1;
nodes = (
"84 0 LINE",
"-29 145 OFFCURVE",
"-10 372 OFFCURVE",
"93 386 CURVE",
"62 351 LINE",
"31 265 OFFCURVE",
"91 96 OFFCURVE",
"118 52 CURVE"
);
},
{
closed = 1;
nodes = (
"221 195 LINE",
"210 97 OFFCURVE",
"177 36 OFFCURVE",
"84 0 CURVE",
"118 52 LINE",
"140 63 OFFCURVE",
"156 97 OFFCURVE",
"167 165 CURVE"
);
}
);
width = 189;
},
{
anchors = (
{
name = "bottom";
position = "{63, 0}";
},
{
name = "top";
position = "{98, 370}";
}
);
background = {
paths = (
{
closed = 1;
nodes = (
"4 542 LINE",
"32 410 OFFCURVE",
"49 305 OFFCURVE",
"79 60 CURVE",
"2 -24 LINE",
"-26 200 OFFCURVE",
"-29 315 OFFCURVE",
"-76 517 CURVE"
);
},
{
closed = 1;
nodes = (
"164 542 LINE",
"192 410 OFFCURVE",
"209 305 OFFCURVE",
"239 60 CURVE",
"162 -24 LINE",
"134 200 OFFCURVE",
"131 315 OFFCURVE",
"84 517 CURVE"
);
},
{
closed = 1;
nodes = (
"204 542 LINE",
"232 410 OFFCURVE",
"249 305 OFFCURVE",
"279 60 CURVE",
"202 -24 LINE",
"174 200 OFFCURVE",
"171 315 OFFCURVE",
"124 517 CURVE"
);
},
{
closed = 1;
nodes = (
"84 542 LINE",
"112 410 OFFCURVE",
"129 305 OFFCURVE",
"159 60 CURVE",
"82 -24 LINE",
"54 200 OFFCURVE",
"51 315 OFFCURVE",
"4 517 CURVE"
);
}
);
};
layerId = "05DCEB7D-DEF5-48FB-88E5-EF320714A6F1";
name = "Bold";
paths = (
{
closed = 1;
nodes = (
"127 278 LINE",
"117 334 OFFCURVE",
"84 339 OFFCURVE",
"43 339 CURVE",
"98 400 LINE",
"134 403 OFFCURVE",
"190 384 OFFCURVE",
"201 313 CURVE"
);
},
{
closed = 1;
nodes = (
"48 -24 LINE",
"-65 121 OFFCURVE",
"-5 386 OFFCURVE",
"98 400 CURVE",
"49 338 LINE",
"18 252 OFFCURVE",
"68 113 OFFCURVE",
"115 60 CURVE"
);
},
{
closed = 1;
nodes = (
"256 214 LINE",
"245 116 OFFCURVE",
"141 12 OFFCURVE",
"48 -24 CURVE",
"115 60 LINE",
"137 71 OFFCURVE",
"165 97 OFFCURVE",
"176 165 CURVE"
);
}
);
width = 214;
}
);
unicode = 0063;
},
{
glyphname = "d";
lastChange = "2013-05-28 12:26:31 +0100";
layers = (
{
layerId = "1E238986-8A4D-4620-9F99-918EE406194F";
name = "Light";
paths = (
{
closed = 1;
nodes = (
"124 36 LINE",
"224 138 OFFCURVE",
"103 361 OFFCURVE",
"-45 556 CURVE",
"12 590 LINE",
"160 399 OFFCURVE",
"327 117 OFFCURVE",
"95 -16 CURVE"
);
},
{
closed = 1;
nodes = (
"95 -16 LINE",
"-41 95 OFFCURVE",
"-30 297 OFFCURVE",
"99 370 CURVE",
"78 335 LINE",
"27 239 OFFCURVE",
"55 111 OFFCURVE",
"124 36 CURVE"
);
}
);
width = 213;
},
{
background = {
paths = (
{
closed = 1;
nodes = (
"74 542 LINE",
"102 410 OFFCURVE",
"119 305 OFFCURVE",
"149 60 CURVE",
"72 -24 LINE",
"44 200 OFFCURVE",
"41 315 OFFCURVE",
"-6 517 CURVE"
);
}
);
};
layerId = "05DCEB7D-DEF5-48FB-88E5-EF320714A6F1";
name = "Bold";
paths = (
{
closed = 1;
nodes = (
"154 56 LINE",
"239 143 OFFCURVE",
"113 361 OFFCURVE",
"-35 556 CURVE",
"42 590 LINE",
"190 399 OFFCURVE",
"373 155 OFFCURVE",
"85 -17 CURVE"
);
},
{
closed = 1;
nodes = (
"85 -17 LINE",
"3 71 OFFCURVE",
"-28 232 OFFCURVE",
"56 324 CURVE",
"121 363 LINE",
"63 257 OFFCURVE",
"75 115 OFFCURVE",
"154 56 CURVE"
);
}
);
width = 238;
}
);
rightMetricsKey = "o";
unicode = 0064;
},
{
glyphname = "e";
lastChange = "2013-05-28 12:26:31 +0100";
layers = (
{
associatedMasterId = "1E238986-8A4D-4620-9F99-918EE406194F";
layerId = "6AEB729F-1B11-4949-99E7-C0259BA65322";
name = "Regular May 20 13, 13:39";
paths = (
{
closed = 1;
nodes = (
"22 187 LINE",
"87 251 OFFCURVE",
"93 293 OFFCURVE",
"20 322 CURVE",
"57 362 LINE",
"130 361 OFFCURVE",
"157 205 OFFCURVE",
"-7 135 CURVE"
);
},
{
closed = 1;
nodes = (
"108 46 OFFCURVE",
"149 99 OFFCURVE",
"167 154 CURVE",
"204 188 LINE",
"198 106 OFFCURVE",
"151 0 OFFCURVE",
"78 0 CURVE SMOOTH",
"-48 0 OFFCURVE",
"-50 330 OFFCURVE",
"57 362 CURVE",
"42 321 LINE",
"-6 212 OFFCURVE",
"54 46 OFFCURVE",
"80 46 CURVE SMOOTH"
);
}
);
width = 154;
},
{
anchors = (
{
name = "bottom";
position = "{97, 0}";
},
{
name = "ogonek";
position = "{184, 10}";
},
{
name = "top";
position = "{97, 370}";
}
);
background = {
paths = (
{
closed = 1;
nodes = (
"114 370 LINE",
"147 366 OFFCURVE",
"175 318 OFFCURVE",
"175 276 CURVE SMOOTH",
"175 226 OFFCURVE",
"144 143 OFFCURVE",
"57 78 CURVE",
"86 130 LINE",
"112 156 OFFCURVE",
"131 209 OFFCURVE",
"131 259 CURVE SMOOTH",
"131 276 OFFCURVE",
"124 331 OFFCURVE",
"77 336 CURVE"
);
},
{
closed = 1;
nodes = (
"-40 109 OFFCURVE",
"-13 338 OFFCURVE",
"114 370 CURVE",
"83 335 LINE",
"35 226 OFFCURVE",
"74 125 OFFCURVE",
"136 50 CURVE",
"107 -2 LINE"
);
}
);
};
layerId = "1E238986-8A4D-4620-9F99-918EE406194F";
name = "Light";
paths = (
{
closed = 1;
nodes = (
"-5 77 OFFCURVE",
"-19 259 OFFCURVE",
"63 341 CURVE",
"116 370 LINE",
"23 240 OFFCURVE",
"72 126 OFFCURVE",
"138 50 CURVE",
"109 -2 LINE"
);
},
{
closed = 1;
nodes = (
"116 370 LINE",
"207 349 OFFCURVE",
"187 190 OFFCURVE",
"110 128 CURVE",
"69 101 LINE",
"154 194 OFFCURVE",
"149 321 OFFCURVE",
"63 341 CURVE"
);
},
{
closed = 1;
nodes = (
"196 63 OFFCURVE",
"177 36 OFFCURVE",
"109 -2 CURVE",
"138 50 LINE",
"165 65 OFFCURVE",
"174 79 OFFCURVE",
"203 143 CURVE",
"238 177 LINE"
);
}
);
width = 206;
},
{
anchors = (
{
name = "bottom";
position = "{89, 0}";
},
{
name = "ogonek";
position = "{176, 10}";
},
{
name = "top";
position = "{105, 370}";
}
);
background = {
paths = (
{
closed = 1;
nodes = (
"95 50 LINE",
"131 114 OFFCURVE",
"141 330 OFFCURVE",
"56 336 CURVE",
"93 370 LINE",
"171 393 OFFCURVE",
"207 54 OFFCURVE",
"66 -2 CURVE"
);
}
);
};
layerId = "05DCEB7D-DEF5-48FB-88E5-EF320714A6F1";
name = "Bold";
paths = (
{
closed = 1;
nodes = (
"-7 71 OFFCURVE",
"-46 230 OFFCURVE",
"38 322 CURVE",
"111 385 LINE",
"53 279 OFFCURVE",
"65 115 OFFCURVE",
"144 56 CURVE",
"75 -17 LINE"
);
},
{
closed = 1;
nodes = (
"111 385 LINE",
"268 329 OFFCURVE",
"216 247 OFFCURVE",
"127 142 CURVE",
"68 108 LINE",
"147 195 OFFCURVE",
"191 236 OFFCURVE",
"38 322 CURVE"
);
},
{
closed = 1;
nodes = (
"272 136 OFFCURVE",
"193 53 OFFCURVE",
"75 -17 CURVE",
"144 56 LINE",
"170 82 OFFCURVE",
"206 121 OFFCURVE",
"208 168 CURVE",
"267 222 LINE"
);
}
);
width = 221;
}
);
leftMetricsKey = "a";
rightMetricsKey = "c";
unicode = 0065;
},
{
glyphname = "f";
lastChange = "2013-05-28 12:26:31 +0100";
layers = (
{
associatedMasterId = "1E238986-8A4D-4620-9F99-918EE406194F";
layerId = "AC8B6899-8326-4536-AC92-DE1A4A75E7E3";
name = "Regular May 20 13, 21:08";
paths = (
{
closed = 1;
nodes = (
"24 591 LINE",
"33 478 OFFCURVE",
"161 175 OFFCURVE",
"171 -48 CURVE",
"131 -91 LINE",
"121 131 OFFCURVE",
"-9 441 OFFCURVE",
"-16 551 CURVE"
);
},
{
closed = 1;
nodes = (
"33 600 LINE",
"102 591 OFFCURVE",
"139 545 OFFCURVE",
"161 419 CURVE",
"124 393 LINE",
"100 504 OFFCURVE",
"74 554 OFFCURVE",
"-7 560 CURVE"
);
},
{
closed = 1;
nodes = (
"68 71 LINE",
"68 20 OFFCURVE",
"86 -77 OFFCURVE",
"162 -48 CURVE",
"131 -91 LINE",
"64 -107 OFFCURVE",
"23 -13 OFFCURVE",
"23 28 CURVE"
);
},
{
closed = 1;
nodes = (
"71 350 OFFCURVE",
"124 369 OFFCURVE",
"178 361 CURVE",
"144 320 LINE",
"90 330 OFFCURVE",
"37 304 OFFCURVE",
"-17 318 CURVE",
"17 364 LINE"
);
}
);
width = 168;
},
{
layerId = "1E238986-8A4D-4620-9F99-918EE406194F";
name = "Light";
paths = (
{
closed = 1;
nodes = (
"-6 601 LINE",
"3 488 OFFCURVE",
"121 175 OFFCURVE",
"131 -48 CURVE",
"81 -91 LINE",
"71 131 OFFCURVE",
"-49 451 OFFCURVE",
"-56 561 CURVE"
);
},
{
closed = 1;
nodes = (
"-7 600 LINE",
"72 601 OFFCURVE",
"109 555 OFFCURVE",
"131 429 CURVE",
"84 393 LINE",
"60 504 OFFCURVE",
"34 554 OFFCURVE",
"-47 560 CURVE"
);
},
{
closed = 1;
nodes = (
"51 350 OFFCURVE",
"84 369 OFFCURVE",
"138 361 CURVE",
"104 320 LINE",
"50 330 OFFCURVE",
"17 304 OFFCURVE",
"-37 318 CURVE",
"-3 364 LINE"
);
}
);
width = 148;
},
{
background = {
paths = (
{
closed = 1;
nodes = (
"24 552 LINE",
"52 420 OFFCURVE",
"69 315 OFFCURVE",
"99 70 CURVE",
"22 -14 LINE",
"-6 210 OFFCURVE",
"-9 325 OFFCURVE",
"-56 527 CURVE"
);
},
{
closed = 1;
nodes = (
"154 552 LINE",
"182 420 OFFCURVE",
"199 315 OFFCURVE",
"229 70 CURVE",
"152 -14 LINE",
"124 210 OFFCURVE",
"121 325 OFFCURVE",
"74 527 CURVE"
);
}
);
};
layerId = "05DCEB7D-DEF5-48FB-88E5-EF320714A6F1";
name = "Bold";
paths = (
{
closed = 1;
nodes = (
"24 601 LINE",
"33 488 OFFCURVE",
"151 175 OFFCURVE",
"161 -48 CURVE",
"81 -91 LINE",
"71 131 OFFCURVE",
"-49 451 OFFCURVE",
"-56 561 CURVE"
);
},
{
closed = 1;
nodes = (
"23 600 LINE",
"102 601 OFFCURVE",
"189 555 OFFCURVE",
"211 429 CURVE",
"134 393 LINE",
"84 528 OFFCURVE",
"17 554 OFFCURVE",
"-47 560 CURVE"
);
},
{
closed = 1;
nodes = (
"81 350 OFFCURVE",
"114 369 OFFCURVE",
"168 361 CURVE",
"94 300 LINE",
"40 310 OFFCURVE",
"7 284 OFFCURVE",
"-47 298 CURVE",
"27 364 LINE"
);
}
);
width = 168;
}
);
unicode = 0066;
},
{
glyphname = "g";
lastChange = "2013-05-28 12:26:31 +0100";
layers = (
{
layerId = "1E238986-8A4D-4620-9F99-918EE406194F";
name = "Light";
paths = (
{
closed = 1;
nodes = (
"191 350 LINE",
"195 210 OFFCURVE",
"333 -89 OFFCURVE",
"333 -307 CURVE",
"277 -333 LINE",
"273 -167 OFFCURVE",
"147 218 OFFCURVE",
"140 331 CURVE"
);
},
{
closed = 1;
nodes = (
"128 66 LINE",
"164 130 OFFCURVE",
"174 330 OFFCURVE",
"89 336 CURVE",
"126 370 LINE",
"214 393 OFFCURVE",
"250 70 OFFCURVE",
"99 14 CURVE"
);
},
{
closed = 1;
nodes = (
"99 14 LINE",
"-38 125 OFFCURVE",
"9 338 OFFCURVE",
"126 370 CURVE",
"95 335 LINE",
"47 226 OFFCURVE",
"66 141 OFFCURVE",
"128 66 CURVE"
);
},
{
closed = 1;
nodes = (
"115 -24 OFFCURVE",
"201 -129 OFFCURVE",
"333 -307 CURVE",
"273 -344 LINE",
"169 -196 OFFCURVE",
"26 -31 OFFCURVE",
"220 60 CURVE"
);
}
);
width = 243;
},
{
background = {
paths = (
{
closed = 1;
nodes = (
"184 341 LINE",
"193 228 OFFCURVE",
"311 -85 OFFCURVE",
"321 -308 CURVE",
"241 -351 LINE",
"231 -129 OFFCURVE",
"111 191 OFFCURVE",
"104 301 CURVE"
);
},
{
closed = 1;
nodes = (
"112 65 LINE",
"183 129 OFFCURVE",
"108 272 OFFCURVE",
"15 323 CURVE",
"59 376 LINE",
"152 329 OFFCURVE",
"302 51 OFFCURVE",
"33 -14 CURVE"
);
},
{
closed = 1;
nodes = (
"33 -14 LINE",
"-97 90 OFFCURVE",
"-140 276 OFFCURVE",
"59 376 CURVE",
"15 323 LINE",
"-19 235 OFFCURVE",
"0 127 OFFCURVE",
"112 65 CURVE"
);
}
);
};
layerId = "05DCEB7D-DEF5-48FB-88E5-EF320714A6F1";
name = "Bold";
paths = (
{
closed = 1;
nodes = (
"246 358 LINE",
"250 218 OFFCURVE",
"388 -81 OFFCURVE",
"388 -299 CURVE",
"308 -333 LINE",
"304 -167 OFFCURVE",
"181 197 OFFCURVE",
"168 310 CURVE"
);
},
{
closed = 1;
nodes = (
"138 65 LINE",
"220 138 OFFCURVE",
"197 344 OFFCURVE",
"79 323 CURVE",
"123 376 LINE",
"244 410 OFFCURVE",
"306 78 OFFCURVE",
"97 -17 CURVE"
);
},
{
closed = 1;
nodes = (
"97 -17 LINE",
"-60 129 OFFCURVE",
"-37 347 OFFCURVE",
"123 376 CURVE",
"85 322 LINE",
"32 229 OFFCURVE",
"88 138 OFFCURVE",
"138 65 CURVE"
);
},
{
closed = 1;
nodes = (
"146 -24 OFFCURVE",
"256 -121 OFFCURVE",
"388 -299 CURVE",
"304 -344 LINE",
"200 -196 OFFCURVE",
"57 -31 OFFCURVE",
"251 60 CURVE"
);
}
);
width = 304;
}
);
leftMetricsKey = "a";
unicode = 0067;
},
{
glyphname = "h";
lastChange = "2013-05-31 12:15:09 +0100";
layers = (
{
layerId = "1E238986-8A4D-4620-9F99-918EE406194F";
name = "Light";
paths = (
{
closed = 1;
nodes = (
"176 370 LINE",
"222 334 OFFCURVE",
"203 96 OFFCURVE",
"260 0 CURVE",
"194 -31 LINE",
"140 75 OFFCURVE",
"162 239 OFFCURVE",
"129 342 CURVE"
);
},
{
closed = 1;
nodes = (
"13 600 LINE",
"61 555 OFFCURVE",
"51 167 OFFCURVE",
"94 35 CURVE",
"36 0 LINE",
"3 125 OFFCURVE",
"3 430 OFFCURVE",
"-29 560 CURVE"
);
},
{
closed = 1;
nodes = (
"176 370 LINE",
"155 233 OFFCURVE",
"122 172 OFFCURVE",
"94 35 CURVE",
"36 0 LINE",
"81 135 OFFCURVE",
"113 213 OFFCURVE",
"129 342 CURVE"
);
}
);
width = 231;
},
{
background = {
paths = (
{
closed = 1;
nodes = (
"272 358 LINE",
"276 218 OFFCURVE",
"414 -81 OFFCURVE",
"414 -299 CURVE",
"334 -333 LINE",
"330 -167 OFFCURVE",
"201 197 OFFCURVE",
"194 310 CURVE"
);
},
{
closed = 1;
nodes = (
"32 598 LINE",
"36 458 OFFCURVE",
"174 159 OFFCURVE",
"174 -59 CURVE",
"94 -93 LINE",
"90 73 OFFCURVE",
"-39 437 OFFCURVE",
"-46 550 CURVE"
);
}
);
};
layerId = "05DCEB7D-DEF5-48FB-88E5-EF320714A6F1";
name = "Bold";
paths = (
{
closed = 1;
nodes = (
"237 380 LINE",
"283 344 OFFCURVE",
"264 106 OFFCURVE",
"321 10 CURVE",
"244 -21 LINE",
"190 85 OFFCURVE",
"212 249 OFFCURVE",
"179 352 CURVE"
);
},
{
closed = 1;
nodes = (
"33 600 LINE",
"81 555 OFFCURVE",
"101 167 OFFCURVE",
"144 35 CURVE",
"76 0 LINE",
"43 125 OFFCURVE",
"3 420 OFFCURVE",
"-29 550 CURVE"
);
},
{
closed = 1;
nodes = (
"237 380 LINE",
"216 243 OFFCURVE",
"172 172 OFFCURVE",
"144 35 CURVE",
"76 0 LINE",
"121 135 OFFCURVE",
"163 223 OFFCURVE",
"179 352 CURVE"
);
}
);
width = 310;
}
);
unicode = 0068;
},
{
glyphname = "i";
lastChange = "2013-05-31 12:15:09 +0100";
layers = (
{
layerId = "1E238986-8A4D-4620-9F99-918EE406194F";
name = "Light";
paths = (
{
closed = 1;
nodes = (
"44 392 LINE",
"67 266 OFFCURVE",
"75 141 OFFCURVE",
"107 24 CURVE",
"55 -19 LINE",
"20 85 OFFCURVE",
"16 225 OFFCURVE",
"-8 352 CURVE"
);
},
{
closed = 1;
nodes = (
"23 557 LINE",
"32 517 OFFCURVE",
"38 478 OFFCURVE",
"41 439 CURVE",
"-12 396 LINE",
"-14 436 OFFCURVE",
"-21 476 OFFCURVE",
"-29 516 CURVE"
);
}
);
width = 91;
},
{
background = {
paths = (
{
closed = 1;
nodes = (
"79 358 LINE",
"83 218 OFFCURVE",
"221 -81 OFFCURVE",
"221 -299 CURVE",
"141 -333 LINE",
"137 -167 OFFCURVE",
"8 197 OFFCURVE",
"1 310 CURVE"
);
}
);
};
layerId = "05DCEB7D-DEF5-48FB-88E5-EF320714A6F1";
name = "Bold";
paths = (
{
closed = 1;
nodes = (
"74 402 LINE",
"97 276 OFFCURVE",
"105 151 OFFCURVE",
"137 34 CURVE",
"55 -19 LINE",
"20 85 OFFCURVE",
"16 225 OFFCURVE",
"-8 352 CURVE"
);
},
{
closed = 1;
nodes = (
"53 567 LINE",
"62 527 OFFCURVE",
"68 488 OFFCURVE",
"71 449 CURVE",
"-12 396 LINE",
"-14 436 OFFCURVE",
"-21 476 OFFCURVE",
"-29 516 CURVE"
);
}
);
width = 127;
}
);
unicode = 0069;
},
{
glyphname = "iacute";
lastChange = "2013-05-31 12:15:09 +0100";
layers = (
{
components = (
{
name = "acute";
transform = "{1, 0, 0, 1, -20, 0}";
}
);
layerId = "1E238986-8A4D-4620-9F99-918EE406194F";
name = "Light";
paths = (
{
closed = 1;
nodes = (
"44 392 LINE",
"67 266 OFFCURVE",
"75 141 OFFCURVE",
"107 24 CURVE",
"55 -19 LINE",
"20 85 OFFCURVE",
"16 225 OFFCURVE",
"-8 352 CURVE"
);
}
);
width = 101;
},
{
components = (
{
name = "acute";
transform = "{1, 0, 0, 1, -40, 0}";
}
);
layerId = "05DCEB7D-DEF5-48FB-88E5-EF320714A6F1";
name = "Bold";
paths = (
{
closed = 1;
nodes = (
"74 402 LINE",
"97 276 OFFCURVE",
"105 151 OFFCURVE",
"137 34 CURVE",
"55 -19 LINE",
"20 85 OFFCURVE",
"16 225 OFFCURVE",
"-8 352 CURVE"
);
}
);
width = 101;
}
);
unicode = 00ED;
},
{
glyphname = "icircumflex";
lastChange = "2013-05-31 12:15:09 +0100";
layers = (
{
components = (
{
name = "circumflex";
transform = "{1, 0, 0, 1, -60, 0}";
}
);
layerId = "1E238986-8A4D-4620-9F99-918EE406194F";
name = "Light";
paths = (
{
closed = 1;
nodes = (
"44 392 LINE",
"67 266 OFFCURVE",
"75 141 OFFCURVE",
"107 24 CURVE",
"55 -19 LINE",
"20 85 OFFCURVE",
"16 225 OFFCURVE",
"-8 352 CURVE"
);
}
);
width = 101;
},
{
components = (
{
name = "circumflex";
transform = "{1, 0, 0, 1, -100, 0}";
}
);
layerId = "05DCEB7D-DEF5-48FB-88E5-EF320714A6F1";
name = "Bold";
paths = (
{
closed = 1;
nodes = (
"74 402 LINE",
"97 276 OFFCURVE",
"105 151 OFFCURVE",
"137 34 CURVE",
"55 -19 LINE",
"20 85 OFFCURVE",
"16 225 OFFCURVE",
"-8 352 CURVE"
);
}
);
width = 101;
}
);
unicode = 00EE;
},
{
glyphname = "idieresis";
lastChange = "2013-05-31 12:15:09 +0100";
layers = (
{
components = (
{
name = "dieresis";
transform = "{1, 0, 0, 1, -60, 6}";
}
);
layerId = "1E238986-8A4D-4620-9F99-918EE406194F";
name = "Light";
paths = (
{
closed = 1;
nodes = (
"44 392 LINE",
"67 266 OFFCURVE",
"75 141 OFFCURVE",
"107 24 CURVE",
"55 -19 LINE",
"20 85 OFFCURVE",
"16 225 OFFCURVE",
"-8 352 CURVE"
);
}
);
width = 101;
},
{
components = (
{
name = "dieresis";
transform = "{1, 0, 0, 1, -80, 6}";
}
);
layerId = "05DCEB7D-DEF5-48FB-88E5-EF320714A6F1";
name = "Bold";
paths = (
{
closed = 1;
nodes = (
"74 402 LINE",
"97 276 OFFCURVE",
"105 151 OFFCURVE",
"137 34 CURVE",
"55 -19 LINE",
"20 85 OFFCURVE",
"16 225 OFFCURVE",
"-8 352 CURVE"
);
}
);
width = 101;
}
);
unicode = 00EF;
},
{
glyphname = "igrave";
lastChange = "2013-05-31 12:15:09 +0100";
layers = (
{
components = (
{
name = "grave";
transform = "{1, 0, 0, 1, -60, 0}";
}
);
layerId = "1E238986-8A4D-4620-9F99-918EE406194F";
name = "Light";
paths = (
{
closed = 1;
nodes = (
"44 392 LINE",
"67 266 OFFCURVE",
"75 141 OFFCURVE",
"107 24 CURVE",
"55 -19 LINE",
"20 85 OFFCURVE",
"16 225 OFFCURVE",
"-8 352 CURVE"
);
}
);
width = 101;
},
{
components = (
{
name = "grave";
transform = "{1, 0, 0, 1, -80, 0}";
}
);
layerId = "05DCEB7D-DEF5-48FB-88E5-EF320714A6F1";
name = "Bold";
paths = (
{
closed = 1;
nodes = (
"74 402 LINE",
"97 276 OFFCURVE",
"105 151 OFFCURVE",
"137 34 CURVE",
"55 -19 LINE",
"20 85 OFFCURVE",
"16 225 OFFCURVE",
"-8 352 CURVE"
);
}
);
width = 101;
}
);
unicode = 00EC;
},
{
glyphname = "j";
lastChange = "2013-05-31 12:15:09 +0100";
layers = (
{
layerId = "1E238986-8A4D-4620-9F99-918EE406194F";
name = "Light";
paths = (
{
closed = 1;
nodes = (
"49 547 LINE",
"58 507 OFFCURVE",
"64 468 OFFCURVE",
"67 429 CURVE",
"2 396 LINE",
"0 436 OFFCURVE",
"-7 476 OFFCURVE",
"-15 516 CURVE"
);
},
{
closed = 1;
nodes = (
"74 242 OFFCURVE",
"205 -79 OFFCURVE",
"205 -297 CURVE",
"147 -333 LINE",
"143 -167 OFFCURVE",
"13 239 OFFCURVE",
"6 352 CURVE",
"70 382 LINE"
);
},
{
closed = 1;
nodes = (
"-15 -24 OFFCURVE",
"73 -119 OFFCURVE",
"205 -297 CURVE",
"143 -344 LINE",
"39 -196 OFFCURVE",
"-104 -31 OFFCURVE",
"90 60 CURVE"
);
}
);
width = 115;
},
{
background = {
paths = (
{
closed = 1;
nodes = (
"26 225 OFFCURVE",
"30 85 OFFCURVE",
"65 -19 CURVE",
"147 34 LINE",
"115 151 OFFCURVE",
"107 276 OFFCURVE",
"84 402 CURVE",
"2 352 LINE"
);
},
{
closed = 1;
nodes = (
"-11 476 OFFCURVE",
"-4 436 OFFCURVE",
"-2 396 CURVE",
"81 449 LINE",
"78 488 OFFCURVE",
"72 527 OFFCURVE",
"63 567 CURVE",
"-19 516 LINE"
);
}
);
};
layerId = "05DCEB7D-DEF5-48FB-88E5-EF320714A6F1";
name = "Bold";
paths = (
{
closed = 1;
nodes = (
"69 567 LINE",
"78 527 OFFCURVE",
"84 488 OFFCURVE",
"87 449 CURVE",
"2 396 LINE",
"0 436 OFFCURVE",
"-7 476 OFFCURVE",
"-15 516 CURVE"
);
},
{
closed = 1;
nodes = (
"94 262 OFFCURVE",
"225 -59 OFFCURVE",
"225 -277 CURVE",
"147 -333 LINE",
"143 -167 OFFCURVE",
"13 239 OFFCURVE",
"6 352 CURVE",
"90 402 LINE"
);
},
{
closed = 1;
nodes = (
"-15 -24 OFFCURVE",
"93 -99 OFFCURVE",
"225 -277 CURVE",
"143 -344 LINE",
"39 -196 OFFCURVE",
"-104 -31 OFFCURVE",
"90 60 CURVE"
);
}
);
width = 141;
}
);
rightMetricsKey = "g";
unicode = 006A;
},
{
glyphname = "k";
lastChange = "2013-05-28 12:26:31 +0100";
layers = (
{
layerId = "1E238986-8A4D-4620-9F99-918EE406194F";
name = "Light";
paths = (
{
closed = 1;
nodes = (
"3 599 LINE",
"50 430 OFFCURVE",
"53 318 OFFCURVE",
"85 63 CURVE",
"38 -1 LINE",
"10 223 OFFCURVE",
"-2 359 OFFCURVE",
"-49 561 CURVE"
);
},
{
closed = 1;
nodes = (
"174 42 OFFCURVE",
"168 141 OFFCURVE",
"55 151 CURVE",
"103 194 LINE",
"212 164 OFFCURVE",
"227 66 OFFCURVE",
"227 0 CURVE",
"168 -42 LINE"
);
},
{
closed = 1;
nodes = (
"118 208 OFFCURVE",
"166 299 OFFCURVE",
"123 340 CURVE",
"175 370 LINE",
"227 323 OFFCURVE",
"147 189 OFFCURVE",
"55 151 CURVE",
"103 194 LINE"
);
},
{
closed = 1;
nodes = (
"47 99 LINE",
"27 228 OFFCURVE",
"45 293 OFFCURVE",
"123 340 CURVE",
"175 370 LINE",
"72 288 OFFCURVE",
"60 247 OFFCURVE",
"75 156 CURVE"
);
}
);
width = 204;
},
{
background = {
paths = (
{
closed = 1;
nodes = (
"-14 225 OFFCURVE",
"-10 85 OFFCURVE",
"25 -19 CURVE",
"107 34 LINE",
"75 151 OFFCURVE",
"67 276 OFFCURVE",
"44 402 CURVE",
"-38 352 LINE"
);
},
{
closed = 1;
nodes = (
"-51 476 OFFCURVE",
"-44 436 OFFCURVE",
"-42 396 CURVE",
"41 449 LINE",
"38 488 OFFCURVE",
"32 527 OFFCURVE",
"23 567 CURVE",
"-59 516 LINE"
);
},
{
closed = 1;
nodes = (
"166 225 OFFCURVE",
"170 85 OFFCURVE",
"205 -19 CURVE",
"287 34 LINE",
"255 151 OFFCURVE",
"247 276 OFFCURVE",
"224 402 CURVE",
"142 352 LINE"
);
},
{
closed = 1;
nodes = (
"129 476 OFFCURVE",
"136 436 OFFCURVE",
"138 396 CURVE",
"221 449 LINE",
"218 488 OFFCURVE",
"212 527 OFFCURVE",
"203 567 CURVE",
"121 516 LINE"
);
}
);
};
layerId = "05DCEB7D-DEF5-48FB-88E5-EF320714A6F1";
name = "Bold";
paths = (
{
closed = 1;
nodes = (
"45 599 LINE",
"92 430 OFFCURVE",
"95 318 OFFCURVE",
"127 63 CURVE",
"50 -1 LINE",
"22 223 OFFCURVE",
"10 359 OFFCURVE",
"-37 561 CURVE"
);
},
{
closed = 1;
nodes = (
"236 42 OFFCURVE",
"230 141 OFFCURVE",
"97 151 CURVE",
"155 204 LINE",
"284 174 OFFCURVE",
"309 76 OFFCURVE",
"309 10 CURVE",
"230 -42 LINE"
);
},
{
closed = 1;
nodes = (
"170 218 OFFCURVE",
"228 299 OFFCURVE",
"185 360 CURVE",
"257 400 LINE",
"309 333 OFFCURVE",
"209 189 OFFCURVE",
"97 151 CURVE",
"155 204 LINE"
);
},
{
closed = 1;
nodes = (
"59 89 LINE",
"39 218 OFFCURVE",
"107 293 OFFCURVE",
"185 360 CURVE",
"257 400 LINE",
"154 298 OFFCURVE",
"102 247 OFFCURVE",
"117 156 CURVE"
);
}
);
width = 287;
}
);
unicode = 006B;
},
{
glyphname = "l";
lastChange = "2013-05-28 12:26:31 +0100";
layers = (
{
associatedMasterId = "1E238986-8A4D-4620-9F99-918EE406194F";
layerId = "30A603E7-2228-4380-A18E-DB469D407B39";
name = "Regular May 20 13, 13:49";
paths = (
{
closed = 1;
nodes = (
"17 599 LINE",
"64 430 OFFCURVE",
"77 275 OFFCURVE",
"109 20 CURVE",
"62 -44 LINE",
"34 180 OFFCURVE",
"22 359 OFFCURVE",
"-25 561 CURVE"
);
},
{
closed = 1;
nodes = (
"148 16 OFFCURVE",
"93 -3 OFFCURVE",
"62 -44 CURVE",
"109 20 LINE",
"134 48 OFFCURVE",
"198 79 OFFCURVE",
"251 101 CURVE",
"184 29 LINE"
);
}
);
width = 170;
},
{
associatedMasterId = "1E238986-8A4D-4620-9F99-918EE406194F";
layerId = "47D1438A-FA88-466B-AEF6-1F4E9684EEDE";
name = "Regular May 20 13, 13:55";
paths = (
{
closed = 1;
nodes = (
"17 599 LINE",
"64 430 OFFCURVE",
"77 275 OFFCURVE",
"109 20 CURVE",
"62 -44 LINE",
"34 180 OFFCURVE",
"22 359 OFFCURVE",
"-25 561 CURVE"
);
},
{
closed = 1;
nodes = (
"148 16 OFFCURVE",
"93 -17 OFFCURVE",
"62 -44 CURVE",
"109 20 LINE",
"134 48 OFFCURVE",
"198 79 OFFCURVE",
"251 101 CURVE",
"184 29 LINE"
);
}
);
width = 600;
},
{
layerId = "1E238986-8A4D-4620-9F99-918EE406194F";
name = "Light";
paths = (
{
closed = 1;
nodes = (
"3 599 LINE",
"50 430 OFFCURVE",
"63 275 OFFCURVE",
"95 20 CURVE",
"48 -44 LINE",
"20 180 OFFCURVE",
"8 359 OFFCURVE",
"-39 561 CURVE"
);
},
{
closed = 1;
nodes = (
"205 274 LINE",
"150 173 OFFCURVE",
"115 85 OFFCURVE",
"95 20 CURVE",
"48 -44 LINE",
"63 44 OFFCURVE",
"93 155 OFFCURVE",
"151 243 CURVE"
);
}
);
width = 136;
},
{
layerId = "05DCEB7D-DEF5-48FB-88E5-EF320714A6F1";
name = "Bold";
paths = (
{
closed = 1;
nodes = (
"22 599 LINE",
"69 430 OFFCURVE",
"82 275 OFFCURVE",
"114 20 CURVE",
"38 -44 LINE",
"10 180 OFFCURVE",
"-2 359 OFFCURVE",
"-49 561 CURVE"
);
},
{
closed = 1;
nodes = (
"252 274 LINE",
"197 173 OFFCURVE",
"134 85 OFFCURVE",
"114 20 CURVE",
"38 -44 LINE",
"53 44 OFFCURVE",
"112 155 OFFCURVE",
"170 243 CURVE"
);
}
);
width = 173;
}
);
unicode = 006C;
},
{
glyphname = "m";
lastChange = "2013-05-31 11:57:14 +0100";
layers = (
{
layerId = "1E238986-8A4D-4620-9F99-918EE406194F";
name = "Light";
paths = (
{
closed = 1;
nodes = (
"32 370 LINE",
"44 241 OFFCURVE",
"63 157 OFFCURVE",
"89 36 CURVE",
"33 10 LINE",
"5 134 OFFCURVE",
"-14 204 OFFCURVE",
"-21 328 CURVE"
);
},
{
closed = 1;
nodes = (
"132 405 LINE",
"89 36 LINE",
"33 10 LINE",
"52 135 OFFCURVE",
"79 236 OFFCURVE",
"90 365 CURVE"
);
},
{
closed = 1;
nodes = (
"286 419 LINE",
"332 383 OFFCURVE",
"319 96 OFFCURVE",
"376 0 CURVE",
"320 -31 LINE",
"266 75 OFFCURVE",
"271 277 OFFCURVE",
"238 380 CURVE"
);
},
{
closed = 1;
nodes = (
"132 405 LINE",
"162 385 OFFCURVE",
"190 167 OFFCURVE",
"233 35 CURVE",
"175 0 LINE",
"142 125 OFFCURVE",
"122 235 OFFCURVE",
"90 365 CURVE"
);
},
{
closed = 1;
nodes = (
"286 419 LINE",
"247 282 OFFCURVE",
"240 172 OFFCURVE",
"233 35 CURVE",
"175 0 LINE",
"197 135 OFFCURVE",
"208 251 OFFCURVE",
"238 380 CURVE"
);
}
);
width = 353;
},
{
layerId = "05DCEB7D-DEF5-48FB-88E5-EF320714A6F1";
name = "Bold";
paths = (
{
closed = 1;
nodes = (
"76 370 LINE",
"88 241 OFFCURVE",
"97 157 OFFCURVE",
"123 36 CURVE",
"54 10 LINE",
"26 134 OFFCURVE",
"7 204 OFFCURVE",
"0 328 CURVE"
);
},
{
closed = 1;
nodes = (
"206 405 LINE",
"123 36 LINE",
"54 10 LINE",
"73 135 OFFCURVE",
"133 236 OFFCURVE",
"144 365 CURVE"
);
},
{
closed = 1;
nodes = (
"390 419 LINE",
"436 383 OFFCURVE",
"423 96 OFFCURVE",
"480 0 CURVE",
"394 -31 LINE",
"340 75 OFFCURVE",
"345 277 OFFCURVE",
"312 380 CURVE"
);
},
{
closed = 1;
nodes = (
"206 405 LINE",
"236 385 OFFCURVE",
"254 167 OFFCURVE",
"297 35 CURVE",
"229 0 LINE",
"196 125 OFFCURVE",
"176 235 OFFCURVE",
"144 365 CURVE"
);
},
{
closed = 1;
nodes = (
"390 419 LINE",
"351 282 OFFCURVE",
"304 172 OFFCURVE",
"297 35 CURVE",
"229 0 LINE",
"251 135 OFFCURVE",
"282 251 OFFCURVE",
"312 380 CURVE"
);
}
);
width = 479;
}
);
leftMetricsKey = "n";
rightMetricsKey = "n";
unicode = 006D;
},
{
glyphname = "n";
lastChange = "2013-05-31 11:56:17 +0100";
layers = (
{
anchors = (
{
name = "bottom";
position = "{99, 0}";
},
{
name = "top";
position = "{58, 370}";
}
);
layerId = "1E238986-8A4D-4620-9F99-918EE406194F";
name = "Light";
paths = (
{
closed = 1;
nodes = (
"156 419 LINE",
"202 383 OFFCURVE",
"189 96 OFFCURVE",
"246 0 CURVE",
"190 -31 LINE",
"136 75 OFFCURVE",
"141 277 OFFCURVE",
"108 380 CURVE"
);
},
{
closed = 1;
nodes = (
"21 375 LINE",
"51 355 OFFCURVE",
"60 167 OFFCURVE",
"103 35 CURVE",
"45 0 LINE",
"12 125 OFFCURVE",
"11 205 OFFCURVE",
"-21 335 CURVE"
);
},
{
closed = 1;
nodes = (
"156 419 LINE",
"117 282 OFFCURVE",
"110 172 OFFCURVE",
"103 35 CURVE",
"45 0 LINE",
"67 135 OFFCURVE",
"78 251 OFFCURVE",
"108 380 CURVE"
);
}
);
width = 223;
},
{
anchors = (
{
name = "bottom";
position = "{125, 0}";
},
{
name = "top";
position = "{128, 370}";
}
);
background = {
paths = (
{
closed = 1;
nodes = (
"191 249 OFFCURVE",
"169 85 OFFCURVE",
"223 -21 CURVE",
"310 10 LINE",
"253 106 OFFCURVE",
"272 344 OFFCURVE",
"226 380 CURVE",
"158 352 LINE"
);
},
{
closed = 1;
nodes = (
"-28 420 OFFCURVE",
"12 125 OFFCURVE",
"45 0 CURVE",
"133 35 LINE",
"90 167 OFFCURVE",
"70 555 OFFCURVE",
"22 600 CURVE",
"-60 550 LINE"
);
},
{
closed = 1;
nodes = (
"142 223 OFFCURVE",
"90 135 OFFCURVE",
"45 0 CURVE",
"133 35 LINE",
"161 172 OFFCURVE",
"205 243 OFFCURVE",
"226 380 CURVE",
"158 352 LINE"
);
}
);
};
layerId = "05DCEB7D-DEF5-48FB-88E5-EF320714A6F1";
name = "Bold";
paths = (
{
closed = 1;
nodes = (
"222 419 LINE",
"268 383 OFFCURVE",
"255 96 OFFCURVE",
"312 0 CURVE",
"236 -31 LINE",
"182 75 OFFCURVE",
"197 277 OFFCURVE",
"164 380 CURVE"
);
},
{
closed = 1;
nodes = (
"77 375 LINE",
"107 355 OFFCURVE",
"87 167 OFFCURVE",
"130 35 CURVE",
"61 0 LINE",
"28 125 OFFCURVE",
"34 205 OFFCURVE",
"2 335 CURVE"
);
},
{
closed = 1;
nodes = (
"222 419 LINE",
"183 282 OFFCURVE",
"137 172 OFFCURVE",
"130 35 CURVE",
"61 0 LINE",
"83 135 OFFCURVE",
"134 251 OFFCURVE",
"164 380 CURVE"
);
}
);
width = 295;
}
);
unicode = 006E;
},
{
glyphname = "o";
lastChange = "2013-05-28 12:26:31 +0100";
layers = (
{
associatedMasterId = "1E238986-8A4D-4620-9F99-918EE406194F";
layerId = "F638076A-34AC-4C70-8E0B-677868E0CB56";
name = "alt01";
paths = (
{
closed = 1;
nodes = (
"114 42 LINE",
"150 106 OFFCURVE",
"94 314 OFFCURVE",
"25 336 CURVE",
"62 370 LINE",
"123 376 OFFCURVE",
"245 39 OFFCURVE",
"92 -17 CURVE"
);
},
{
closed = 1;
nodes = (
"92 -17 LINE",
"1 123 OFFCURVE",
"-45 273 OFFCURVE",
"62 370 CURVE",
"54 315 LINE",
"28 231 OFFCURVE",
"60 142 OFFCURVE",
"114 42 CURVE"
);
}
);
width = 166;
},
{
associatedMasterId = "1E238986-8A4D-4620-9F99-918EE406194F";
layerId = "8CF31C1D-7B6B-4F21-AEEB-D7BAED07A1C6";
name = "Regular May 20 13, 13:43";
paths = (
{
closed = 1;
nodes = (
"114 42 LINE",
"150 106 OFFCURVE",
"94 314 OFFCURVE",
"25 336 CURVE",
"62 370 LINE",
"123 376 OFFCURVE",
"245 39 OFFCURVE",
"92 -17 CURVE"
);
},
{
closed = 1;
nodes = (
"92 -17 LINE",
"1 123 OFFCURVE",
"-45 273 OFFCURVE",
"62 370 CURVE",
"54 315 LINE",
"28 231 OFFCURVE",
"60 142 OFFCURVE",
"114 42 CURVE"
);
}
);
width = 166;
},
{
anchors = (
{
name = "top";
position = "{108, 370}";
}
);
layerId = "1E238986-8A4D-4620-9F99-918EE406194F";
name = "Light";
paths = (
{
closed = 1;
nodes = (
"116 377 LINE",
"23 247 OFFCURVE",
"44 67 OFFCURVE",
"174 35 CURVE",
"125 -3 LINE",
"-11 47 OFFCURVE",
"-18 233 OFFCURVE",
"64 339 CURVE"
);
},
{
closed = 1;
nodes = (
"125 -3 LINE",
"218 127 OFFCURVE",
"194 307 OFFCURVE",
"64 339 CURVE",
"116 377 LINE",
"252 327 OFFCURVE",
"256 141 OFFCURVE",
"174 35 CURVE"
);
}
);
width = 241;
},
{
anchors = (
{
name = "top";
position = "{130, 370}";
}
);
layerId = "05DCEB7D-DEF5-48FB-88E5-EF320714A6F1";
name = "Bold";
paths = (
{
closed = 1;
nodes = (
"128 377 LINE",
"35 247 OFFCURVE",
"86 87 OFFCURVE",
"216 55 CURVE",
"137 -3 LINE",
"1 47 OFFCURVE",
"-26 233 OFFCURVE",
"56 339 CURVE"
);
},
{
closed = 1;
nodes = (
"137 -3 LINE",
"230 127 OFFCURVE",
"186 307 OFFCURVE",
"56 339 CURVE",
"128 377 LINE",
"264 327 OFFCURVE",
"298 161 OFFCURVE",
"216 55 CURVE"
);
}
);
width = 254;
}
);
leftMetricsKey = "a";
unicode = 006F;
},
{
glyphname = "oslash";
lastChange = "2013-05-28 12:26:31 +0100";
layers = (
{
components = (
{
name = "o";
transform = "{1, 0, 0, 1, 0, 0}";
}
);
layerId = "1E238986-8A4D-4620-9F99-918EE406194F";
name = "Light";
paths = (
{
closed = 1;
nodes = (
"231 380 LINE",
"176 279 OFFCURVE",
"79 85 OFFCURVE",
"59 20 CURVE",
"-8 -34 LINE",
"-3 64 OFFCURVE",
"121 271 OFFCURVE",
"179 359 CURVE"
);
}
);
width = 215;
},
{
components = (
{
name = "o";
transform = "{1, 0, 0, 1, 0, 0}";
}
);
layerId = "05DCEB7D-DEF5-48FB-88E5-EF320714A6F1";
name = "Bold";
paths = (
{
closed = 1;
nodes = (
"231 380 LINE",
"176 279 OFFCURVE",
"79 85 OFFCURVE",
"59 20 CURVE",
"-8 -34 LINE",
"-3 64 OFFCURVE",
"121 271 OFFCURVE",
"179 359 CURVE"
);
}
);
width = 215;
}
);
unicode = 00F8;
},
{
glyphname = "p";
lastChange = "2013-05-28 12:26:31 +0100";
layers = (
{
background = {
paths = (
{
closed = 1;
nodes = (
"34 350 LINE",
"38 210 OFFCURVE",
"176 -89 OFFCURVE",
"176 -307 CURVE",
"120 -343 LINE",
"116 -177 OFFCURVE",
"-10 208 OFFCURVE",
"-17 321 CURVE"
);
},
{
closed = 1;
nodes = (
"131 66 LINE",
"167 130 OFFCURVE",
"177 330 OFFCURVE",
"92 336 CURVE",
"129 370 LINE",
"207 393 OFFCURVE",
"243 70 OFFCURVE",
"102 14 CURVE"
);
},
{
closed = 1;
nodes = (
"102 14 LINE",
"-25 125 OFFCURVE",
"22 338 OFFCURVE",
"129 370 CURVE",
"98 335 LINE",
"50 226 OFFCURVE",
"69 141 OFFCURVE",
"131 66 CURVE"
);
}
);
};
layerId = "1E238986-8A4D-4620-9F99-918EE406194F";
name = "Light";
paths = (
{
closed = 1;
nodes = (
"116 -177 OFFCURVE",
"-10 208 OFFCURVE",
"-17 321 CURVE",
"34 350 LINE",
"38 210 OFFCURVE",
"176 -89 OFFCURVE",
"176 -307 CURVE",
"120 -343 LINE"
);
},
{
closed = 1;
nodes = (
"117 377 LINE",
"34 247 OFFCURVE",
"51 97 OFFCURVE",
"188 35 CURVE",
"139 -3 LINE",
"32 90 OFFCURVE",
"-4 233 OFFCURVE",
"68 339 CURVE"
);
},
{
closed = 1;
nodes = (
"139 -3 LINE",
"212 127 OFFCURVE",
"178 307 OFFCURVE",
"68 339 CURVE",
"120 377 LINE",
"236 327 OFFCURVE",
"250 141 OFFCURVE",
"188 35 CURVE"
);
}
);
width = 237;
},
{
background = {
paths = (
{
closed = 1;
nodes = (
"34 350 LINE",
"38 210 OFFCURVE",
"176 -89 OFFCURVE",
"176 -307 CURVE",
"120 -343 LINE",
"116 -177 OFFCURVE",
"-10 208 OFFCURVE",
"-17 321 CURVE"
);
},
{
closed = 1;
nodes = (
"131 66 LINE",
"167 130 OFFCURVE",
"177 330 OFFCURVE",
"92 336 CURVE",
"129 370 LINE",
"207 393 OFFCURVE",
"243 70 OFFCURVE",
"102 14 CURVE"
);
},
{
closed = 1;
nodes = (
"102 14 LINE",
"-25 125 OFFCURVE",
"22 338 OFFCURVE",
"129 370 CURVE",
"98 335 LINE",
"50 226 OFFCURVE",
"69 141 OFFCURVE",
"131 66 CURVE"
);
}
);
};
layerId = "05DCEB7D-DEF5-48FB-88E5-EF320714A6F1";
name = "Bold";
paths = (
{
closed = 1;
nodes = (
"116 -187 OFFCURVE",
"-3 207 OFFCURVE",
"-10 320 CURVE",
"48 368 LINE",
"52 228 OFFCURVE",
"190 -81 OFFCURVE",
"190 -299 CURVE",
"120 -353 LINE"
);
},
{
closed = 1;
nodes = (
"146 387 LINE",
"43 227 OFFCURVE",
"94 57 OFFCURVE",
"234 55 CURVE",
"155 -3 LINE",
"59 47 OFFCURVE",
"32 243 OFFCURVE",
"74 349 CURVE"
);
},
{
closed = 1;
nodes = (
"155 -3 LINE",
"248 127 OFFCURVE",
"204 317 OFFCURVE",
"74 349 CURVE",
"146 387 LINE",
"282 337 OFFCURVE",
"316 161 OFFCURVE",
"234 55 CURVE"
);
}
);
width = 279;
}
);
rightMetricsKey = "o";
unicode = 0070;
},
{
glyphname = "q";
lastChange = "2013-05-28 12:26:31 +0100";
layers = (
{
layerId = "1E238986-8A4D-4620-9F99-918EE406194F";
name = "Light";
paths = (
{
closed = 1;
nodes = (
"175 360 LINE",
"179 220 OFFCURVE",
"242 -79 OFFCURVE",
"257 -297 CURVE",
"201 -333 LINE",
"188 -127 OFFCURVE",
"131 218 OFFCURVE",
"124 331 CURVE"
);
},
{
closed = 1;
nodes = (
"112 66 LINE",
"148 130 OFFCURVE",
"158 330 OFFCURVE",
"73 336 CURVE",
"110 370 LINE",
"188 393 OFFCURVE",
"224 70 OFFCURVE",
"83 14 CURVE"
);
},
{
closed = 1;
nodes = (
"83 14 LINE",
"-44 125 OFFCURVE",
"3 338 OFFCURVE",
"110 370 CURVE",
"79 335 LINE",
"31 226 OFFCURVE",
"50 141 OFFCURVE",
"112 66 CURVE"
);
},
{
closed = 1;
nodes = (
"291 115 LINE",
"209 7 OFFCURVE",
"169 -65 OFFCURVE",
"146 -130 CURVE",
"89 -173 LINE",
"113 -89 OFFCURVE",
"153 -18 OFFCURVE",
"222 81 CURVE"
);
}
);
width = 201;
},
{
layerId = "05DCEB7D-DEF5-48FB-88E5-EF320714A6F1";
name = "Bold";
paths = (
{
closed = 1;
nodes = (
"246 358 LINE",
"250 218 OFFCURVE",
"358 -81 OFFCURVE",
"358 -299 CURVE",
"278 -333 LINE",
"274 -167 OFFCURVE",
"181 197 OFFCURVE",
"168 310 CURVE"
);
},
{
closed = 1;
nodes = (
"138 65 LINE",
"220 138 OFFCURVE",
"197 344 OFFCURVE",
"79 323 CURVE",
"123 376 LINE",
"244 410 OFFCURVE",
"306 78 OFFCURVE",
"97 -17 CURVE"
);
},
{
closed = 1;
nodes = (
"97 -17 LINE",
"-60 129 OFFCURVE",
"-37 347 OFFCURVE",
"123 376 CURVE",
"85 322 LINE",
"32 229 OFFCURVE",
"88 138 OFFCURVE",
"138 65 CURVE"
);
},
{
closed = 1;
nodes = (
"388 145 LINE",
"306 37 OFFCURVE",
"256 -65 OFFCURVE",
"233 -130 CURVE",
"146 -173 LINE",
"170 -89 OFFCURVE",
"220 12 OFFCURVE",
"289 111 CURVE"
);
}
);
width = 308;
}
);
leftMetricsKey = "a";
unicode = 0071;
},
{
glyphname = "r";
lastChange = "2013-05-31 12:15:09 +0100";
layers = (
{
layerId = "1E238986-8A4D-4620-9F99-918EE406194F";
name = "Light";
paths = (
{
closed = 1;
nodes = (
"40 376 LINE",
"89 354 OFFCURVE",
"114 340 OFFCURVE",
"177 339 CURVE",
"127 310 LINE",
"64 313 OFFCURVE",
"28 318 OFFCURVE",
"-21 341 CURVE"
);
},
{
closed = 1;
nodes = (
"40 376 LINE",
"52 253 OFFCURVE",
"69 149 OFFCURVE",
"101 28 CURVE",
"51 0 LINE",
"17 108 OFFCURVE",
"-6 227 OFFCURVE",
"-21 351 CURVE"
);
}
);
width = 117;
},
{
background = {
paths = (
{
closed = 1;
nodes = (
"62 358 LINE",
"66 218 OFFCURVE",
"174 -81 OFFCURVE",
"174 -299 CURVE",
"94 -333 LINE",
"90 -167 OFFCURVE",
"-3 197 OFFCURVE",
"-16 310 CURVE"
);
}
);
};
layerId = "05DCEB7D-DEF5-48FB-88E5-EF320714A6F1";
name = "Bold";
paths = (
{
closed = 1;
nodes = (
"70 376 LINE",
"119 354 OFFCURVE",
"144 340 OFFCURVE",
"207 339 CURVE",
"137 290 LINE",
"74 293 OFFCURVE",
"39 318 OFFCURVE",
"-10 341 CURVE"
);
},
{
closed = 1;
nodes = (
"70 376 LINE",
"82 253 OFFCURVE",
"99 149 OFFCURVE",
"131 28 CURVE",
"55 0 LINE",
"21 108 OFFCURVE",
"5 227 OFFCURVE",
"-10 351 CURVE"
);
}
);
width = 177;
}
);
leftMetricsKey = "n";
unicode = 0072;
},
{
glyphname = "s";
lastChange = "2013-05-28 12:26:31 +0100";
layers = (
{
layerId = "1E238986-8A4D-4620-9F99-918EE406194F";
name = "Light";
paths = (
{
closed = 1;
nodes = (
"45 371 LINE",
"-4 274 OFFCURVE",
"263 142 OFFCURVE",
"226 -18 CURVE",
"182 -63 LINE",
"221 123 OFFCURVE",
"-48 215 OFFCURVE",
"8 319 CURVE"
);
},
{
closed = 1;
nodes = (
"59 113 LINE",
"59 32 OFFCURVE",
"137 -86 OFFCURVE",
"223 -18 CURVE",
"182 -63 LINE",
"103 -115 OFFCURVE",
"22 -20 OFFCURVE",
"22 66 CURVE"
);
},
{
closed = 1;
nodes = (
"130 296 LINE",
"113 331 OFFCURVE",
"61 347 OFFCURVE",
"8 319 CURVE",
"45 371 LINE",
"87 394 OFFCURVE",
"129 386 OFFCURVE",
"161 341 CURVE"
);
}
);
width = 197;
},
{
background = {
paths = (
{
closed = 1;
nodes = (
"45 589 LINE",
"10 469 OFFCURVE",
"392 183 OFFCURVE",
"355 23 CURVE",
"285 -45 LINE",
"324 141 OFFCURVE",
"-49 407 OFFCURVE",
"7 511 CURVE"
);
},
{
closed = 1;
nodes = (
"85 126 LINE",
"85 45 OFFCURVE",
"266 -45 OFFCURVE",
"352 23 CURVE",
"285 -45 LINE",
"206 -97 OFFCURVE",
"22 -20 OFFCURVE",
"22 66 CURVE"
);
},
{
closed = 1;
nodes = (
"196 454 LINE",
"175 484 OFFCURVE",
"53 530 OFFCURVE",
"7 511 CURVE",
"45 589 LINE",
"87 612 OFFCURVE",
"218 571 OFFCURVE",
"250 526 CURVE"
);
}
);
};
layerId = "05DCEB7D-DEF5-48FB-88E5-EF320714A6F1";
name = "Bold";
paths = (
{
closed = 1;
nodes = (
"64 381 LINE",
"15 284 OFFCURVE",
"282 152 OFFCURVE",
"245 -8 CURVE",
"171 -63 LINE",
"210 123 OFFCURVE",
"-59 215 OFFCURVE",
"-3 319 CURVE"
);
},
{
closed = 1;
nodes = (
"78 113 LINE",
"78 32 OFFCURVE",
"156 -76 OFFCURVE",
"242 -8 CURVE",
"171 -63 LINE",
"92 -115 OFFCURVE",
"1 -20 OFFCURVE",
"1 66 CURVE"
);
},
{
closed = 1;
nodes = (
"149 296 LINE",
"132 331 OFFCURVE",
"50 347 OFFCURVE",
"-3 319 CURVE",
"64 381 LINE",
"106 404 OFFCURVE",
"188 396 OFFCURVE",
"220 351 CURVE"
);
}
);
width = 227;
}
);
unicode = 0073;
},
{
glyphname = "germandbls";
lastChange = "2013-05-28 12:26:31 +0100";
layers = (
{
layerId = "1E238986-8A4D-4620-9F99-918EE406194F";
name = "Light";
paths = (
{
closed = 1;
nodes = (
"14 601 LINE",
"23 488 OFFCURVE",
"141 45 OFFCURVE",
"151 -178 CURVE",
"101 -221 LINE",
"91 1 OFFCURVE",
"-29 451 OFFCURVE",
"-36 561 CURVE"
);
},
{
closed = 1;
nodes = (
"178 116 LINE",
"188 58 OFFCURVE",
"232 -29 OFFCURVE",
"305 11 CURVE",
"264 -34 LINE",
"197 -61 OFFCURVE",
"155 11 OFFCURVE",
"141 69 CURVE"
);
},
{
closed = 1;
nodes = (
"156 578 OFFCURVE",
"250 497 OFFCURVE",
"190 378 CURVE SMOOTH",
"133 266 OFFCURVE",
"345 171 OFFCURVE",
"308 11 CURVE",
"264 -34 LINE",
"303 152 OFFCURVE",
"91 206 OFFCURVE",
"153 326 CURVE SMOOTH",
"211 439 OFFCURVE",
"118 531 OFFCURVE",
"-27 560 CURVE",
"13 600 LINE"
);
}
);
width = 300;
},
{
background = {
paths = (
{
closed = 1;
nodes = (
"45 589 LINE",
"10 469 OFFCURVE",
"392 183 OFFCURVE",
"355 23 CURVE",
"285 -45 LINE",
"324 141 OFFCURVE",
"-49 407 OFFCURVE",
"7 511 CURVE"
);
},
{
closed = 1;
nodes = (
"85 126 LINE",
"85 45 OFFCURVE",
"266 -45 OFFCURVE",
"352 23 CURVE",
"285 -45 LINE",
"206 -97 OFFCURVE",
"22 -20 OFFCURVE",
"22 66 CURVE"
);
},
{
closed = 1;
nodes = (
"196 454 LINE",
"175 484 OFFCURVE",
"53 530 OFFCURVE",
"7 511 CURVE",
"45 589 LINE",
"87 612 OFFCURVE",
"218 571 OFFCURVE",
"250 526 CURVE"
);
}
);
};
layerId = "05DCEB7D-DEF5-48FB-88E5-EF320714A6F1";
name = "Bold";
paths = (
{
closed = 1;
nodes = (
"14 601 LINE",
"23 488 OFFCURVE",
"141 45 OFFCURVE",
"151 -178 CURVE",
"71 -221 LINE",
"61 1 OFFCURVE",
"-59 451 OFFCURVE",
"-66 561 CURVE"
);
},
{
closed = 1;
nodes = (
"208 116 LINE",
"218 58 OFFCURVE",
"262 -29 OFFCURVE",
"335 11 CURVE",
"264 -34 LINE",
"197 -61 OFFCURVE",
"155 11 OFFCURVE",
"141 69 CURVE"
);
},
{
closed = 1;
nodes = (
"156 578 OFFCURVE",
"260 527 OFFCURVE",
"200 408 CURVE SMOOTH",
"143 296 OFFCURVE",
"405 211 OFFCURVE",
"338 11 CURVE",
"264 -34 LINE",
"333 192 OFFCURVE",
"71 236 OFFCURVE",
"133 356 CURVE SMOOTH",
"191 469 OFFCURVE",
"88 531 OFFCURVE",
"-57 560 CURVE",
"13 600 LINE"
);
}
);
width = 300;
}
);
unicode = 00DF;
},
{
glyphname = "t";
lastChange = "2013-05-28 12:26:31 +0100";
layers = (
{
layerId = "1E238986-8A4D-4620-9F99-918EE406194F";
name = "Light";
paths = (
{
closed = 1;
nodes = (
"37 599 LINE",
"84 430 OFFCURVE",
"97 255 OFFCURVE",
"129 0 CURVE",
"72 -24 LINE",
"44 200 OFFCURVE",
"32 359 OFFCURVE",
"-15 561 CURVE"
);
},
{
closed = 1;
nodes = (
"10 369 OFFCURVE",
"63 377 OFFCURVE",
"143 404 CURVE",
"108 354 LINE",
"39 338 OFFCURVE",
"-24 326 OFFCURVE",
"-39 334 CURVE",
"-5 381 LINE"
);
}
);
width = 130;
},
{
layerId = "05DCEB7D-DEF5-48FB-88E5-EF320714A6F1";
name = "Bold";
paths = (
{
closed = 1;
nodes = (
"77 599 LINE",
"124 430 OFFCURVE",
"137 255 OFFCURVE",
"169 0 CURVE",
"92 -24 LINE",
"64 200 OFFCURVE",
"52 359 OFFCURVE",
"5 561 CURVE"
);
},
{
closed = 1;
nodes = (
"30 369 OFFCURVE",
"133 377 OFFCURVE",
"213 404 CURVE",
"158 334 LINE",
"89 318 OFFCURVE",
"-24 306 OFFCURVE",
"-39 314 CURVE",
"15 381 LINE"
);
}
);
width = 190;
}
);
unicode = 0074;
},
{
glyphname = "u";
lastChange = "2013-05-28 12:26:31 +0100";
layers = (
{
anchors = (
{
name = "ogonek";
position = "{212, 10}";
},
{
name = "top";
position = "{98, 370}";
}
);
layerId = "1E238986-8A4D-4620-9F99-918EE406194F";
name = "Light";
paths = (
{
closed = 1;
nodes = (
"170 389 LINE",
"189 333 OFFCURVE",
"203 96 OFFCURVE",
"260 0 CURVE",
"204 -31 LINE",
"150 75 OFFCURVE",
"165 241 OFFCURVE",
"132 350 CURVE"
);
},
{
closed = 1;
nodes = (
"51 374 LINE",
"62 271 OFFCURVE",
"79 166 OFFCURVE",
"127 46 CURVE",
"79 -1 LINE",
"55 27 OFFCURVE",
"17 192 OFFCURVE",
"4 335 CURVE"
);
},
{
closed = 1;
nodes = (
"170 389 LINE",
"175 252 OFFCURVE",
"173 183 OFFCURVE",
"127 46 CURVE",
"79 -1 LINE",
"129 134 OFFCURVE",
"148 221 OFFCURVE",
"132 350 CURVE"
);
}
);
width = 245;
},
{
anchors = (
{
name = "ogonek";
position = "{218, 10}";
},
{
name = "top";
position = "{104, 370}";
}
);
layerId = "05DCEB7D-DEF5-48FB-88E5-EF320714A6F1";
name = "Bold";
paths = (
{
closed = 1;
nodes = (
"206 389 LINE",
"225 333 OFFCURVE",
"239 96 OFFCURVE",
"296 0 CURVE",
"210 -31 LINE",
"156 75 OFFCURVE",
"171 241 OFFCURVE",
"138 350 CURVE"
);
},
{
closed = 1;
nodes = (
"57 374 LINE",
"68 271 OFFCURVE",
"85 166 OFFCURVE",
"133 46 CURVE",
"65 -1 LINE",
"41 27 OFFCURVE",
"3 192 OFFCURVE",
"-10 335 CURVE"
);
},
{
closed = 1;
nodes = (
"206 389 LINE",
"211 252 OFFCURVE",
"179 183 OFFCURVE",
"133 46 CURVE",
"65 -1 LINE",
"115 134 OFFCURVE",
"154 221 OFFCURVE",
"138 350 CURVE"
);
}
);
width = 285;
}
);
rightMetricsKey = "a";
unicode = 0075;
},
{
glyphname = "v";
lastChange = "2013-05-31 11:58:20 +0100";
layers = (
{
layerId = "1E238986-8A4D-4620-9F99-918EE406194F";
name = "Light";
paths = (
{
closed = 1;
nodes = (
"27 370 LINE",
"38 311 OFFCURVE",
"132 83 OFFCURVE",
"142 27 CURVE",
"94 -20 LINE",
"81 50 OFFCURVE",
"-6 233 OFFCURVE",
"-28 331 CURVE"
);
},
{
closed = 1;
nodes = (
"172 379 LINE",
"161 242 OFFCURVE",
"159 164 OFFCURVE",
"142 27 CURVE",
"94 -20 LINE",
"115 115 OFFCURVE",
"120 211 OFFCURVE",
"120 340 CURVE"
);
}
);
width = 170;
},
{
layerId = "05DCEB7D-DEF5-48FB-88E5-EF320714A6F1";
name = "Bold";
paths = (
{
closed = 1;
nodes = (
"55 370 LINE",
"66 311 OFFCURVE",
"160 83 OFFCURVE",
"170 27 CURVE",
"102 -20 LINE",
"89 50 OFFCURVE",
"2 233 OFFCURVE",
"-20 331 CURVE"
);
},
{
closed = 1;
nodes = (
"220 379 LINE",
"209 242 OFFCURVE",
"187 164 OFFCURVE",
"170 27 CURVE",
"102 -20 LINE",
"123 115 OFFCURVE",
"148 211 OFFCURVE",
"148 340 CURVE"
);
}
);
width = 240;
}
);
unicode = 0076;
},
{
glyphname = "w";
lastChange = "2013-05-31 11:58:03 +0100";
layers = (
{
anchors = (
{
name = "top";
position = "{120, 353}";
}
);
layerId = "1E238986-8A4D-4620-9F99-918EE406194F";
name = "Light";
paths = (
{
closed = 1;
nodes = (
"156 270 LINE",
"167 211 OFFCURVE",
"213 83 OFFCURVE",
"233 27 CURVE",
"185 -20 LINE",
"168 50 OFFCURVE",
"131 133 OFFCURVE",
"109 231 CURVE"
);
},
{
closed = 1;
nodes = (
"267 379 LINE",
"256 242 OFFCURVE",
"250 164 OFFCURVE",
"233 27 CURVE",
"185 -20 LINE",
"206 115 OFFCURVE",
"211 211 OFFCURVE",
"211 340 CURVE"
);
},
{
closed = 1;
nodes = (
"14 370 LINE",
"44 350 OFFCURVE",
"52 132 OFFCURVE",
"95 0 CURVE",
"47 -35 LINE",
"14 90 OFFCURVE",
"4 200 OFFCURVE",
"-28 330 CURVE"
);
},
{
closed = 1;
nodes = (
"154 267 LINE",
"115 130 OFFCURVE",
"109 113 OFFCURVE",
"95 0 CURVE",
"47 -35 LINE",
"73 100 OFFCURVE",
"71 135 OFFCURVE",
"109 231 CURVE"
);
}
);
width = 265;
},
{
anchors = (
{
name = "top";
position = "{148, 353}";
}
);
layerId = "05DCEB7D-DEF5-48FB-88E5-EF320714A6F1";
name = "Bold";
paths = (
{
closed = 1;
nodes = (
"214 270 LINE",
"225 211 OFFCURVE",
"271 83 OFFCURVE",
"291 27 CURVE",
"223 -20 LINE",
"215 50 OFFCURVE",
"169 133 OFFCURVE",
"147 231 CURVE"
);
},
{
closed = 1;
nodes = (
"345 379 LINE",
"334 242 OFFCURVE",
"308 164 OFFCURVE",
"291 27 CURVE",
"223 -20 LINE",
"249 115 OFFCURVE",
"254 211 OFFCURVE",
"269 340 CURVE"
);
},
{
closed = 1;
nodes = (
"42 370 LINE",
"72 350 OFFCURVE",
"80 132 OFFCURVE",
"123 0 CURVE",
"55 -35 LINE",
"22 90 OFFCURVE",
"12 200 OFFCURVE",
"-20 330 CURVE"
);
},
{
closed = 1;
nodes = (
"212 267 LINE",
"173 130 OFFCURVE",
"157 113 OFFCURVE",
"123 0 CURVE",
"55 -35 LINE",
"81 100 OFFCURVE",
"104 135 OFFCURVE",
"147 231 CURVE"
);
}
);
width = 365;
}
);
leftMetricsKey = "v";
rightMetricsKey = "v";
unicode = 0077;
},
{
glyphname = "x";
lastChange = "2013-05-31 12:15:09 +0100";
layers = (
{
layerId = "1E238986-8A4D-4620-9F99-918EE406194F";
name = "Light";
paths = (
{
closed = 1;
nodes = (
"57 370 LINE",
"112 256 OFFCURVE",
"237 141 OFFCURVE",
"282 27 CURVE",
"234 -20 LINE",
"189 97 OFFCURVE",
"65 214 OFFCURVE",
"10 331 CURVE"
);
},
{
closed = 1;
nodes = (
"300 389 LINE",
"201 272 OFFCURVE",
"111 124 OFFCURVE",
"52 7 CURVE",
"-6 -20 LINE",
"53 100 OFFCURVE",
"141 230 OFFCURVE",
"240 370 CURVE"
);
}
);
width = 280;
},
{
layerId = "05DCEB7D-DEF5-48FB-88E5-EF320714A6F1";
name = "Bold";
paths = (
{
closed = 1;
nodes = (
"52 370 LINE",
"107 256 OFFCURVE",
"232 141 OFFCURVE",
"277 27 CURVE",
"199 -20 LINE",
"154 97 OFFCURVE",
"30 214 OFFCURVE",
"-25 331 CURVE"
);
},
{
closed = 1;
nodes = (
"315 389 LINE",
"216 272 OFFCURVE",
"126 124 OFFCURVE",
"67 7 CURVE",
"-21 -20 LINE",
"38 100 OFFCURVE",
"126 230 OFFCURVE",
"225 370 CURVE"
);
}
);
width = 290;
}
);
unicode = 0078;
},
{
glyphname = "y";
lastChange = "2013-05-28 12:26:31 +0100";
layers = (
{
anchors = (
{
name = "top";
position = "{94, 370}";
}
);
background = {
paths = (
{
closed = 1;
nodes = (
"148 350 LINE",
"152 210 OFFCURVE",
"290 -89 OFFCURVE",
"290 -307 CURVE",
"244 -333 LINE",
"240 -167 OFFCURVE",
"114 218 OFFCURVE",
"107 331 CURVE"
);
},
{
closed = 1;
nodes = (
"95 66 LINE",
"131 130 OFFCURVE",
"141 330 OFFCURVE",
"56 336 CURVE",
"93 370 LINE",
"171 393 OFFCURVE",
"207 70 OFFCURVE",
"66 14 CURVE"
);
},
{
closed = 1;
nodes = (
"66 14 LINE",
"-61 125 OFFCURVE",
"-14 338 OFFCURVE",
"93 370 CURVE",
"62 335 LINE",
"14 226 OFFCURVE",
"33 141 OFFCURVE",
"95 66 CURVE"
);
},
{
closed = 1;
nodes = (
"82 -24 OFFCURVE",
"158 -129 OFFCURVE",
"290 -307 CURVE",
"240 -344 LINE",
"136 -196 OFFCURVE",
"-7 -31 OFFCURVE",
"187 60 CURVE"
);
}
);
};
layerId = "1E238986-8A4D-4620-9F99-918EE406194F";
name = "Light";
paths = (
{
closed = 1;
nodes = (
"62 374 LINE",
"53 261 OFFCURVE",
"70 158 OFFCURVE",
"128 58 CURVE",
"80 11 LINE",
"36 95 OFFCURVE",
"-2 182 OFFCURVE",
"5 335 CURVE"
);
},
{
closed = 1;
nodes = (
"173 369 LINE",
"178 232 OFFCURVE",
"174 195 OFFCURVE",
"128 58 CURVE",
"80 11 LINE",
"130 146 OFFCURVE",
"139 201 OFFCURVE",
"123 330 CURVE"
);
},
{
closed = 1;
nodes = (
"177 210 OFFCURVE",
"315 -89 OFFCURVE",
"315 -307 CURVE",
"259 -333 LINE",
"255 -167 OFFCURVE",
"129 218 OFFCURVE",
"122 331 CURVE",
"173 350 LINE"
);
},
{
closed = 1;
nodes = (
"97 -24 OFFCURVE",
"183 -129 OFFCURVE",
"315 -307 CURVE",
"255 -344 LINE",
"151 -196 OFFCURVE",
"8 -31 OFFCURVE",
"202 60 CURVE"
);
}
);
width = 225;
},
{
anchors = (
{
name = "top";
position = "{120, 370}";
}
);
background = {
paths = (
{
closed = 1;
nodes = (
"148 350 LINE",
"152 210 OFFCURVE",
"290 -89 OFFCURVE",
"290 -307 CURVE",
"244 -333 LINE",
"240 -167 OFFCURVE",
"114 218 OFFCURVE",
"107 331 CURVE"
);
},
{
closed = 1;
nodes = (
"95 66 LINE",
"131 130 OFFCURVE",
"141 330 OFFCURVE",
"56 336 CURVE",
"93 370 LINE",
"171 393 OFFCURVE",
"207 70 OFFCURVE",
"66 14 CURVE"
);
},
{
closed = 1;
nodes = (
"66 14 LINE",
"-61 125 OFFCURVE",
"-14 338 OFFCURVE",
"93 370 CURVE",
"62 335 LINE",
"14 226 OFFCURVE",
"33 141 OFFCURVE",
"95 66 CURVE"
);
},
{
closed = 1;
nodes = (
"82 -24 OFFCURVE",
"158 -129 OFFCURVE",
"290 -307 CURVE",
"240 -344 LINE",
"136 -196 OFFCURVE",
"-7 -31 OFFCURVE",
"187 60 CURVE"
);
}
);
};
layerId = "05DCEB7D-DEF5-48FB-88E5-EF320714A6F1";
name = "Bold";
paths = (
{
closed = 1;
nodes = (
"68 374 LINE",
"59 261 OFFCURVE",
"76 158 OFFCURVE",
"154 58 CURVE",
"66 11 LINE",
"22 95 OFFCURVE",
"-16 182 OFFCURVE",
"-9 335 CURVE"
);
},
{
closed = 1;
nodes = (
"219 369 LINE",
"224 232 OFFCURVE",
"200 195 OFFCURVE",
"154 58 CURVE",
"66 11 LINE",
"116 146 OFFCURVE",
"155 201 OFFCURVE",
"149 330 CURVE"
);
},
{
closed = 1;
nodes = (
"223 210 OFFCURVE",
"361 -89 OFFCURVE",
"361 -307 CURVE",
"285 -333 LINE",
"281 -167 OFFCURVE",
"155 218 OFFCURVE",
"148 331 CURVE",
"219 350 LINE"
);
},
{
closed = 1;
nodes = (
"123 -24 OFFCURVE",
"229 -129 OFFCURVE",
"361 -307 CURVE",
"281 -344 LINE",
"177 -196 OFFCURVE",
"34 -31 OFFCURVE",
"228 60 CURVE"
);
}
);
width = 277;
}
);
leftMetricsKey = "u";
rightMetricsKey = "g";
unicode = 0079;
},
{
glyphname = "z";
lastChange = "2013-05-31 12:15:09 +0100";
layers = (
{
layerId = "1E238986-8A4D-4620-9F99-918EE406194F";
name = "Light";
paths = (
{
closed = 1;
nodes = (
"83 30 LINE",
"170 71 OFFCURVE",
"218 78 OFFCURVE",
"305 79 CURVE",
"246 34 LINE",
"160 36 OFFCURVE",
"111 18 OFFCURVE",
"25 -20 CURVE"
);
},
{
closed = 1;
nodes = (
"241 375 LINE",
"126 233 OFFCURVE",
"102 147 OFFCURVE",
"83 30 CURVE",
"25 -20 LINE",
"44 100 OFFCURVE",
"86 233 OFFCURVE",
"185 333 CURVE"
);
},
{
closed = 1;
nodes = (
"45 352 LINE",
"103 333 OFFCURVE",
"137 348 OFFCURVE",
"241 375 CURVE",
"185 333 LINE",
"119 304 OFFCURVE",
"73 290 OFFCURVE",
"0 314 CURVE"
);
},
{
closed = 1;
nodes = (
"75 232 LINE",
"121 208 OFFCURVE",
"134 199 OFFCURVE",
"225 220 CURVE",
"177 186 LINE",
"110 171 OFFCURVE",
"84 176 OFFCURVE",
"17 205 CURVE"
);
}
);
width = 240;
},
{
background = {
components = (
{
name = "Z";
transform = "{1, 0, 0, 1, 0, 0}";
}
);
};
layerId = "05DCEB7D-DEF5-48FB-88E5-EF320714A6F1";
name = "Bold";
paths = (
{
closed = 1;
nodes = (
"128 50 LINE",
"215 91 OFFCURVE",
"263 78 OFFCURVE",
"350 79 CURVE",
"271 14 LINE",
"185 16 OFFCURVE",
"116 18 OFFCURVE",
"30 -20 CURVE"
);
},
{
closed = 1;
nodes = (
"286 375 LINE",
"171 233 OFFCURVE",
"147 167 OFFCURVE",
"128 50 CURVE",
"30 -20 LINE",
"49 100 OFFCURVE",
"91 213 OFFCURVE",
"190 313 CURVE"
);
},
{
closed = 1;
nodes = (
"50 352 LINE",
"108 333 OFFCURVE",
"182 348 OFFCURVE",
"286 375 CURVE",
"190 313 LINE",
"124 284 OFFCURVE",
"58 280 OFFCURVE",
"-15 304 CURVE"
);
},
{
closed = 1;
nodes = (
"80 232 LINE",
"126 208 OFFCURVE",
"179 199 OFFCURVE",
"270 220 CURVE",
"212 156 LINE",
"145 141 OFFCURVE",
"79 146 OFFCURVE",
"12 175 CURVE"
);
}
);
width = 305;
}
);
unicode = 007A;
},
{
glyphname = "zero";
lastChange = "2013-05-31 12:15:09 +0100";
layers = (
{
layerId = "1E238986-8A4D-4620-9F99-918EE406194F";
name = "Light";
paths = (
{
closed = 1;
nodes = (
"80 599 LINE",
"17 469 OFFCURVE",
"38 67 OFFCURVE",
"198 35 CURVE",
"149 -3 LINE",
"-17 47 OFFCURVE",
"-24 455 OFFCURVE",
"28 561 CURVE"
);
},
{
closed = 1;
nodes = (
"149 -3 LINE",
"212 127 OFFCURVE",
"188 529 OFFCURVE",
"28 561 CURVE",
"80 599 LINE",
"246 549 OFFCURVE",
"250 141 OFFCURVE",
"198 35 CURVE"
);
}
);
width = 240;
},
{
layerId = "05DCEB7D-DEF5-48FB-88E5-EF320714A6F1";
name = "Bold";
paths = (
{
closed = 1;
nodes = (
"80 599 LINE",
"17 469 OFFCURVE",
"38 54 OFFCURVE",
"198 22 CURVE",
"132 -42 LINE",
"-34 8 OFFCURVE",
"-51 435 OFFCURVE",
"1 541 CURVE"
);
},
{
closed = 1;
nodes = (
"132 -42 LINE",
"195 88 OFFCURVE",
"161 509 OFFCURVE",
"1 541 CURVE",
"80 599 LINE",
"246 549 OFFCURVE",
"250 128 OFFCURVE",
"198 22 CURVE"
);
}
);
width = 240;
}
);
unicode = 0030;
},
{
glyphname = "one";
lastChange = "2013-05-28 12:26:31 +0100";
layers = (
{
layerId = "1E238986-8A4D-4620-9F99-918EE406194F";
name = "Light";
paths = (
{
closed = 1;
nodes = (
"146 460 OFFCURVE",
"143 243 OFFCURVE",
"193 25 CURVE",
"137 -13 LINE",
"83 153 OFFCURVE",
"87 453 OFFCURVE",
"80 566 CURVE",
"142 600 LINE"
);
},
{
closed = 1;
nodes = (
"2 361 LINE",
"80 566 LINE",
"142 600 LINE",
"75 399 LINE"
);
}
);
width = 210;
},
{
layerId = "05DCEB7D-DEF5-48FB-88E5-EF320714A6F1";
name = "Bold";
paths = (
{
closed = 1;
nodes = (
"159 460 OFFCURVE",
"166 253 OFFCURVE",
"216 35 CURVE",
"137 -13 LINE",
"83 153 OFFCURVE",
"87 453 OFFCURVE",
"80 566 CURVE",
"155 600 LINE"
);
},
{
closed = 1;
nodes = (
"-8 361 LINE",
"80 566 LINE",
"155 600 LINE",
"75 399 LINE"
);
}
);
width = 210;
}
);
unicode = 0031;
},
{
glyphname = "two";
lastChange = "2013-05-31 12:15:09 +0100";
layers = (
{
layerId = "1E238986-8A4D-4620-9F99-918EE406194F";
name = "Light";
paths = (
{
closed = 1;
nodes = (
"72 37 LINE",
"169 90 OFFCURVE",
"244 112 OFFCURVE",
"352 109 CURVE",
"293 64 LINE",
"190 58 OFFCURVE",
"117 29 OFFCURVE",
"14 -20 CURVE"
);
},
{
closed = 1;
nodes = (
"122 182 OFFCURVE",
"82 37 CURVE",
"14 -20 LINE",
"33 103 OFFCURVE",
"112 223 OFFCURVE",
"172 333 CURVE SMOOTH",
"312 589 OFFCURVE",
"186 529 OFFCURVE",
"23 395 CURVE",
"55 468 LINE",
"136 590 OFFCURVE",
"388 628 OFFCURVE",
"260 399 CURVE SMOOTH",
"209 308 OFFCURVE"
);
}
);
width = 340;
},
{
background = {
components = (
{
name = "Z";
transform = "{1, 0, 0, 1, 0, 0}";
}
);
};
layerId = "05DCEB7D-DEF5-48FB-88E5-EF320714A6F1";
name = "Bold";
paths = (
{
closed = 1;
nodes = (
"72 37 LINE",
"169 90 OFFCURVE",
"244 112 OFFCURVE",
"352 109 CURVE",
"263 34 LINE",
"160 28 OFFCURVE",
"87 -1 OFFCURVE",
"-16 -50 CURVE"
);
},
{
closed = 1;
nodes = (
"122 182 OFFCURVE",
"82 37 CURVE",
"-16 -50 LINE",
"3 73 OFFCURVE",
"106 228 OFFCURVE",
"172 333 CURVE SMOOTH",
"302 539 OFFCURVE",
"164 509 OFFCURVE",
"13 375 CURVE",
"55 468 LINE",
"136 590 OFFCURVE",
"408 628 OFFCURVE",
"280 399 CURVE SMOOTH",
"229 308 OFFCURVE"
);
}
);
width = 340;
}
);
unicode = 0032;
},
{
glyphname = "three";
lastChange = "2013-05-31 12:14:33 +0100";
layers = (
{
layerId = "1E238986-8A4D-4620-9F99-918EE406194F";
name = "Light";
paths = (
{
closed = 1;
nodes = (
"37 587 LINE",
"191 610 OFFCURVE",
"311 536 OFFCURVE",
"262 449 CURVE",
"232 390 LINE",
"273 511 OFFCURVE",
"112 537 OFFCURVE",
"-8 524 CURVE"
);
},
{
closed = 1;
nodes = (
"91 358 LINE",
"157 358 OFFCURVE",
"220 376 OFFCURVE",
"259 449 CURVE",
"232 390 LINE",
"221 370 OFFCURVE",
"123 302 OFFCURVE",
"54 311 CURVE"
);
},
{
closed = 1;
nodes = (
"118 356 LINE",
"332 379 OFFCURVE",
"354 254 OFFCURVE",
"330 195 CURVE",
"290 126 LINE",
"331 237 OFFCURVE",
"243 329 OFFCURVE",
"73 316 CURVE"
);
},
{
closed = 1;
nodes = (
"45 35 LINE",
"82 61 OFFCURVE",
"271 101 OFFCURVE",
"327 195 CURVE",
"290 126 LINE",
"216 41 OFFCURVE",
"57 0 OFFCURVE",
"-2 -30 CURVE"
);
}
);
width = 330;
},
{
background = {
components = (
{
name = "B";
transform = "{1, 0, 0, 1, 0, 0}";
}
);
};
layerId = "05DCEB7D-DEF5-48FB-88E5-EF320714A6F1";
name = "Bold";
paths = (
{
closed = 1;
nodes = (
"37 587 LINE",
"191 610 OFFCURVE",
"311 536 OFFCURVE",
"262 449 CURVE",
"212 360 LINE",
"253 481 OFFCURVE",
"92 507 OFFCURVE",
"-28 494 CURVE"
);
},
{
closed = 1;
nodes = (
"91 358 LINE",
"157 358 OFFCURVE",
"220 376 OFFCURVE",
"259 449 CURVE",
"212 360 LINE",
"201 340 OFFCURVE",
"103 272 OFFCURVE",
"34 281 CURVE"
);
},
{
closed = 1;
nodes = (
"118 356 LINE",
"332 379 OFFCURVE",
"364 274 OFFCURVE",
"340 215 CURVE",
"290 126 LINE",
"331 237 OFFCURVE",
"223 299 OFFCURVE",
"53 286 CURVE"
);
},
{
closed = 1;
nodes = (
"65 65 LINE",
"102 91 OFFCURVE",
"281 121 OFFCURVE",
"337 215 CURVE",
"290 126 LINE",
"216 41 OFFCURVE",
"57 0 OFFCURVE",
"-2 -30 CURVE"
);
}
);
width = 330;
}
);
unicode = 0033;
},
{
glyphname = "four";
lastChange = "2013-05-28 12:26:31 +0100";
layers = (
{
layerId = "1E238986-8A4D-4620-9F99-918EE406194F";
name = "Light";
paths = (
{
closed = 1;
nodes = (
"250 238 OFFCURVE",
"247 206 OFFCURVE",
"255 22 CURVE",
"196 -11 LINE",
"182 180 OFFCURVE",
"190 236 OFFCURVE",
"179 350 CURVE",
"243 379 LINE"
);
},
{
closed = 1;
nodes = (
"72 245 LINE",
"165 304 OFFCURVE",
"237 309 OFFCURVE",
"345 314 CURVE SMOOTH",
"290 245 LINE",
"188 232 OFFCURVE",
"105 227 OFFCURVE",
"5 171 CURVE"
);
},
{
closed = 1;
nodes = (
"219 486 OFFCURVE",
"179 398 OFFCURVE",
"82 246 CURVE",
"5 171 LINE",
"75 308 OFFCURVE",
"150 450 OFFCURVE",
"180 572 CURVE",
"249 611 LINE"
);
}
);
width = 280;
},
{
background = {
components = (
{
name = "A";
transform = "{1, 0, 0, 1, 0, 0}";
}
);
};
layerId = "05DCEB7D-DEF5-48FB-88E5-EF320714A6F1";
name = "Bold";
paths = (
{
closed = 1;
nodes = (
"260 258 OFFCURVE",
"267 226 OFFCURVE",
"285 42 CURVE",
"196 -11 LINE",
"172 180 OFFCURVE",
"170 236 OFFCURVE",
"179 350 CURVE",
"273 399 LINE"
);
},
{
closed = 1;
nodes = (
"72 245 LINE",
"165 304 OFFCURVE",
"257 329 OFFCURVE",
"365 334 CURVE",
"290 245 LINE",
"188 232 OFFCURVE",
"75 197 OFFCURVE",
"-25 141 CURVE"
);
},
{
closed = 1;
nodes = (
"219 486 OFFCURVE",
"179 398 OFFCURVE",
"82 246 CURVE",
"-25 141 LINE",
"45 278 OFFCURVE",
"120 420 OFFCURVE",
"150 542 CURVE",
"249 611 LINE"
);
}
);
width = 280;
}
);
unicode = 0034;
},
{
glyphname = "five";
lastChange = "2013-05-28 12:26:31 +0100";
layers = (
{
layerId = "1E238986-8A4D-4620-9F99-918EE406194F";
name = "Light";
paths = (
{
closed = 1;
nodes = (
"178 356 LINE",
"362 379 OFFCURVE",
"384 254 OFFCURVE",
"360 195 CURVE",
"320 126 LINE",
"361 237 OFFCURVE",
"251 314 OFFCURVE",
"111 301 CURVE"
);
},
{
closed = 1;
nodes = (
"105 35 LINE",
"142 61 OFFCURVE",
"301 101 OFFCURVE",
"357 195 CURVE",
"320 126 LINE",
"246 41 OFFCURVE",
"117 0 OFFCURVE",
"58 -30 CURVE"
);
},
{
closed = 1;
nodes = (
"121 586 LINE",
"197 548 OFFCURVE",
"288 531 OFFCURVE",
"387 526 CURVE",
"332 477 LINE",
"224 477 OFFCURVE",
"143 487 OFFCURVE",
"64 522 CURVE"
);
},
{
closed = 1;
nodes = (
"143 513 OFFCURVE",
"170 453 OFFCURVE",
"178 356 CURVE",
"111 301 LINE",
"95 397 OFFCURVE",
"90 465 OFFCURVE",
"64 522 CURVE",
"124 588 LINE"
);
}
);
width = 400;
},
{
layerId = "05DCEB7D-DEF5-48FB-88E5-EF320714A6F1";
name = "Bold";
paths = (
{
closed = 1;
nodes = (
"178 356 LINE",
"362 379 OFFCURVE",
"384 254 OFFCURVE",
"360 195 CURVE",
"300 106 LINE",
"341 217 OFFCURVE",
"231 294 OFFCURVE",
"91 281 CURVE"
);
},
{
closed = 1;
nodes = (
"115 65 LINE",
"152 91 OFFCURVE",
"301 123 OFFCURVE",
"357 195 CURVE",
"300 106 LINE",
"226 21 OFFCURVE",
"117 0 OFFCURVE",
"58 -30 CURVE"
);
},
{
closed = 1;
nodes = (
"121 586 LINE",
"197 548 OFFCURVE",
"288 531 OFFCURVE",
"387 526 CURVE",
"322 447 LINE",
"214 447 OFFCURVE",
"123 467 OFFCURVE",
"44 502 CURVE"
);
},
{
closed = 1;
nodes = (
"143 513 OFFCURVE",
"170 453 OFFCURVE",
"178 356 CURVE",
"91 281 LINE",
"75 377 OFFCURVE",
"70 445 OFFCURVE",
"44 502 CURVE",
"124 588 LINE"
);
}
);
width = 400;
}
);
unicode = 0035;
},
{
glyphname = "six";
lastChange = "2013-05-31 12:15:09 +0100";
layers = (
{
layerId = "1E238986-8A4D-4620-9F99-918EE406194F";
name = "Light";
paths = (
{
closed = 1;
nodes = (
"190 574 LINE",
"-3 434 OFFCURVE",
"48 67 OFFCURVE",
"178 35 CURVE",
"129 -3 LINE",
"-7 47 OFFCURVE",
"-54 433 OFFCURVE",
"128 549 CURVE"
);
},
{
closed = 1;
nodes = (
"129 -3 LINE",
"252 127 OFFCURVE",
"198 307 OFFCURVE",
"88 339 CURVE",
"140 377 LINE",
"256 327 OFFCURVE",
"290 141 OFFCURVE",
"178 35 CURVE"
);
},
{
closed = 1;
nodes = (
"140 377 LINE",
"89 331 OFFCURVE",
"76 284 OFFCURVE",
"65 238 CURVE",
"15 199 LINE",
"25 246 OFFCURVE",
"38 292 OFFCURVE",
"88 339 CURVE"
);
}
);
width = 235;
},
{
background = {
components = (
{
name = "O";
transform = "{1, 0, 0, 1, 8, 0}";
}
);
};
layerId = "05DCEB7D-DEF5-48FB-88E5-EF320714A6F1";
name = "Bold";
paths = (
{
closed = 1;
nodes = (
"189 562 LINE",
"-4 422 OFFCURVE",
"48 67 OFFCURVE",
"178 35 CURVE",
"105 -43 LINE",
"-31 7 OFFCURVE",
"-78 413 OFFCURVE",
"104 529 CURVE"
);
},
{
closed = 1;
nodes = (
"105 -43 LINE",
"228 87 OFFCURVE",
"198 307 OFFCURVE",
"88 339 CURVE",
"170 397 LINE",
"286 347 OFFCURVE",
"290 141 OFFCURVE",
"178 35 CURVE"
);
},
{
closed = 1;
nodes = (
"170 397 LINE",
"119 351 OFFCURVE",
"76 284 OFFCURVE",
"65 238 CURVE",
"-9 159 LINE",
"1 206 OFFCURVE",
"38 292 OFFCURVE",
"88 339 CURVE"
);
}
);
width = 235;
}
);
unicode = 0036;
},
{
glyphname = "seven";
lastChange = "2013-05-31 12:15:09 +0100";
layers = (
{
layerId = "1E238986-8A4D-4620-9F99-918EE406194F";
name = "Light";
paths = (
{
closed = 1;
nodes = (
"104 542 LINE",
"195 544 OFFCURVE",
"290 566 OFFCURVE",
"391 600 CURVE",
"301 533 LINE",
"219 493 OFFCURVE",
"140 494 OFFCURVE",
"46 495 CURVE"
);
},
{
closed = 1;
nodes = (
"144 372 LINE",
"314 360 LINE",
"266 326 LINE",
"90 336 LINE"
);
},
{
closed = 1;
nodes = (
"390 599 LINE",
"259 462 OFFCURVE",
"119 154 OFFCURVE",
"102 37 CURVE",
"24 -20 LINE",
"45 115 OFFCURVE",
"200 441 OFFCURVE",
"320 570 CURVE"
);
}
);
width = 300;
},
{
background = {
components = (
{
name = "Z";
transform = "{1, 0, 0, 1, 0, 0}";
}
);
};
layerId = "05DCEB7D-DEF5-48FB-88E5-EF320714A6F1";
name = "Bold";
paths = (
{
closed = 1;
nodes = (
"134 552 LINE",
"225 554 OFFCURVE",
"320 576 OFFCURVE",
"421 610 CURVE",
"281 513 LINE",
"199 473 OFFCURVE",
"120 474 OFFCURVE",
"26 475 CURVE"
);
},
{
closed = 1;
nodes = (
"134 392 LINE",
"354 380 LINE",
"276 306 LINE",
"50 316 LINE"
);
},
{
closed = 1;
nodes = (
"420 609 LINE",
"289 472 OFFCURVE",
"159 184 OFFCURVE",
"142 67 CURVE",
"24 -20 LINE",
"45 115 OFFCURVE",
"180 421 OFFCURVE",
"300 550 CURVE"
);
}
);
width = 300;
}
);
unicode = 0037;
},
{
glyphname = "eight";
lastChange = "2013-05-28 12:26:31 +0100";
layers = (
{
layerId = "1E238986-8A4D-4620-9F99-918EE406194F";
name = "Light";
paths = (
{
closed = 1;
nodes = (
"85 500 LINE",
"36 403 OFFCURVE",
"406 260 OFFCURVE",
"369 100 CURVE",
"325 55 LINE",
"364 241 OFFCURVE",
"-8 344 OFFCURVE",
"48 448 CURVE"
);
},
{
closed = 1;
nodes = (
"99 113 LINE",
"99 32 OFFCURVE",
"280 22 OFFCURVE",
"366 100 CURVE",
"325 55 LINE",
"246 -7 OFFCURVE",
"62 -20 OFFCURVE",
"62 66 CURVE"
);
},
{
closed = 1;
nodes = (
"277 507 LINE",
"260 542 OFFCURVE",
"111 516 OFFCURVE",
"48 448 CURVE",
"85 500 LINE",
"137 563 OFFCURVE",
"276 597 OFFCURVE",
"308 552 CURVE"
);
},
{
closed = 1;
nodes = (
"308 552 LINE",
"359 490 OFFCURVE",
"99 223 OFFCURVE",
"99 113 CURVE",
"62 66 LINE",
"62 198 OFFCURVE",
"312 435 OFFCURVE",
"277 507 CURVE"
);
}
);
width = 350;
},
{
background = {
components = (
{
name = "S";
transform = "{1, 0, 0, 1, 0, 0}";
}
);
};
layerId = "05DCEB7D-DEF5-48FB-88E5-EF320714A6F1";
name = "Bold";
paths = (
{
closed = 1;
nodes = (
"98 505 LINE",
"49 408 OFFCURVE",
"419 265 OFFCURVE",
"382 105 CURVE",
"305 45 LINE",
"344 231 OFFCURVE",
"-28 334 OFFCURVE",
"28 438 CURVE"
);
},
{
closed = 1;
nodes = (
"112 118 LINE",
"112 37 OFFCURVE",
"293 27 OFFCURVE",
"379 105 CURVE",
"305 45 LINE",
"226 -17 OFFCURVE",
"42 -30 OFFCURVE",
"42 56 CURVE"
);
},
{
closed = 1;
nodes = (
"257 497 LINE",
"240 532 OFFCURVE",
"104 511 OFFCURVE",
"28 438 CURVE",
"98 505 LINE",
"150 568 OFFCURVE",
"289 602 OFFCURVE",
"321 557 CURVE"
);
},
{
closed = 1;
nodes = (
"321 557 LINE",
"372 495 OFFCURVE",
"112 228 OFFCURVE",
"112 118 CURVE",
"42 56 LINE",
"42 188 OFFCURVE",
"292 425 OFFCURVE",
"257 497 CURVE"
);
}
);
width = 350;
}
);
unicode = 0038;
},
{
glyphname = "nine";
lastChange = "2013-05-28 12:26:31 +0100";
layers = (
{
layerId = "1E238986-8A4D-4620-9F99-918EE406194F";
name = "Light";
paths = (
{
closed = 1;
nodes = (
"226 594 LINE",
"221 454 OFFCURVE",
"190 241 OFFCURVE",
"191 23 CURVE",
"132 -10 LINE",
"133 197 OFFCURVE",
"173 455 OFFCURVE",
"173 568 CURVE"
);
},
{
closed = 1;
nodes = (
"115 303 LINE",
"176 352 OFFCURVE",
"191 567 OFFCURVE",
"106 573 CURVE",
"143 607 LINE",
"221 630 OFFCURVE",
"227 307 OFFCURVE",
"86 251 CURVE"
);
},
{
closed = 1;
nodes = (
"86 251 LINE",
"-61 362 OFFCURVE",
"16 575 OFFCURVE",
"143 607 CURVE",
"112 572 LINE",
"44 463 OFFCURVE",
"33 378 OFFCURVE",
"115 303 CURVE"
);
}
);
width = 234;
},
{
background = {
components = (
{
name = "q";
transform = "{1, 0, 0, 1, 0, 230}";
}
);
};
layerId = "05DCEB7D-DEF5-48FB-88E5-EF320714A6F1";
name = "Bold";
paths = (
{
closed = 1;
nodes = (
"246 604 LINE",
"241 464 OFFCURVE",
"210 251 OFFCURVE",
"211 33 CURVE",
"132 -10 LINE",
"133 197 OFFCURVE",
"173 455 OFFCURVE",
"173 568 CURVE"
);
},
{
closed = 1;
nodes = (
"115 303 LINE",
"176 352 OFFCURVE",
"181 537 OFFCURVE",
"96 543 CURVE",
"143 607 LINE",
"221 630 OFFCURVE",
"217 277 OFFCURVE",
"76 221 CURVE"
);
},
{
closed = 1;
nodes = (
"76 221 LINE",
"-71 332 OFFCURVE",
"0 588 OFFCURVE",
"143 607 CURVE",
"102 542 LINE",
"34 433 OFFCURVE",
"48 387 OFFCURVE",
"115 303 CURVE"
);
}
);
width = 234;
}
);
unicode = 0039;
},
{
glyphname = "asterisk";
lastChange = "2013-05-28 12:26:31 +0100";
layers = (
{
layerId = "1E238986-8A4D-4620-9F99-918EE406194F";
name = "Light";
paths = (
{
closed = 1;
nodes = (
"186 600 LINE",
"194 507 OFFCURVE",
"220 434 OFFCURVE",
"259 380 CURVE",
"222 316 LINE",
"180 361 OFFCURVE",
"150 446 OFFCURVE",
"131 562 CURVE"
);
},
{
closed = 1;
nodes = (
"187 593 LINE",
"198 539 OFFCURVE",
"182 452 OFFCURVE",
"130 370 CURVE",
"63 306 LINE",
"125 419 OFFCURVE",
"160 513 OFFCURVE",
"132 562 CURVE"
);
},
{
closed = 1;
nodes = (
"116 469 OFFCURVE",
"199 451 OFFCURVE",
"279 478 CURVE",
"244 428 LINE",
"175 412 OFFCURVE",
"82 426 OFFCURVE",
"67 434 CURVE",
"101 481 LINE"
);
}
);
width = 320;
},
{
layerId = "05DCEB7D-DEF5-48FB-88E5-EF320714A6F1";
name = "Bold";
paths = (
{
closed = 1;
nodes = (
"186 600 LINE",
"194 507 OFFCURVE",
"220 434 OFFCURVE",
"259 380 CURVE",
"192 296 LINE",
"150 341 OFFCURVE",
"120 426 OFFCURVE",
"101 542 CURVE"
);
},
{
closed = 1;
nodes = (
"187 593 LINE",
"198 539 OFFCURVE",
"182 452 OFFCURVE",
"130 370 CURVE",
"33 286 LINE",
"95 399 OFFCURVE",
"130 493 OFFCURVE",
"102 542 CURVE"
);
},
{
closed = 1;
nodes = (
"96 469 OFFCURVE",
"219 451 OFFCURVE",
"299 478 CURVE",
"234 408 LINE",
"165 392 OFFCURVE",
"32 406 OFFCURVE",
"17 414 CURVE",
"81 481 LINE"
);
}
);
width = 320;
}
);
unicode = 002A;
},
{
glyphname = "backslash";
lastChange = "2013-05-28 12:26:31 +0100";
layers = (
{
layerId = "1E238986-8A4D-4620-9F99-918EE406194F";
name = "Light";
paths = (
{
closed = 1;
nodes = (
"-13 689 LINE",
"98 454 OFFCURVE",
"198 215 OFFCURVE",
"269 -30 CURVE",
"212 -94 LINE",
"143 159 OFFCURVE",
"44 408 OFFCURVE",
"-65 651 CURVE"
);
}
);
width = 270;
},
{
layerId = "05DCEB7D-DEF5-48FB-88E5-EF320714A6F1";
name = "Bold";
paths = (
{
closed = 1;
nodes = (
"-13 689 LINE",
"98 454 OFFCURVE",
"198 215 OFFCURVE",
"269 -30 CURVE",
"192 -114 LINE",
"123 139 OFFCURVE",
"24 388 OFFCURVE",
"-85 631 CURVE"
);
}
);
width = 270;
}
);
unicode = 005C;
},
{
glyphname = "bullet";
lastChange = "2013-05-31 12:15:09 +0100";
layers = (
{
layerId = "1E238986-8A4D-4620-9F99-918EE406194F";
name = "Light";
paths = (
{
closed = 1;
nodes = (
"297 240 OFFCURVE",
"306 239 OFFCURVE",
"307 233 CURVE SMOOTH",
"308 227 OFFCURVE",
"299 224 OFFCURVE",
"297 217 CURVE",
"299 213 OFFCURVE",
"304 211 OFFCURVE",
"307 209 CURVE",
"306 207 OFFCURVE",
"308 205 OFFCURVE",
"308 203 CURVE",
"304 198 OFFCURVE",
"301 200 OFFCURVE",
"297 198 CURVE",
"295 190 OFFCURVE",
"296 184 OFFCURVE",
"301 177 CURVE",
"302 176 OFFCURVE",
"304 175 OFFCURVE",
"305 174 CURVE",
"307 171 OFFCURVE",
"306 168 OFFCURVE",
"307 167 CURVE SMOOTH",
"308 166 OFFCURVE",
"310 165 OFFCURVE",
"311 164 CURVE",
"312 161 OFFCURVE",
"310 156 OFFCURVE",
"308 154 CURVE",
"306 150 OFFCURVE",
"300 151 OFFCURVE",
"298 147 CURVE",
"292 137 OFFCURVE",
"312 131 OFFCURVE",
"315 124 CURVE",
"311 124 OFFCURVE",
"306 116 OFFCURVE",
"301 117 CURVE",
"293 121 OFFCURVE",
"282 134 OFFCURVE",
"273 128 CURVE SMOOTH",
"270 126 OFFCURVE",
"264 117 OFFCURVE",
"262 113 CURVE SMOOTH",
"260 109 OFFCURVE",
"261 104 OFFCURVE",
"259 100 CURVE",
"246 94 OFFCURVE",
"269 77 OFFCURVE",
"256 68 CURVE",
"252 65 OFFCURVE",
"243 69 OFFCURVE",
"245 76 CURVE",
"237 83 OFFCURVE",
"235 100 OFFCURVE",
"224 92 CURVE",
"221 89 OFFCURVE",
"218 82 OFFCURVE",
"213 78 CURVE",
"211 77 OFFCURVE",
"209 76 OFFCURVE",
"208 75 CURVE",
"205 70 OFFCURVE",
"210 63 OFFCURVE",
"208 59 CURVE",
"202 56 OFFCURVE",
"202 49 OFFCURVE",
"196 48 CURVE",
"188 54 OFFCURVE",
"200 75 OFFCURVE",
"187 78 CURVE",
"178 79 OFFCURVE",
"173 73 OFFCURVE",
"166 65 CURVE",
"165 66 OFFCURVE",
"166 68 OFFCURVE",
"164 69 CURVE",
"160 65 OFFCURVE",
"159 63 OFFCURVE",
"155 63 CURVE",
"154 58 OFFCURVE",
"159 56 OFFCURVE",
"159 51 CURVE",
"156 46 OFFCURVE",
"158 42 OFFCURVE",
"157 38 CURVE",
"150 30 OFFCURVE",
"152 20 OFFCURVE",
"153 11 CURVE SMOOTH",
"154 2 OFFCURVE",
"152 -3 OFFCURVE",
"154 -10 CURVE",
"153 -13 OFFCURVE",
"152 -10 OFFCURVE",
"150 -11 CURVE",
"152 -15 OFFCURVE",
"151 -19 OFFCURVE",
"154 -23 CURVE",
"153 -26 OFFCURVE",
"154 -29 OFFCURVE",
"151 -32 CURVE",
"155 -43 OFFCURVE",
"152 -54 OFFCURVE",
"148 -65 CURVE",
"152 -77 OFFCURVE",
"146 -87 OFFCURVE",
"155 -98 CURVE",
"154 -107 OFFCURVE",
"151 -123 OFFCURVE",
"138 -122 CURVE",
"136 -119 OFFCURVE",
"133 -120 OFFCURVE",
"131 -118 CURVE",
"125 -113 OFFCURVE",
"126 -105 OFFCURVE",
"124 -97 CURVE",
"123 -94 OFFCURVE",
"121 -92 OFFCURVE",
"120 -89 CURVE",
"120 -87 OFFCURVE",
"121 -84 OFFCURVE",
"122 -81 CURVE",
"122 -75 OFFCURVE",
"121 -68 OFFCURVE",
"122 -63 CURVE",
"122 -59 OFFCURVE",
"125 -55 OFFCURVE",
"124 -52 CURVE",
"124 -49 OFFCURVE",
"121 -47 OFFCURVE",
"121 -45 CURVE",
"120 -42 OFFCURVE",
"121 -38 OFFCURVE",
"121 -35 CURVE",
"120 -30 OFFCURVE",
"117 -23 OFFCURVE",
"121 -18 CURVE",
"120 -17 OFFCURVE",
"120 -15 OFFCURVE",
"118 -14 CURVE",
"121 -4 OFFCURVE",
"117 5 OFFCURVE",
"118 15 CURVE",
"117 18 OFFCURVE",
"117 18 OFFCURVE",
"116 20 CURVE",
"116 36 OFFCURVE",
"116 51 OFFCURVE",
"117 67 CURVE",
"116 69 OFFCURVE",
"116 70 OFFCURVE",
"114 71 CURVE",
"115 73 OFFCURVE",
"115 75 OFFCURVE",
"116 77 CURVE",
"113 79 OFFCURVE",
"112 78 OFFCURVE",
"111 82 CURVE",
"105 83 OFFCURVE",
"99 73 OFFCURVE",
"92 73 CURVE",
"87 77 OFFCURVE",
"90 80 OFFCURVE",
"87 84 CURVE",
"84 86 OFFCURVE",
"81 82 OFFCURVE",
"79 79 CURVE",
"76 80 OFFCURVE",
"73 80 OFFCURVE",
"71 84 CURVE",
"73 93 OFFCURVE",
"78 101 OFFCURVE",
"70 110 CURVE",
"68 112 OFFCURVE",
"66 110 OFFCURVE",
"64 110 CURVE",
"60 113 OFFCURVE",
"61 115 OFFCURVE",
"58 116 CURVE",
"53 118 OFFCURVE",
"46 114 OFFCURVE",
"43 117 CURVE",
"38 121 OFFCURVE",
"47 129 OFFCURVE",
"40 132 CURVE SMOOTH",
"31 136 OFFCURVE",
"18 108 OFFCURVE",
"7 110 CURVE",
"4 114 OFFCURVE",
"4 117 OFFCURVE",
"5 121 CURVE",
"17 136 OFFCURVE",
"33 135 OFFCURVE",
"43 150 CURVE",
"42 153 OFFCURVE",
"38 150 OFFCURVE",
"36 154 CURVE",
"37 154 OFFCURVE",
"36 155 OFFCURVE",
"36 155 CURVE",
"40 161 OFFCURVE",
"39 168 OFFCURVE",
"32 171 CURVE",
"29 175 OFFCURVE",
"30 180 OFFCURVE",
"26 181 CURVE",
"19 184 OFFCURVE",
"8 166 OFFCURVE",
"0 176 CURVE",
"5 190 OFFCURVE",
"36 190 OFFCURVE",
"49 200 CURVE",
"53 202 OFFCURVE",
"56 208 OFFCURVE",
"54 210 CURVE",
"51 214 OFFCURVE",
"46 209 OFFCURVE",
"43 212 CURVE",
"43 218 OFFCURVE",
"55 218 OFFCURVE",
"60 223 CURVE",
"61 227 OFFCURVE",
"55 233 OFFCURVE",
"53 238 CURVE",
"47 240 OFFCURVE",
"42 234 OFFCURVE",
"36 240 CURVE",
"42 244 OFFCURVE",
"47 241 OFFCURVE",
"53 243 CURVE",
"56 254 OFFCURVE",
"83 264 OFFCURVE",
"75 275 CURVE SMOOTH",
"70 282 OFFCURVE",
"62 277 OFFCURVE",
"57 284 CURVE",
"65 284 OFFCURVE",
"77 274 OFFCURVE",
"84 285 CURVE SMOOTH",
"90 295 OFFCURVE",
"74 303 OFFCURVE",
"68 308 CURVE",
"76 309 OFFCURVE",
"85 294 OFFCURVE",
"93 302 CURVE",
"94 307 OFFCURVE",
"88 309 OFFCURVE",
"84 311 CURVE",
"89 313 OFFCURVE",
"96 302 OFFCURVE",
"103 309 CURVE",
"109 316 OFFCURVE",
"94 322 OFFCURVE",
"90 330 CURVE",
"96 331 OFFCURVE",
"109 306 OFFCURVE",
"117 320 CURVE SMOOTH",
"121 327 OFFCURVE",
"111 332 OFFCURVE",
"110 339 CURVE",
"114 338 OFFCURVE",
"116 329 OFFCURVE",
"121 326 CURVE",
"125 326 OFFCURVE",
"128 329 OFFCURVE",
"132 331 CURVE",
"135 338 OFFCURVE",
"127 343 OFFCURVE",
"128 350 CURVE",
"133 346 OFFCURVE",
"132 331 OFFCURVE",
"141 334 CURVE",
"145 339 OFFCURVE",
"138 343 OFFCURVE",
"139 348 CURVE",
"143 343 OFFCURVE",
"143 335 OFFCURVE",
"150 335 CURVE",
"153 341 OFFCURVE",
"150 346 OFFCURVE",
"148 352 CURVE",
"152 350 OFFCURVE",
"151 343 OFFCURVE",
"153 340 CURVE",
"168 337 OFFCURVE",
"165 359 OFFCURVE",
"163 366 CURVE",
"174 370 OFFCURVE",
"161 349 OFFCURVE",
"173 352 CURVE",
"176 355 OFFCURVE",
"173 358 OFFCURVE",
"175 361 CURVE",
"179 358 OFFCURVE",
"174 354 OFFCURVE",
"176 351 CURVE",
"177 351 OFFCURVE",
"178 351 OFFCURVE",
"179 351 CURVE",
"183 353 OFFCURVE",
"179 357 OFFCURVE",
"182 358 CURVE",
"184 354 OFFCURVE",
"181 351 OFFCURVE",
"185 347 CURVE",
"196 350 OFFCURVE",
"191 363 OFFCURVE",
"197 370 CURVE",
"204 369 OFFCURVE",
"199 362 OFFCURVE",
"199 359 CURVE SMOOTH",
"199 352 OFFCURVE",
"203 347 OFFCURVE",
"204 341 CURVE",
"205 341 OFFCURVE",
"206 339 OFFCURVE",
"208 338 CURVE",
"211 328 OFFCURVE",
"212 315 OFFCURVE",
"225 316 CURVE",
"228 318 OFFCURVE",
"233 319 OFFCURVE",
"237 321 CURVE",
"241 324 OFFCURVE",
"243 330 OFFCURVE",
"247 327 CURVE",
"246 320 OFFCURVE",
"234 315 OFFCURVE",
"239 309 CURVE",
"241 306 OFFCURVE",
"244 307 OFFCURVE",
"248 305 CURVE",
"253 309 OFFCURVE",
"257 315 OFFCURVE",
"262 312 CURVE",
"259 306 OFFCURVE",
"252 306 OFFCURVE",
"249 301 CURVE",
"247 296 OFFCURVE",
"253 292 OFFCURVE",
"256 288 CURVE",
"265 286 OFFCURVE",
"273 297 OFFCURVE",
"282 296 CURVE",
"278 290 OFFCURVE",
"271 290 OFFCURVE",
"265 286 CURVE",
"265 285 OFFCURVE",
"265 284 OFFCURVE",
"265 284 CURVE",
"267 281 OFFCURVE",
"269 283 OFFCURVE",
"271 280 CURVE",
"270 278 OFFCURVE",
"270 276 OFFCURVE",
"271 274 CURVE",
"274 270 OFFCURVE",
"281 270 OFFCURVE",
"287 266 CURVE",
"299 267 OFFCURVE",
"312 270 OFFCURVE",
"325 271 CURVE",
"328 251 OFFCURVE",
"285 273 OFFCURVE",
"293 248 CURVE"
);
},
{
closed = 1;
nodes = (
"162 76 OFFCURVE",
"164 76 OFFCURVE",
"166 73 CURVE",
"164 72 OFFCURVE",
"162 71 OFFCURVE",
"160 73 CURVE"
);
}
);
width = 330;
},
{
layerId = "05DCEB7D-DEF5-48FB-88E5-EF320714A6F1";
name = "Bold";
paths = (
{
closed = 1;
nodes = (
"297 240 OFFCURVE",
"306 239 OFFCURVE",
"307 233 CURVE SMOOTH",
"308 227 OFFCURVE",
"299 224 OFFCURVE",
"297 217 CURVE",
"299 213 OFFCURVE",
"304 211 OFFCURVE",
"307 209 CURVE",
"306 207 OFFCURVE",
"308 205 OFFCURVE",
"308 203 CURVE",
"304 198 OFFCURVE",
"301 200 OFFCURVE",
"297 198 CURVE",
"295 190 OFFCURVE",
"296 184 OFFCURVE",
"301 177 CURVE",
"302 176 OFFCURVE",
"304 175 OFFCURVE",
"305 174 CURVE",
"307 171 OFFCURVE",
"306 168 OFFCURVE",
"307 167 CURVE SMOOTH",
"308 166 OFFCURVE",
"310 165 OFFCURVE",
"311 164 CURVE",
"312 161 OFFCURVE",
"310 156 OFFCURVE",
"308 154 CURVE",
"306 150 OFFCURVE",
"300 151 OFFCURVE",
"298 147 CURVE",
"292 137 OFFCURVE",
"312 131 OFFCURVE",
"315 124 CURVE",
"311 124 OFFCURVE",
"306 116 OFFCURVE",
"301 117 CURVE",
"293 121 OFFCURVE",
"282 134 OFFCURVE",
"273 128 CURVE SMOOTH",
"270 126 OFFCURVE",
"264 117 OFFCURVE",
"262 113 CURVE SMOOTH",
"260 109 OFFCURVE",
"261 104 OFFCURVE",
"259 100 CURVE",
"246 94 OFFCURVE",
"269 77 OFFCURVE",
"256 68 CURVE",
"252 65 OFFCURVE",
"243 69 OFFCURVE",
"245 76 CURVE",
"237 83 OFFCURVE",
"235 100 OFFCURVE",
"224 92 CURVE",
"221 89 OFFCURVE",
"218 82 OFFCURVE",
"213 78 CURVE",
"211 77 OFFCURVE",
"209 76 OFFCURVE",
"208 75 CURVE",
"205 70 OFFCURVE",
"210 63 OFFCURVE",
"208 59 CURVE",
"202 56 OFFCURVE",
"202 49 OFFCURVE",
"196 48 CURVE",
"188 54 OFFCURVE",
"200 75 OFFCURVE",
"187 78 CURVE",
"178 79 OFFCURVE",
"173 73 OFFCURVE",
"166 65 CURVE",
"165 66 OFFCURVE",
"166 68 OFFCURVE",
"164 69 CURVE",
"160 65 OFFCURVE",
"159 63 OFFCURVE",
"155 63 CURVE",
"154 58 OFFCURVE",
"159 56 OFFCURVE",
"159 51 CURVE",
"156 46 OFFCURVE",
"158 42 OFFCURVE",
"157 38 CURVE",
"150 30 OFFCURVE",
"152 20 OFFCURVE",
"153 11 CURVE SMOOTH",
"154 2 OFFCURVE",
"152 -3 OFFCURVE",
"154 -10 CURVE",
"153 -13 OFFCURVE",
"152 -10 OFFCURVE",
"150 -11 CURVE",
"152 -15 OFFCURVE",
"151 -19 OFFCURVE",
"154 -23 CURVE",
"153 -26 OFFCURVE",
"154 -29 OFFCURVE",
"151 -32 CURVE",
"155 -43 OFFCURVE",
"152 -54 OFFCURVE",
"148 -65 CURVE",
"152 -77 OFFCURVE",
"146 -87 OFFCURVE",
"155 -98 CURVE",
"154 -107 OFFCURVE",
"151 -123 OFFCURVE",
"138 -122 CURVE",
"136 -119 OFFCURVE",
"133 -120 OFFCURVE",
"131 -118 CURVE",
"125 -113 OFFCURVE",
"126 -105 OFFCURVE",
"124 -97 CURVE",
"123 -94 OFFCURVE",
"121 -92 OFFCURVE",
"120 -89 CURVE",
"120 -87 OFFCURVE",
"121 -84 OFFCURVE",
"122 -81 CURVE",
"122 -75 OFFCURVE",
"121 -68 OFFCURVE",
"122 -63 CURVE",
"122 -59 OFFCURVE",
"125 -55 OFFCURVE",
"124 -52 CURVE",
"124 -49 OFFCURVE",
"121 -47 OFFCURVE",
"121 -45 CURVE",
"120 -42 OFFCURVE",
"121 -38 OFFCURVE",
"121 -35 CURVE",
"120 -30 OFFCURVE",
"117 -23 OFFCURVE",
"121 -18 CURVE",
"120 -17 OFFCURVE",
"120 -15 OFFCURVE",
"118 -14 CURVE",
"121 -4 OFFCURVE",
"117 5 OFFCURVE",
"118 15 CURVE",
"117 18 OFFCURVE",
"117 18 OFFCURVE",
"116 20 CURVE",
"116 36 OFFCURVE",
"116 51 OFFCURVE",
"117 67 CURVE",
"116 69 OFFCURVE",
"116 70 OFFCURVE",
"114 71 CURVE",
"115 73 OFFCURVE",
"115 75 OFFCURVE",
"116 77 CURVE",
"113 79 OFFCURVE",
"112 78 OFFCURVE",
"111 82 CURVE",
"105 83 OFFCURVE",
"99 73 OFFCURVE",
"92 73 CURVE",
"87 77 OFFCURVE",
"90 80 OFFCURVE",
"87 84 CURVE",
"84 86 OFFCURVE",
"81 82 OFFCURVE",
"79 79 CURVE",
"76 80 OFFCURVE",
"73 80 OFFCURVE",
"71 84 CURVE",
"73 93 OFFCURVE",
"78 101 OFFCURVE",
"70 110 CURVE",
"68 112 OFFCURVE",
"66 110 OFFCURVE",
"64 110 CURVE",
"60 113 OFFCURVE",
"61 115 OFFCURVE",
"58 116 CURVE",
"53 118 OFFCURVE",
"46 114 OFFCURVE",
"43 117 CURVE",
"38 121 OFFCURVE",
"47 129 OFFCURVE",
"40 132 CURVE SMOOTH",
"31 136 OFFCURVE",
"18 108 OFFCURVE",
"7 110 CURVE",
"4 114 OFFCURVE",
"4 117 OFFCURVE",
"5 121 CURVE",
"17 136 OFFCURVE",
"33 135 OFFCURVE",
"43 150 CURVE",
"42 153 OFFCURVE",
"38 150 OFFCURVE",
"36 154 CURVE",
"37 154 OFFCURVE",
"36 155 OFFCURVE",
"36 155 CURVE",
"40 161 OFFCURVE",
"39 168 OFFCURVE",
"32 171 CURVE",
"29 175 OFFCURVE",
"30 180 OFFCURVE",
"26 181 CURVE",
"19 184 OFFCURVE",
"8 166 OFFCURVE",
"0 176 CURVE",
"5 190 OFFCURVE",
"36 190 OFFCURVE",
"49 200 CURVE",
"53 202 OFFCURVE",
"56 208 OFFCURVE",
"54 210 CURVE",
"51 214 OFFCURVE",
"46 209 OFFCURVE",
"43 212 CURVE",
"43 218 OFFCURVE",
"55 218 OFFCURVE",
"60 223 CURVE",
"61 227 OFFCURVE",
"55 233 OFFCURVE",
"53 238 CURVE",
"47 240 OFFCURVE",
"42 234 OFFCURVE",
"36 240 CURVE",
"42 244 OFFCURVE",
"47 241 OFFCURVE",
"53 243 CURVE",
"56 254 OFFCURVE",
"83 264 OFFCURVE",
"75 275 CURVE SMOOTH",
"70 282 OFFCURVE",
"62 277 OFFCURVE",
"57 284 CURVE",
"65 284 OFFCURVE",
"77 274 OFFCURVE",
"84 285 CURVE SMOOTH",
"90 295 OFFCURVE",
"74 303 OFFCURVE",
"68 308 CURVE",
"76 309 OFFCURVE",
"85 294 OFFCURVE",
"93 302 CURVE",
"94 307 OFFCURVE",
"88 309 OFFCURVE",
"84 311 CURVE",
"89 313 OFFCURVE",
"96 302 OFFCURVE",
"103 309 CURVE",
"109 316 OFFCURVE",
"94 322 OFFCURVE",
"90 330 CURVE",
"96 331 OFFCURVE",
"109 306 OFFCURVE",
"117 320 CURVE SMOOTH",
"121 327 OFFCURVE",
"111 332 OFFCURVE",
"110 339 CURVE",
"114 338 OFFCURVE",
"116 329 OFFCURVE",
"121 326 CURVE",
"125 326 OFFCURVE",
"128 329 OFFCURVE",
"132 331 CURVE",
"135 338 OFFCURVE",
"127 343 OFFCURVE",
"128 350 CURVE",
"133 346 OFFCURVE",
"132 331 OFFCURVE",
"141 334 CURVE",
"145 339 OFFCURVE",
"138 343 OFFCURVE",
"139 348 CURVE",
"143 343 OFFCURVE",
"143 335 OFFCURVE",
"150 335 CURVE",
"153 341 OFFCURVE",
"150 346 OFFCURVE",
"148 352 CURVE",
"152 350 OFFCURVE",
"151 343 OFFCURVE",
"153 340 CURVE",
"168 337 OFFCURVE",
"165 359 OFFCURVE",
"163 366 CURVE",
"174 370 OFFCURVE",
"161 349 OFFCURVE",
"173 352 CURVE",
"176 355 OFFCURVE",
"173 358 OFFCURVE",
"175 361 CURVE",
"179 358 OFFCURVE",
"174 354 OFFCURVE",
"176 351 CURVE",
"177 351 OFFCURVE",
"178 351 OFFCURVE",
"179 351 CURVE",
"183 353 OFFCURVE",
"179 357 OFFCURVE",
"182 358 CURVE",
"184 354 OFFCURVE",
"181 351 OFFCURVE",
"185 347 CURVE",
"196 350 OFFCURVE",
"191 363 OFFCURVE",
"197 370 CURVE",
"204 369 OFFCURVE",
"199 362 OFFCURVE",
"199 359 CURVE SMOOTH",
"199 352 OFFCURVE",
"203 347 OFFCURVE",
"204 341 CURVE",
"205 341 OFFCURVE",
"206 339 OFFCURVE",
"208 338 CURVE",
"211 328 OFFCURVE",
"212 315 OFFCURVE",
"225 316 CURVE",
"228 318 OFFCURVE",
"233 319 OFFCURVE",
"237 321 CURVE",
"241 324 OFFCURVE",
"243 330 OFFCURVE",
"247 327 CURVE",
"246 320 OFFCURVE",
"234 315 OFFCURVE",
"239 309 CURVE",
"241 306 OFFCURVE",
"244 307 OFFCURVE",
"248 305 CURVE",
"253 309 OFFCURVE",
"257 315 OFFCURVE",
"262 312 CURVE",
"259 306 OFFCURVE",
"252 306 OFFCURVE",
"249 301 CURVE",
"247 296 OFFCURVE",
"253 292 OFFCURVE",
"256 288 CURVE",
"265 286 OFFCURVE",
"273 297 OFFCURVE",
"282 296 CURVE",
"278 290 OFFCURVE",
"271 290 OFFCURVE",
"265 286 CURVE",
"265 285 OFFCURVE",
"265 284 OFFCURVE",
"265 284 CURVE",
"267 281 OFFCURVE",
"269 283 OFFCURVE",
"271 280 CURVE",
"270 278 OFFCURVE",
"270 276 OFFCURVE",
"271 274 CURVE",
"274 270 OFFCURVE",
"281 270 OFFCURVE",
"287 266 CURVE",
"299 267 OFFCURVE",
"312 270 OFFCURVE",
"325 271 CURVE",
"328 251 OFFCURVE",
"285 273 OFFCURVE",
"293 248 CURVE"
);
},
{
closed = 1;
nodes = (
"162 76 OFFCURVE",
"164 76 OFFCURVE",
"166 73 CURVE",
"164 72 OFFCURVE",
"162 71 OFFCURVE",
"160 73 CURVE"
);
}
);
width = 330;
}
);
unicode = 2022;
},
{
glyphname = "comma";
lastChange = "2013-05-28 12:26:31 +0100";
layers = (
{
layerId = "1E238986-8A4D-4620-9F99-918EE406194F";
name = "Light";
paths = (
{
closed = 1;
nodes = (
"86 96 LINE",
"124 54 OFFCURVE",
"127 -4 OFFCURVE",
"104 -74 CURVE",
"37 -104 LINE",
"57 -31 OFFCURVE",
"52 26 OFFCURVE",
"20 66 CURVE"
);
}
);
width = 145;
},
{
layerId = "05DCEB7D-DEF5-48FB-88E5-EF320714A6F1";
name = "Bold";
paths = (
{
closed = 1;
nodes = (
"86 96 LINE",
"124 54 OFFCURVE",
"127 -4 OFFCURVE",
"104 -74 CURVE",
"18 -124 LINE",
"38 -51 OFFCURVE",
"33 6 OFFCURVE",
"1 46 CURVE"
);
}
);
width = 145;
}
);
unicode = 002C;
},
{
glyphname = "exclam";
lastChange = "2013-05-31 12:15:09 +0100";
layers = (
{
layerId = "1E238986-8A4D-4620-9F99-918EE406194F";
name = "Light";
paths = (
{
closed = 1;
nodes = (
"75 600 LINE",
"98 474 OFFCURVE",
"115 300 OFFCURVE",
"147 183 CURVE",
"99 140 LINE",
"64 244 OFFCURVE",
"37 433 OFFCURVE",
"13 560 CURVE"
);
},
{
closed = 1;
nodes = (
"157 142 LINE",
"166 102 OFFCURVE",
"182 63 OFFCURVE",
"185 24 CURVE",
"122 -19 LINE",
"120 21 OFFCURVE",
"113 61 OFFCURVE",
"105 101 CURVE"
);
}
);
width = 190;
},
{
layerId = "05DCEB7D-DEF5-48FB-88E5-EF320714A6F1";
name = "Bold";
paths = (
{
closed = 1;
nodes = (
"109 600 LINE",
"120 472 OFFCURVE",
"121 297 OFFCURVE",
"141 178 CURVE",
"64 132 LINE",
"39 239 OFFCURVE",
"30 430 OFFCURVE",
"18 558 CURVE"
);
},
{
closed = 1;
nodes = (
"148 136 LINE",
"153 96 OFFCURVE",
"165 55 OFFCURVE",
"164 16 CURVE",
"72 -28 LINE",
"73 12 OFFCURVE",
"70 52 OFFCURVE",
"66 93 CURVE"
);
}
);
width = 190;
}
);
unicode = 0021;
},
{
glyphname = "exclamdown";
lastChange = "2013-05-31 12:15:09 +0100";
layers = (
{
layerId = "1E238986-8A4D-4620-9F99-918EE406194F";
name = "Light";
paths = (
{
closed = 1;
nodes = (
"89 -319 LINE",
"66 -193 OFFCURVE",
"55 -19 OFFCURVE",
"23 98 CURVE",
"65 141 LINE",
"100 37 OFFCURVE",
"137 -152 OFFCURVE",
"161 -279 CURVE"
);
},
{
closed = 1;
nodes = (
"17 139 LINE",
"8 179 OFFCURVE",
"-8 218 OFFCURVE",
"-11 257 CURVE",
"52 300 LINE",
"54 260 OFFCURVE",
"53 217 OFFCURVE",
"61 177 CURVE"
);
}
);
width = 190;
},
{
layerId = "05DCEB7D-DEF5-48FB-88E5-EF320714A6F1";
name = "Bold";
paths = (
{
closed = 1;
nodes = (
"43 -328 LINE",
"32 -200 OFFCURVE",
"31 -25 OFFCURVE",
"11 94 CURVE",
"88 140 LINE",
"113 33 OFFCURVE",
"122 -158 OFFCURVE",
"134 -286 CURVE"
);
},
{
closed = 1;
nodes = (
"4 136 LINE",
"-1 176 OFFCURVE",
"-13 217 OFFCURVE",
"-12 256 CURVE",
"80 300 LINE",
"79 260 OFFCURVE",
"82 220 OFFCURVE",
"86 179 CURVE"
);
}
);
width = 190;
}
);
unicode = 00A1;
},
{
glyphname = "numbersign";
lastChange = "2013-05-28 12:26:31 +0100";
layers = (
{
layerId = "1E238986-8A4D-4620-9F99-918EE406194F";
name = "Light";
paths = (
{
closed = 1;
nodes = (
"-3 479 LINE",
"15 359 OFFCURVE",
"37 241 OFFCURVE",
"69 130 CURVE",
"12 66 LINE",
"-10 191 OFFCURVE",
"-33 316 OFFCURVE",
"-55 441 CURVE"
);
},
{
closed = 1;
nodes = (
"124 479 LINE",
"139 363 OFFCURVE",
"159 246 OFFCURVE",
"196 130 CURVE",
"139 66 LINE",
"106 189 OFFCURVE",
"82 314 OFFCURVE",
"72 441 CURVE"
);
},
{
closed = 1;
nodes = (
"85 278 OFFCURVE",
"-12 266 OFFCURVE",
"-110 264 CURVE",
"-53 328 LINE",
"40 313 OFFCURVE",
"132 341 OFFCURVE",
"225 382 CURVE",
"183 328 LINE"
);
},
{
closed = 1;
nodes = (
"105 166 OFFCURVE",
"8 150 OFFCURVE",
"-90 154 CURVE",
"-33 218 LINE",
"49 211 OFFCURVE",
"143 234 OFFCURVE",
"245 272 CURVE",
"203 218 LINE"
);
}
);
width = 260;
},
{
layerId = "05DCEB7D-DEF5-48FB-88E5-EF320714A6F1";
name = "Bold";
paths = (
{
closed = 1;
nodes = (
"-3 479 LINE",
"15 359 OFFCURVE",
"37 241 OFFCURVE",
"69 130 CURVE",
"-8 56 LINE",
"-30 181 OFFCURVE",
"-53 306 OFFCURVE",
"-75 431 CURVE"
);
},
{
closed = 1;
nodes = (
"124 479 LINE",
"139 363 OFFCURVE",
"159 246 OFFCURVE",
"196 130 CURVE",
"119 56 LINE",
"86 179 OFFCURVE",
"62 304 OFFCURVE",
"52 431 CURVE"
);
},
{
closed = 1;
nodes = (
"85 288 OFFCURVE",
"-52 266 OFFCURVE",
"-150 264 CURVE",
"-73 348 LINE",
"20 333 OFFCURVE",
"152 371 OFFCURVE",
"245 412 CURVE",
"183 338 LINE"
);
},
{
closed = 1;
nodes = (
"105 156 OFFCURVE",
"-32 130 OFFCURVE",
"-130 134 CURVE",
"-53 218 LINE",
"29 211 OFFCURVE",
"163 244 OFFCURVE",
"265 282 CURVE",
"203 208 LINE"
);
}
);
width = 260;
}
);
unicode = 0023;
},
{
glyphname = "period";
lastChange = "2013-05-31 12:15:09 +0100";
layers = (
{
layerId = "1E238986-8A4D-4620-9F99-918EE406194F";
name = "Light";
paths = (
{
closed = 1;
nodes = (
"96 96 LINE",
"114 16 LINE",
"47 -14 LINE",
"30 66 LINE"
);
}
);
width = 114;
},
{
layerId = "05DCEB7D-DEF5-48FB-88E5-EF320714A6F1";
name = "Bold";
paths = (
{
closed = 1;
nodes = (
"106 116 LINE",
"124 26 LINE",
"41 -25 LINE",
"24 65 LINE"
);
}
);
width = 114;
}
);
unicode = 002E;
},
{
glyphname = "periodcentered";
lastChange = "2013-05-31 12:15:09 +0100";
layers = (
{
layerId = "1E238986-8A4D-4620-9F99-918EE406194F";
name = "Light";
paths = (
{
closed = 1;
nodes = (
"66 376 LINE",
"84 296 LINE",
"17 266 LINE",
"0 346 LINE"
);
}
);
width = 84;
},
{
background = {
components = (
{
name = "i";
transform = "{1, 0, 0, 1, 0, 0}";
}
);
};
layerId = "05DCEB7D-DEF5-48FB-88E5-EF320714A6F1";
name = "Bold";
paths = (
{
closed = 1;
nodes = (
"76 386 LINE",
"94 296 LINE",
"11 245 LINE",
"-6 335 LINE"
);
}
);
width = 84;
}
);
unicode = 00B7;
},
{
glyphname = "question";
lastChange = "2013-05-31 12:15:09 +0100";
layers = (
{
layerId = "1E238986-8A4D-4620-9F99-918EE406194F";
name = "Light";
paths = (
{
closed = 1;
nodes = (
"181 103 LINE",
"218 30 LINE",
"160 -16 LINE",
"124 58 LINE"
);
},
{
closed = 1;
nodes = (
"109 276 LINE",
"116 196 OFFCURVE",
"204 136 OFFCURVE",
"259 233 CURVE",
"242 172 LINE",
"192 92 OFFCURVE",
"84 136 OFFCURVE",
"76 221 CURVE"
);
},
{
closed = 1;
nodes = (
"228 462 LINE",
"190 565 OFFCURVE",
"12 502 OFFCURVE",
"-38 469 CURVE",
"-6 524 LINE",
"34 551 OFFCURVE",
"201 621 OFFCURVE",
"255 510 CURVE"
);
},
{
closed = 1;
nodes = (
"299 408 OFFCURVE",
"104 329 OFFCURVE",
"109 276 CURVE",
"76 221 LINE",
"67 322 OFFCURVE",
"246 421 OFFCURVE",
"228 462 CURVE",
"255 510 LINE"
);
}
);
width = 290;
},
{
layerId = "05DCEB7D-DEF5-48FB-88E5-EF320714A6F1";
name = "Bold";
paths = (
{
closed = 1;
nodes = (
"181 103 LINE",
"218 30 LINE",
"140 -26 LINE",
"104 48 LINE"
);
},
{
closed = 1;
nodes = (
"109 276 LINE",
"116 196 OFFCURVE",
"204 136 OFFCURVE",
"259 233 CURVE",
"222 162 LINE",
"172 82 OFFCURVE",
"54 126 OFFCURVE",
"46 211 CURVE"
);
},
{
closed = 1;
nodes = (
"198 452 LINE",
"160 555 OFFCURVE",
"-18 492 OFFCURVE",
"-68 459 CURVE",
"-6 524 LINE",
"34 551 OFFCURVE",
"201 621 OFFCURVE",
"255 510 CURVE"
);
},
{
closed = 1;
nodes = (
"299 408 OFFCURVE",
"104 329 OFFCURVE",
"109 276 CURVE",
"46 211 LINE",
"37 312 OFFCURVE",
"216 411 OFFCURVE",
"198 452 CURVE",
"255 510 LINE"
);
}
);
width = 290;
}
);
unicode = 003F;
},
{
glyphname = "quotesingle";
lastChange = "2013-05-28 12:26:31 +0100";
layers = (
{
layerId = "1E238986-8A4D-4620-9F99-918EE406194F";
name = "Light";
paths = (
{
closed = 1;
nodes = (
"32 441 LINE",
"20 491 OFFCURVE",
"-7 581 OFFCURVE",
"-15 621 CURVE",
"37 662 LINE",
"46 622 OFFCURVE",
"72 533 OFFCURVE",
"85 484 CURVE"
);
}
);
width = 90;
},
{
layerId = "05DCEB7D-DEF5-48FB-88E5-EF320714A6F1";
name = "Bold";
paths = (
{
closed = 1;
nodes = (
"2 431 LINE",
"-10 481 OFFCURVE",
"-37 571 OFFCURVE",
"-45 611 CURVE",
"37 662 LINE",
"46 622 OFFCURVE",
"72 533 OFFCURVE",
"85 484 CURVE"
);
}
);
width = 90;
}
);
unicode = 0027;
},
{
glyphname = "slash";
lastChange = "2013-05-28 12:26:31 +0100";
layers = (
{
layerId = "1E238986-8A4D-4620-9F99-918EE406194F";
name = "Light";
paths = (
{
closed = 1;
nodes = (
"307 689 LINE",
"192 449 OFFCURVE",
"113 210 OFFCURVE",
"89 -30 CURVE",
"12 -94 LINE",
"48 178 OFFCURVE",
"122 428 OFFCURVE",
"235 651 CURVE"
);
}
);
width = 260;
},
{
layerId = "05DCEB7D-DEF5-48FB-88E5-EF320714A6F1";
name = "Bold";
paths = (
{
closed = 1;
nodes = (
"327 699 LINE",
"212 459 OFFCURVE",
"133 220 OFFCURVE",
"109 -20 CURVE",
"12 -94 LINE",
"48 178 OFFCURVE",
"122 428 OFFCURVE",
"235 651 CURVE"
);
}
);
width = 260;
}
);
unicode = 002F;
},
{
glyphname = "underscore";
lastChange = "2013-05-31 12:15:09 +0100";
layers = (
{
layerId = "1E238986-8A4D-4620-9F99-918EE406194F";
name = "Light";
paths = (
{
closed = 1;
nodes = (
"267 -79 OFFCURVE",
"107 -89 OFFCURVE",
"-68 -124 CURVE",
"9 -60 LINE",
"166 -24 OFFCURVE",
"323 -15 OFFCURVE",
"480 -20 CURVE",
"417 -94 LINE"
);
}
);
width = 440;
},
{
layerId = "05DCEB7D-DEF5-48FB-88E5-EF320714A6F1";
name = "Bold";
paths = (
{
closed = 1;
nodes = (
"267 -79 OFFCURVE",
"107 -89 OFFCURVE",
"-68 -124 CURVE",
"19 -40 LINE",
"176 -4 OFFCURVE",
"333 5 OFFCURVE",
"490 0 CURVE",
"417 -94 LINE"
);
}
);
width = 440;
}
);
unicode = 005F;
},
{
glyphname = "braceleft";
lastChange = "2013-05-28 12:26:31 +0100";
layers = (
{
layerId = "1E238986-8A4D-4620-9F99-918EE406194F";
name = "Light";
paths = (
{
closed = 1;
nodes = (
"182 600 LINE",
"44 478 OFFCURVE",
"165 350 OFFCURVE",
"55 243 CURVE",
"-13 220 LINE",
"96 343 OFFCURVE",
"-26 462 OFFCURVE",
"110 570 CURVE"
);
},
{
closed = 1;
nodes = (
"25 -123 OFFCURVE",
"116 126 OFFCURVE",
"-13 220 CURVE",
"55 243 LINE",
"185 161 OFFCURVE",
"73 -99 OFFCURVE",
"243 -135 CURVE",
"197 -163 LINE"
);
}
);
width = 253;
},
{
layerId = "05DCEB7D-DEF5-48FB-88E5-EF320714A6F1";
name = "Bold";
paths = (
{
closed = 1;
nodes = (
"212 620 LINE",
"74 498 OFFCURVE",
"195 370 OFFCURVE",
"85 263 CURVE",
"-13 220 LINE",
"96 343 OFFCURVE",
"-26 462 OFFCURVE",
"110 570 CURVE"
);
},
{
closed = 1;
nodes = (
"25 -123 OFFCURVE",
"116 126 OFFCURVE",
"-13 220 CURVE",
"85 263 LINE",
"215 181 OFFCURVE",
"103 -79 OFFCURVE",
"273 -115 CURVE",
"197 -163 LINE"
);
}
);
width = 253;
}
);
unicode = 007B;
},
{
glyphname = "braceright";
lastChange = "2013-05-28 12:26:31 +0100";
layers = (
{
layerId = "1E238986-8A4D-4620-9F99-918EE406194F";
name = "Light";
paths = (
{
closed = 1;
nodes = (
"68 600 LINE",
"192 484 OFFCURVE",
"107 369 OFFCURVE",
"231 253 CURVE",
"163 230 LINE",
"37 343 OFFCURVE",
"132 457 OFFCURVE",
"6 570 CURVE"
);
},
{
closed = 1;
nodes = (
"160 -42 OFFCURVE",
"66 99 OFFCURVE",
"163 230 CURVE",
"231 253 LINE",
"127 124 OFFCURVE",
"233 -6 OFFCURVE",
"129 -135 CURVE",
"63 -173 LINE"
);
}
);
width = 260;
},
{
layerId = "05DCEB7D-DEF5-48FB-88E5-EF320714A6F1";
name = "Bold";
paths = (
{
closed = 1;
nodes = (
"68 600 LINE",
"192 484 OFFCURVE",
"107 369 OFFCURVE",
"231 253 CURVE",
"153 210 LINE",
"27 323 OFFCURVE",
"122 437 OFFCURVE",
"-4 550 CURVE"
);
},
{
closed = 1;
nodes = (
"150 -62 OFFCURVE",
"56 79 OFFCURVE",
"153 210 CURVE",
"231 253 LINE",
"127 124 OFFCURVE",
"233 -6 OFFCURVE",
"129 -135 CURVE",
"53 -193 LINE"
);
}
);
width = 260;
}
);
unicode = 007D;
},
{
glyphname = "bracketleft";
lastChange = "2013-05-28 12:26:31 +0100";
layers = (
{
layerId = "1E238986-8A4D-4620-9F99-918EE406194F";
name = "Light";
paths = (
{
closed = 1;
nodes = (
"56 410 OFFCURVE",
"133 93 OFFCURVE",
"133 -125 CURVE",
"77 -163 LINE",
"73 3 OFFCURVE",
"-3 417 OFFCURVE",
"-10 530 CURVE",
"52 550 LINE"
);
},
{
closed = 1;
nodes = (
"126 -108 OFFCURVE",
"179 -120 OFFCURVE",
"259 -93 CURVE",
"214 -143 LINE",
"145 -159 OFFCURVE",
"92 -151 OFFCURVE",
"77 -163 CURVE",
"111 -116 LINE"
);
},
{
closed = 1;
nodes = (
"39 585 OFFCURVE",
"92 573 OFFCURVE",
"172 600 CURVE",
"127 550 LINE",
"58 534 OFFCURVE",
"5 535 OFFCURVE",
"-10 530 CURVE",
"24 577 LINE"
);
}
);
width = 220;
},
{
layerId = "05DCEB7D-DEF5-48FB-88E5-EF320714A6F1";
name = "Bold";
paths = (
{
closed = 1;
nodes = (
"56 410 OFFCURVE",
"133 93 OFFCURVE",
"133 -125 CURVE",
"57 -173 LINE",
"53 -7 OFFCURVE",
"-23 407 OFFCURVE",
"-30 520 CURVE",
"52 550 LINE"
);
},
{
closed = 1;
nodes = (
"126 -108 OFFCURVE",
"179 -120 OFFCURVE",
"259 -93 CURVE",
"194 -153 LINE",
"125 -169 OFFCURVE",
"72 -161 OFFCURVE",
"57 -173 CURVE",
"111 -116 LINE"
);
},
{
closed = 1;
nodes = (
"39 585 OFFCURVE",
"92 573 OFFCURVE",
"172 600 CURVE",
"107 540 LINE",
"38 524 OFFCURVE",
"-15 525 OFFCURVE",
"-30 520 CURVE",
"24 577 LINE"
);
}
);
width = 220;
}
);
unicode = 005B;
},
{
glyphname = "bracketright";
lastChange = "2013-05-28 12:26:31 +0100";
layers = (
{
layerId = "1E238986-8A4D-4620-9F99-918EE406194F";
name = "Light";
paths = (
{
closed = 1;
nodes = (
"176 460 OFFCURVE",
"253 131 OFFCURVE",
"253 -87 CURVE",
"197 -113 LINE",
"193 53 OFFCURVE",
"117 467 OFFCURVE",
"110 580 CURVE",
"172 600 LINE"
);
},
{
closed = 1;
nodes = (
"120 -102 OFFCURVE",
"173 -114 OFFCURVE",
"253 -87 CURVE",
"208 -137 LINE",
"139 -153 OFFCURVE",
"86 -145 OFFCURVE",
"71 -157 CURVE",
"105 -110 LINE"
);
},
{
closed = 1;
nodes = (
"39 585 OFFCURVE",
"92 573 OFFCURVE",
"172 600 CURVE",
"127 550 LINE",
"58 534 OFFCURVE",
"5 542 OFFCURVE",
"-10 530 CURVE",
"24 577 LINE"
);
}
);
width = 270;
},
{
layerId = "05DCEB7D-DEF5-48FB-88E5-EF320714A6F1";
name = "Bold";
paths = (
{
closed = 1;
nodes = (
"176 460 OFFCURVE",
"253 131 OFFCURVE",
"253 -87 CURVE",
"177 -123 LINE",
"173 43 OFFCURVE",
"97 457 OFFCURVE",
"90 570 CURVE",
"172 600 LINE"
);
},
{
closed = 1;
nodes = (
"120 -102 OFFCURVE",
"173 -114 OFFCURVE",
"253 -87 CURVE",
"188 -147 LINE",
"119 -163 OFFCURVE",
"66 -155 OFFCURVE",
"51 -167 CURVE",
"105 -110 LINE"
);
},
{
closed = 1;
nodes = (
"39 585 OFFCURVE",
"92 573 OFFCURVE",
"172 600 CURVE",
"107 540 LINE",
"38 524 OFFCURVE",
"-15 532 OFFCURVE",
"-30 520 CURVE",
"24 577 LINE"
);
}
);
width = 270;
}
);
unicode = 005D;
},
{
glyphname = "parenleft";
lastChange = "2013-05-28 12:26:31 +0100";
layers = (
{
layerId = "1E238986-8A4D-4620-9F99-918EE406194F";
name = "Light";
paths = (
{
closed = 1;
nodes = (
"108 -165 LINE",
"-53 -42 OFFCURVE",
"-26 462 OFFCURVE",
"110 570 CURVE",
"182 600 LINE",
"44 478 OFFCURVE",
"16 -35 OFFCURVE",
"176 -142 CURVE"
);
}
);
width = 200;
},
{
layerId = "05DCEB7D-DEF5-48FB-88E5-EF320714A6F1";
name = "Bold";
paths = (
{
closed = 1;
nodes = (
"88 -165 LINE",
"-73 -42 OFFCURVE",
"-46 462 OFFCURVE",
"90 570 CURVE",
"182 600 LINE",
"44 478 OFFCURVE",
"16 -35 OFFCURVE",
"176 -142 CURVE"
);
}
);
width = 200;
}
);
unicode = 0028;
},
{
glyphname = "parenright";
lastChange = "2013-05-28 12:26:31 +0100";
layers = (
{
layerId = "1E238986-8A4D-4620-9F99-918EE406194F";
name = "Light";
paths = (
{
closed = 1;
nodes = (
"11 -165 LINE",
"210 18 OFFCURVE",
"237 522 OFFCURVE",
"13 570 CURVE",
"85 600 LINE",
"307 538 OFFCURVE",
"279 25 OFFCURVE",
"79 -142 CURVE"
);
}
);
width = 250;
},
{
layerId = "05DCEB7D-DEF5-48FB-88E5-EF320714A6F1";
name = "Bold";
paths = (
{
closed = 1;
nodes = (
"-9 -175 LINE",
"190 8 OFFCURVE",
"217 512 OFFCURVE",
"-7 560 CURVE",
"85 600 LINE",
"307 538 OFFCURVE",
"279 25 OFFCURVE",
"79 -142 CURVE"
);
}
);
width = 250;
}
);
unicode = 0029;
},
{
glyphname = "emdash";
lastChange = "2013-05-28 12:26:31 +0100";
layers = (
{
layerId = "1E238986-8A4D-4620-9F99-918EE406194F";
name = "Light";
paths = (
{
closed = 1;
nodes = (
"212 284 OFFCURVE",
"107 280 OFFCURVE",
"2 267 CURVE",
"79 331 LINE",
"179 348 OFFCURVE",
"280 354 OFFCURVE",
"380 351 CURVE",
"317 277 LINE"
);
}
);
width = 390;
},
{
layerId = "05DCEB7D-DEF5-48FB-88E5-EF320714A6F1";
name = "Bold";
paths = (
{
closed = 1;
nodes = (
"202 264 OFFCURVE",
"97 260 OFFCURVE",
"-8 247 CURVE",
"79 331 LINE",
"179 348 OFFCURVE",
"280 354 OFFCURVE",
"380 351 CURVE",
"307 257 LINE"
);
}
);
width = 390;
}
);
unicode = 2014;
},
{
glyphname = "endash";
lastChange = "2013-05-28 12:26:31 +0100";
layers = (
{
layerId = "1E238986-8A4D-4620-9F99-918EE406194F";
name = "Light";
paths = (
{
closed = 1;
nodes = (
"139 283 OFFCURVE",
"70 279 OFFCURVE",
"2 266 CURVE",
"79 330 LINE",
"143 347 OFFCURVE",
"206 354 OFFCURVE",
"270 350 CURVE",
"207 276 LINE"
);
}
);
width = 240;
},
{
layerId = "05DCEB7D-DEF5-48FB-88E5-EF320714A6F1";
name = "Bold";
paths = (
{
closed = 1;
nodes = (
"129 263 OFFCURVE",
"60 259 OFFCURVE",
"-8 246 CURVE",
"79 330 LINE",
"143 347 OFFCURVE",
"206 354 OFFCURVE",
"270 350 CURVE",
"197 256 LINE"
);
}
);
width = 240;
}
);
unicode = 2013;
},
{
glyphname = "hyphen";
lastChange = "2013-05-28 12:26:31 +0100";
layers = (
{
layerId = "1E238986-8A4D-4620-9F99-918EE406194F";
name = "Light";
paths = (
{
closed = 1;
nodes = (
"170 284 OFFCURVE",
"105 280 OFFCURVE",
"0 267 CURVE",
"77 331 LINE",
"177 348 OFFCURVE",
"238 354 OFFCURVE",
"338 351 CURVE",
"275 277 LINE"
);
}
);
width = 348;
},
{
layerId = "05DCEB7D-DEF5-48FB-88E5-EF320714A6F1";
name = "Bold";
paths = (
{
closed = 1;
nodes = (
"170 264 OFFCURVE",
"105 260 OFFCURVE",
"0 247 CURVE",
"77 331 LINE",
"177 348 OFFCURVE",
"238 354 OFFCURVE",
"338 351 CURVE",
"275 257 LINE"
);
}
);
width = 348;
}
);
unicode = 002D;
},
{
glyphname = "guilsinglleft";
lastChange = "2013-05-28 12:26:31 +0100";
layers = (
{
layerId = "1E238986-8A4D-4620-9F99-918EE406194F";
name = "Light";
paths = (
{
closed = 1;
nodes = (
"59 264 LINE",
"152 224 OFFCURVE",
"213 172 OFFCURVE",
"227 114 CURVE",
"160 84 LINE",
"159 154 OFFCURVE",
"88 219 OFFCURVE",
"-7 252 CURVE"
);
},
{
closed = 1;
nodes = (
"229 414 LINE",
"194 334 OFFCURVE",
"138 299 OFFCURVE",
"60 264 CURVE",
"-7 252 LINE",
"71 294 OFFCURVE",
"132 334 OFFCURVE",
"163 384 CURVE"
);
}
);
width = 230;
},
{
layerId = "05DCEB7D-DEF5-48FB-88E5-EF320714A6F1";
name = "Bold";
paths = (
{
closed = 1;
nodes = (
"59 264 LINE",
"152 224 OFFCURVE",
"213 172 OFFCURVE",
"227 114 CURVE",
"143 82 LINE",
"142 152 OFFCURVE",
"71 217 OFFCURVE",
"-24 250 CURVE"
);
},
{
closed = 1;
nodes = (
"229 414 LINE",
"194 334 OFFCURVE",
"138 299 OFFCURVE",
"60 264 CURVE",
"-24 250 LINE",
"54 292 OFFCURVE",
"115 332 OFFCURVE",
"146 382 CURVE"
);
}
);
width = 230;
}
);
unicode = 2039;
},
{
glyphname = "guilsinglright";
lastChange = "2013-05-28 12:26:31 +0100";
layers = (
{
layerId = "1E238986-8A4D-4620-9F99-918EE406194F";
name = "Light";
paths = (
{
closed = 1;
nodes = (
"229 264 LINE",
"150 222 OFFCURVE",
"96 172 OFFCURVE",
"67 114 CURVE",
"0 84 LINE",
"27 155 OFFCURVE",
"80 212 OFFCURVE",
"163 252 CURVE"
);
},
{
closed = 1;
nodes = (
"69 414 LINE",
"91 346 OFFCURVE",
"148 298 OFFCURVE",
"230 264 CURVE",
"163 252 LINE",
"73 277 OFFCURVE",
"17 320 OFFCURVE",
"3 384 CURVE"
);
}
);
width = 230;
},
{
layerId = "05DCEB7D-DEF5-48FB-88E5-EF320714A6F1";
name = "Bold";
paths = (
{
closed = 1;
nodes = (
"239 274 LINE",
"160 232 OFFCURVE",
"106 182 OFFCURVE",
"77 124 CURVE",
"0 84 LINE",
"27 155 OFFCURVE",
"80 212 OFFCURVE",
"163 252 CURVE"
);
},
{
closed = 1;
nodes = (
"79 424 LINE",
"101 356 OFFCURVE",
"158 308 OFFCURVE",
"240 274 CURVE",
"163 252 LINE",
"73 277 OFFCURVE",
"17 320 OFFCURVE",
"3 384 CURVE"
);
}
);
width = 230;
}
);
unicode = 203A;
},
{
glyphname = "quoteleft";
lastChange = "2013-05-28 12:26:31 +0100";
layers = (
{
layerId = "1E238986-8A4D-4620-9F99-918EE406194F";
name = "Light";
paths = (
{
closed = 1;
nodes = (
"86 606 LINE",
"64 534 OFFCURVE",
"67 476 OFFCURVE",
"104 436 CURVE",
"37 406 LINE",
"-3 449 OFFCURVE",
"-8 506 OFFCURVE",
"20 576 CURVE"
);
}
);
width = 100;
},
{
layerId = "05DCEB7D-DEF5-48FB-88E5-EF320714A6F1";
name = "Bold";
paths = (
{
closed = 1;
nodes = (
"86 606 LINE",
"64 534 OFFCURVE",
"67 476 OFFCURVE",
"104 436 CURVE",
"25 391 LINE",
"-15 434 OFFCURVE",
"-20 491 OFFCURVE",
"8 561 CURVE"
);
}
);
width = 100;
}
);
unicode = 2018;
},
{
glyphname = "asciicircum";
lastChange = "2013-05-28 12:26:31 +0100";
layers = (
{
layerId = "1E238986-8A4D-4620-9F99-918EE406194F";
name = "Light";
paths = (
{
closed = 1;
nodes = (
"223 656 LINE",
"225 503 OFFCURVE",
"289 413 OFFCURVE",
"414 304 CURVE",
"347 274 LINE",
"227 389 OFFCURVE",
"166 480 OFFCURVE",
"157 626 CURVE"
);
},
{
closed = 1;
nodes = (
"223 656 LINE",
"229 530 OFFCURVE",
"191 401 OFFCURVE",
"67 264 CURVE",
"0 252 LINE",
"92 375 OFFCURVE",
"154 499 OFFCURVE",
"157 626 CURVE"
);
}
);
width = 420;
},
{
layerId = "05DCEB7D-DEF5-48FB-88E5-EF320714A6F1";
name = "Bold";
paths = (
{
closed = 1;
nodes = (
"223 656 LINE",
"225 503 OFFCURVE",
"289 413 OFFCURVE",
"414 304 CURVE",
"328 244 LINE",
"208 359 OFFCURVE",
"147 450 OFFCURVE",
"138 596 CURVE"
);
},
{
closed = 1;
nodes = (
"223 656 LINE",
"229 530 OFFCURVE",
"191 401 OFFCURVE",
"67 264 CURVE",
"-19 222 LINE",
"73 345 OFFCURVE",
"135 469 OFFCURVE",
"138 596 CURVE"
);
}
);
width = 420;
}
);
unicode = 005E;
},
{
glyphname = "acute";
lastChange = "2013-05-31 12:15:09 +0100";
layers = (
{
anchors = (
{
name = "_top";
position = "{36, 370}";
}
);
layerId = "1E238986-8A4D-4620-9F99-918EE406194F";
name = "Light";
paths = (
{
closed = 1;
nodes = (
"125 557 LINE",
"121 518 OFFCURVE",
"97 452 OFFCURVE",
"53 413 CURVE",
"0 396 LINE",
"31 439 OFFCURVE",
"52 483 OFFCURVE",
"63 526 CURVE"
);
}
);
width = 125;
},
{
anchors = (
{
name = "_top";
position = "{60, 370}";
}
);
layerId = "05DCEB7D-DEF5-48FB-88E5-EF320714A6F1";
name = "Bold";
paths = (
{
closed = 1;
nodes = (
"155 557 LINE",
"151 518 OFFCURVE",
"127 452 OFFCURVE",
"83 413 CURVE",
"0 396 LINE",
"31 439 OFFCURVE",
"52 483 OFFCURVE",
"63 526 CURVE"
);
}
);
width = 155;
}
);
unicode = 00B4;
},
{
glyphname = "breve";
lastChange = "2013-05-31 12:15:09 +0100";
layers = (
{
anchors = (
{
name = "_top";
position = "{106, 370}";
}
);
layerId = "1E238986-8A4D-4620-9F99-918EE406194F";
name = "Light";
paths = (
{
closed = 1;
nodes = (
"72 557 LINE",
"75 508 OFFCURVE",
"87 448 OFFCURVE",
"140 439 CURVE",
"76 396 LINE",
"28 409 OFFCURVE",
"9 473 OFFCURVE",
"0 526 CURVE"
);
},
{
closed = 1;
nodes = (
"212 557 LINE",
"218 518 OFFCURVE",
"194 478 OFFCURVE",
"140 439 CURVE",
"76 396 LINE",
"128 439 OFFCURVE",
"149 483 OFFCURVE",
"150 526 CURVE"
);
}
);
width = 213;
},
{
anchors = (
{
name = "_top";
position = "{116, 370}";
}
);
layerId = "05DCEB7D-DEF5-48FB-88E5-EF320714A6F1";
name = "Bold";
paths = (
{
closed = 1;
nodes = (
"82 557 LINE",
"85 508 OFFCURVE",
"107 448 OFFCURVE",
"160 439 CURVE",
"76 396 LINE",
"28 409 OFFCURVE",
"9 473 OFFCURVE",
"0 526 CURVE"
);
},
{
closed = 1;
nodes = (
"232 557 LINE",
"238 518 OFFCURVE",
"214 478 OFFCURVE",
"160 439 CURVE",
"76 396 LINE",
"128 439 OFFCURVE",
"155 483 OFFCURVE",
"156 526 CURVE"
);
}
);
width = 233;
}
);
unicode = 02D8;
},
{
glyphname = "caron";
lastChange = "2013-05-31 12:15:09 +0100";
layers = (
{
anchors = (
{
name = "_top";
position = "{81, 370}";
}
);
layerId = "1E238986-8A4D-4620-9F99-918EE406194F";
name = "Light";
paths = (
{
closed = 1;
nodes = (
"52 557 LINE",
"71 518 OFFCURVE",
"91 478 OFFCURVE",
"110 439 CURVE",
"57 396 LINE",
"38 436 OFFCURVE",
"19 476 OFFCURVE",
"0 516 CURVE"
);
},
{
closed = 1;
nodes = (
"161 557 LINE",
"134 518 OFFCURVE",
"116 478 OFFCURVE",
"109 439 CURVE",
"56 396 LINE",
"64 436 OFFCURVE",
"81 476 OFFCURVE",
"109 516 CURVE"
);
}
);
width = 161;
},
{
anchors = (
{
name = "_top";
position = "{111, 370}";
}
);
layerId = "05DCEB7D-DEF5-48FB-88E5-EF320714A6F1";
name = "Bold";
paths = (
{
closed = 1;
nodes = (
"82 557 LINE",
"101 518 OFFCURVE",
"121 478 OFFCURVE",
"140 439 CURVE",
"57 396 LINE",
"38 436 OFFCURVE",
"19 476 OFFCURVE",
"0 516 CURVE"
);
},
{
closed = 1;
nodes = (
"221 557 LINE",
"184 518 OFFCURVE",
"146 478 OFFCURVE",
"139 439 CURVE",
"56 396 LINE",
"64 436 OFFCURVE",
"101 476 OFFCURVE",
"139 516 CURVE"
);
}
);
width = 221;
}
);
unicode = 02C7;
},
{
glyphname = "cedilla";
lastChange = "2013-05-28 12:26:31 +0100";
layers = (
{
anchors = (
{
name = "_bottom";
position = "{41, 0}";
}
);
layerId = "1E238986-8A4D-4620-9F99-918EE406194F";
name = "Light";
paths = (
{
closed = 1;
nodes = (
"71 -169 LINE",
"134 -112 OFFCURVE",
"90 -59 OFFCURVE",
"40 -67 CURVE",
"92 -29 LINE",
"148 -39 OFFCURVE",
"171 -101 OFFCURVE",
"120 -151 CURVE"
);
},
{
closed = 1;
nodes = (
"115 31 LINE",
"92 -29 LINE",
"40 -67 LINE",
"63 0 LINE"
);
}
);
width = 125;
},
{
anchors = (
{
name = "_bottom";
position = "{57, 0}";
}
);
layerId = "05DCEB7D-DEF5-48FB-88E5-EF320714A6F1";
name = "Bold";
paths = (
{
closed = 1;
nodes = (
"51 -179 LINE",
"114 -122 OFFCURVE",
"70 -69 OFFCURVE",
"20 -77 CURVE",
"92 -29 LINE",
"148 -39 OFFCURVE",
"171 -101 OFFCURVE",
"120 -151 CURVE"
);
},
{
closed = 1;
nodes = (
"115 31 LINE",
"92 -29 LINE",
"20 -77 LINE",
"43 -10 LINE"
);
}
);
width = 125;
}
);
unicode = 00B8;
},
{
glyphname = "circumflex";
lastChange = "2013-05-31 12:15:09 +0100";
layers = (
{
anchors = (
{
name = "_top";
position = "{75, 370}";
}
);
layerId = "1E238986-8A4D-4620-9F99-918EE406194F";
name = "Light";
paths = (
{
closed = 1;
nodes = (
"105 557 LINE",
"101 518 OFFCURVE",
"83 478 OFFCURVE",
"53 439 CURVE",
"0 396 LINE",
"31 436 OFFCURVE",
"48 476 OFFCURVE",
"53 516 CURVE"
);
},
{
closed = 1;
nodes = (
"104 557 LINE",
"162 439 LINE",
"109 396 LINE",
"52 516 LINE"
);
}
);
width = 162;
},
{
anchors = (
{
name = "_top";
position = "{117, 370}";
}
);
background = {
anchors = (
{
name = "_top";
position = "{60, 370}";
}
);
paths = (
{
closed = 1;
nodes = (
"52 483 OFFCURVE",
"31 439 OFFCURVE",
"0 396 CURVE",
"83 413 LINE",
"127 452 OFFCURVE",
"151 518 OFFCURVE",
"155 557 CURVE",
"63 526 LINE"
);
}
);
};
layerId = "05DCEB7D-DEF5-48FB-88E5-EF320714A6F1";
name = "Bold";
paths = (
{
closed = 1;
nodes = (
"165 557 LINE",
"161 518 OFFCURVE",
"128 467 OFFCURVE",
"92 428 CURVE",
"0 396 LINE",
"61 445 OFFCURVE",
"73 476 OFFCURVE",
"83 516 CURVE"
);
},
{
closed = 1;
nodes = (
"164 557 LINE",
"222 439 LINE",
"139 396 LINE",
"82 516 LINE"
);
}
);
width = 222;
}
);
unicode = 02C6;
},
{
glyphname = "dieresis";
lastChange = "2013-05-31 12:15:09 +0100";
layers = (
{
anchors = (
{
name = "_top";
position = "{80, 370}";
}
);
layerId = "1E238986-8A4D-4620-9F99-918EE406194F";
name = "Light";
paths = (
{
closed = 1;
nodes = (
"52 557 LINE",
"61 517 OFFCURVE",
"67 478 OFFCURVE",
"70 439 CURVE",
"17 396 LINE",
"15 436 OFFCURVE",
"8 476 OFFCURVE",
"0 516 CURVE"
);
},
{
closed = 1;
nodes = (
"141 557 LINE",
"150 517 OFFCURVE",
"156 478 OFFCURVE",
"159 439 CURVE",
"106 396 LINE",
"104 436 OFFCURVE",
"97 476 OFFCURVE",
"89 516 CURVE"
);
}
);
width = 159;
},
{
anchors = (
{
name = "_top";
position = "{131, 370}";
}
);
background = {
anchors = (
{
name = "_top";
position = "{-40, 370}";
}
);
paths = (
{
closed = 1;
nodes = (
"-48 483 OFFCURVE",
"-69 439 OFFCURVE",
"-100 396 CURVE",
"-17 413 LINE",
"27 452 OFFCURVE",
"51 518 OFFCURVE",
"55 557 CURVE",
"-37 526 LINE"
);
}
);
};
layerId = "05DCEB7D-DEF5-48FB-88E5-EF320714A6F1";
name = "Bold";
paths = (
{
closed = 1;
nodes = (
"83 557 LINE",
"92 517 OFFCURVE",
"98 478 OFFCURVE",
"101 439 CURVE",
"17 397 LINE",
"15 437 OFFCURVE",
"8 477 OFFCURVE",
"0 517 CURVE"
);
},
{
closed = 1;
nodes = (
"213 557 LINE",
"222 517 OFFCURVE",
"228 478 OFFCURVE",
"231 439 CURVE",
"147 397 LINE",
"145 437 OFFCURVE",
"138 477 OFFCURVE",
"130 517 CURVE"
);
}
);
width = 221;
}
);
unicode = 00A8;
},
{
glyphname = "dotaccent";
lastChange = "2013-05-31 12:15:09 +0100";
layers = (
{
anchors = (
{
name = "_top";
position = "{35, 370}";
}
);
layerId = "1E238986-8A4D-4620-9F99-918EE406194F";
name = "Light";
paths = (
{
closed = 1;
nodes = (
"52 557 LINE",
"61 517 OFFCURVE",
"67 478 OFFCURVE",
"70 439 CURVE",
"17 396 LINE",
"15 436 OFFCURVE",
"8 476 OFFCURVE",
"0 516 CURVE"
);
}
);
width = 70;
},
{
anchors = (
{
name = "_top";
position = "{35, 370}";
}
);
layerId = "05DCEB7D-DEF5-48FB-88E5-EF320714A6F1";
name = "Bold";
paths = (
{
closed = 1;
nodes = (
"83 557 LINE",
"92 517 OFFCURVE",
"98 478 OFFCURVE",
"101 439 CURVE",
"17 397 LINE",
"15 437 OFFCURVE",
"8 477 OFFCURVE",
"0 517 CURVE"
);
}
);
width = 101;
}
);
unicode = 02D9;
},
{
glyphname = "grave";
lastChange = "2013-05-31 12:15:09 +0100";
layers = (
{
anchors = (
{
name = "_top";
position = "{70, 370}";
}
);
layerId = "1E238986-8A4D-4620-9F99-918EE406194F";
name = "Light";
paths = (
{
closed = 1;
nodes = (
"72 557 LINE",
"75 508 OFFCURVE",
"97 468 OFFCURVE",
"140 439 CURVE",
"87 396 LINE",
"38 429 OFFCURVE",
"9 473 OFFCURVE",
"0 526 CURVE"
);
}
);
width = 140;
},
{
anchors = (
{
name = "_top";
position = "{119, 370}";
}
);
background = {
paths = (
{
closed = 1;
nodes = (
"-3 477 OFFCURVE",
"4 437 OFFCURVE",
"6 397 CURVE",
"90 439 LINE",
"87 478 OFFCURVE",
"81 517 OFFCURVE",
"72 557 CURVE",
"-11 517 LINE"
);
}
);
};
layerId = "05DCEB7D-DEF5-48FB-88E5-EF320714A6F1";
name = "Bold";
paths = (
{
closed = 1;
nodes = (
"94 557 LINE",
"97 508 OFFCURVE",
"119 468 OFFCURVE",
"162 439 CURVE",
"87 388 LINE",
"38 421 OFFCURVE",
"9 465 OFFCURVE",
"0 518 CURVE"
);
}
);
width = 162;
}
);
unicode = 0060;
},
{
glyphname = "hungarumlaut";
lastChange = "2013-05-31 12:15:09 +0100";
layers = (
{
anchors = (
{
name = "_top";
position = "{86, 370}";
}
);
layerId = "1E238986-8A4D-4620-9F99-918EE406194F";
name = "Light";
paths = (
{
closed = 1;
nodes = (
"125 557 LINE",
"121 518 OFFCURVE",
"97 478 OFFCURVE",
"53 439 CURVE",
"0 396 LINE",
"31 439 OFFCURVE",
"52 483 OFFCURVE",
"63 526 CURVE"
);
},
{
closed = 1;
nodes = (
"225 557 LINE",
"221 518 OFFCURVE",
"197 478 OFFCURVE",
"143 439 CURVE",
"80 396 LINE",
"121 439 OFFCURVE",
"152 483 OFFCURVE",
"163 526 CURVE"
);
}
);
width = 225;
},
{
anchors = (
{
name = "_top";
position = "{86, 370}";
}
);
layerId = "05DCEB7D-DEF5-48FB-88E5-EF320714A6F1";
name = "Bold";
paths = (
{
closed = 1;
nodes = (
"125 557 LINE",
"121 518 OFFCURVE",
"97 478 OFFCURVE",
"53 439 CURVE",
"-22 396 LINE",
"9 439 OFFCURVE",
"30 483 OFFCURVE",
"41 526 CURVE"
);
},
{
closed = 1;
nodes = (
"245 557 LINE",
"241 518 OFFCURVE",
"217 478 OFFCURVE",
"163 439 CURVE",
"80 396 LINE",
"121 439 OFFCURVE",
"152 483 OFFCURVE",
"163 526 CURVE"
);
}
);
width = 225;
}
);
unicode = 02DD;
},
{
glyphname = "macron";
lastChange = "2013-05-31 12:15:09 +0100";
layers = (
{
anchors = (
{
name = "_top";
position = "{91, 370}";
}
);
layerId = "1E238986-8A4D-4620-9F99-918EE406194F";
name = "Light";
paths = (
{
closed = 1;
nodes = (
"65 499 LINE",
"120 499 OFFCURVE",
"175 500 OFFCURVE",
"230 500 CURVE",
"181 443 LINE",
"122 443 OFFCURVE",
"62 442 OFFCURVE",
"3 442 CURVE"
);
}
);
width = 230;
},
{
anchors = (
{
name = "_top";
position = "{120, 370}";
}
);
layerId = "05DCEB7D-DEF5-48FB-88E5-EF320714A6F1";
name = "Bold";
paths = (
{
closed = 1;
nodes = (
"80 501 LINE",
"131 495 OFFCURVE",
"226 496 OFFCURVE",
"285 502 CURVE",
"198 443 LINE",
"139 431 OFFCURVE",
"39 430 OFFCURVE",
"-20 442 CURVE"
);
}
);
width = 265;
}
);
unicode = 00AF;
},
{
glyphname = "ogonek";
lastChange = "2013-05-31 12:15:09 +0100";
layers = (
{
anchors = (
{
name = "_ogonek";
position = "{113, 10}";
}
);
layerId = "1E238986-8A4D-4620-9F99-918EE406194F";
name = "Light";
paths = (
{
closed = 1;
nodes = (
"75 3 LINE",
"22 -57 OFFCURVE",
"53 -127 OFFCURVE",
"113 -159 CURVE",
"64 -197 LINE",
"-2 -147 OFFCURVE",
"-19 -71 OFFCURVE",
"23 -35 CURVE"
);
}
);
width = 113;
},
{
anchors = (
{
name = "_ogonek";
position = "{133, 10}";
}
);
layerId = "05DCEB7D-DEF5-48FB-88E5-EF320714A6F1";
name = "Bold";
paths = (
{
closed = 1;
nodes = (
"95 3 LINE",
"42 -57 OFFCURVE",
"73 -127 OFFCURVE",
"133 -159 CURVE",
"64 -197 LINE",
"-2 -147 OFFCURVE",
"-19 -71 OFFCURVE",
"23 -35 CURVE"
);
}
);
width = 133;
}
);
unicode = 02DB;
},
{
glyphname = "ring";
lastChange = "2013-05-31 12:15:09 +0100";
layers = (
{
anchors = (
{
name = "_top";
position = "{69, 370}";
}
);
layerId = "1E238986-8A4D-4620-9F99-918EE406194F";
name = "Light";
paths = (
{
closed = 1;
nodes = (
"75 597 LINE",
"22 537 OFFCURVE",
"53 467 OFFCURVE",
"113 435 CURVE",
"64 397 LINE",
"-2 447 OFFCURVE",
"-19 523 OFFCURVE",
"23 559 CURVE"
);
},
{
closed = 1;
nodes = (
"64 397 LINE",
"137 457 OFFCURVE",
"73 567 OFFCURVE",
"23 559 CURVE",
"75 597 LINE",
"131 587 OFFCURVE",
"175 471 OFFCURVE",
"113 435 CURVE"
);
}
);
width = 143;
},
{
anchors = (
{
name = "_top";
position = "{112, 370}";
}
);
background = {
paths = (
{
closed = 1;
nodes = (
"23 476 OFFCURVE",
"30 436 OFFCURVE",
"32 396 CURVE",
"116 438 LINE",
"113 477 OFFCURVE",
"107 516 OFFCURVE",
"98 556 CURVE",
"15 516 LINE"
);
}
);
};
layerId = "05DCEB7D-DEF5-48FB-88E5-EF320714A6F1";
name = "Bold";
paths = (
{
closed = 1;
nodes = (
"100 597 LINE",
"40 532 OFFCURVE",
"71 462 OFFCURVE",
"138 435 CURVE",
"64 387 LINE",
"-2 437 OFFCURVE",
"-19 513 OFFCURVE",
"23 549 CURVE"
);
},
{
closed = 1;
nodes = (
"64 387 LINE",
"144 449 OFFCURVE",
"80 559 OFFCURVE",
"23 549 CURVE",
"100 597 LINE",
"156 587 OFFCURVE",
"200 471 OFFCURVE",
"138 435 CURVE"
);
}
);
width = 168;
}
);
unicode = 02DA;
},
{
glyphname = "tilde";
lastChange = "2013-05-31 12:15:09 +0100";
layers = (
{
anchors = (
{
name = "_top";
position = "{105, 370}";
}
);
layerId = "1E238986-8A4D-4620-9F99-918EE406194F";
name = "Light";
paths = (
{
closed = 1;
nodes = (
"52 485 LINE",
"138 553 OFFCURVE",
"136 412 OFFCURVE",
"222 490 CURVE",
"180 440 LINE",
"90 363 OFFCURVE",
"90 505 OFFCURVE",
"0 438 CURVE"
);
}
);
width = 220;
},
{
anchors = (
{
name = "_top";
position = "{105, 370}";
}
);
background = {
paths = (
{
closed = 1;
nodes = (
"127 521 OFFCURVE",
"134 481 OFFCURVE",
"136 441 CURVE",
"220 483 LINE",
"217 522 OFFCURVE",
"211 561 OFFCURVE",
"202 601 CURVE",
"119 561 LINE"
);
},
{
closed = 1;
nodes = (
"-45 521 OFFCURVE",
"-38 481 OFFCURVE",
"-36 441 CURVE",
"48 483 LINE",
"45 522 OFFCURVE",
"39 561 OFFCURVE",
"30 601 CURVE",
"-53 561 LINE"
);
}
);
};
layerId = "05DCEB7D-DEF5-48FB-88E5-EF320714A6F1";
name = "Bold";
paths = (
{
closed = 1;
nodes = (
"22 485 LINE",
"103 541 OFFCURVE",
"167 434 OFFCURVE",
"242 490 CURVE",
"176 431 LINE",
"97 376 OFFCURVE",
"31 484 OFFCURVE",
"-54 429 CURVE"
);
}
);
width = 220;
}
);
unicode = 02DC;
},
{
glyphname = "acute.case";
lastChange = "2013-05-31 12:15:09 +0100";
layers = (
{
anchors = (
{
name = "_top";
position = "{36, 370}";
}
);
layerId = "1E238986-8A4D-4620-9F99-918EE406194F";
name = "Light";
paths = (
{
closed = 1;
nodes = (
"125 557 LINE",
"121 518 OFFCURVE",
"97 452 OFFCURVE",
"53 413 CURVE",
"0 396 LINE",
"31 439 OFFCURVE",
"52 483 OFFCURVE",
"63 526 CURVE"
);
}
);
width = 125;
},
{
anchors = (
{
name = "_top";
position = "{52, 370}";
}
);
layerId = "05DCEB7D-DEF5-48FB-88E5-EF320714A6F1";
name = "Bold";
paths = (
{
closed = 1;
nodes = (
"155 557 LINE",
"151 518 OFFCURVE",
"127 452 OFFCURVE",
"83 413 CURVE",
"0 396 LINE",
"31 439 OFFCURVE",
"52 483 OFFCURVE",
"63 526 CURVE"
);
}
);
width = 155;
}
);
},
{
glyphname = "breve.case";
lastChange = "2013-05-31 12:15:09 +0100";
layers = (
{
anchors = (
{
name = "_top";
position = "{106, 370}";
}
);
layerId = "1E238986-8A4D-4620-9F99-918EE406194F";
name = "Light";
paths = (
{
closed = 1;
nodes = (
"72 557 LINE",
"75 508 OFFCURVE",
"87 448 OFFCURVE",
"140 439 CURVE",
"76 396 LINE",
"28 409 OFFCURVE",
"9 473 OFFCURVE",
"0 526 CURVE"
);
},
{
closed = 1;
nodes = (
"212 557 LINE",
"218 518 OFFCURVE",
"194 478 OFFCURVE",
"140 439 CURVE",
"76 396 LINE",
"128 439 OFFCURVE",
"149 483 OFFCURVE",
"150 526 CURVE"
);
}
);
width = 213;
},
{
anchors = (
{
name = "_top";
position = "{114, 370}";
}
);
layerId = "05DCEB7D-DEF5-48FB-88E5-EF320714A6F1";
name = "Bold";
paths = (
{
closed = 1;
nodes = (
"82 557 LINE",
"85 508 OFFCURVE",
"107 448 OFFCURVE",
"160 439 CURVE",
"76 396 LINE",
"28 409 OFFCURVE",
"9 473 OFFCURVE",
"0 526 CURVE"
);
},
{
closed = 1;
nodes = (
"232 557 LINE",
"238 518 OFFCURVE",
"214 478 OFFCURVE",
"160 439 CURVE",
"76 396 LINE",
"128 439 OFFCURVE",
"155 483 OFFCURVE",
"156 526 CURVE"
);
}
);
width = 233;
}
);
},
{
glyphname = "caron.case";
lastChange = "2013-05-31 12:15:09 +0100";
layers = (
{
anchors = (
{
name = "_top";
position = "{81, 370}";
}
);
layerId = "1E238986-8A4D-4620-9F99-918EE406194F";
name = "Light";
paths = (
{
closed = 1;
nodes = (
"52 557 LINE",
"71 518 OFFCURVE",
"91 478 OFFCURVE",
"110 439 CURVE",
"57 396 LINE",
"38 436 OFFCURVE",
"19 476 OFFCURVE",
"0 516 CURVE"
);
},
{
closed = 1;
nodes = (
"161 557 LINE",
"134 518 OFFCURVE",
"116 478 OFFCURVE",
"109 439 CURVE",
"56 396 LINE",
"64 436 OFFCURVE",
"81 476 OFFCURVE",
"109 516 CURVE"
);
}
);
width = 161;
},
{
anchors = (
{
name = "_top";
position = "{111, 370}";
}
);
layerId = "05DCEB7D-DEF5-48FB-88E5-EF320714A6F1";
name = "Bold";
paths = (
{
closed = 1;
nodes = (
"82 557 LINE",
"101 518 OFFCURVE",
"121 478 OFFCURVE",
"140 439 CURVE",
"57 396 LINE",
"38 436 OFFCURVE",
"19 476 OFFCURVE",
"0 516 CURVE"
);
},
{
closed = 1;
nodes = (
"221 557 LINE",
"184 518 OFFCURVE",
"146 478 OFFCURVE",
"139 439 CURVE",
"56 396 LINE",
"64 436 OFFCURVE",
"101 476 OFFCURVE",
"139 516 CURVE"
);
}
);
width = 221;
}
);
},
{
glyphname = "cedilla.case";
lastChange = "2013-05-28 12:26:31 +0100";
layers = (
{
anchors = (
{
name = "_bottom";
position = "{41, 0}";
}
);
layerId = "1E238986-8A4D-4620-9F99-918EE406194F";
name = "Light";
paths = (
{
closed = 1;
nodes = (
"71 -169 LINE",
"134 -112 OFFCURVE",
"90 -59 OFFCURVE",
"40 -67 CURVE",
"92 -29 LINE",
"148 -39 OFFCURVE",
"171 -101 OFFCURVE",
"120 -151 CURVE"
);
},
{
closed = 1;
nodes = (
"115 31 LINE",
"92 -29 LINE",
"40 -67 LINE",
"63 0 LINE"
);
}
);
width = 125;
},
{
anchors = (
{
name = "_bottom";
position = "{41, 0}";
}
);
layerId = "05DCEB7D-DEF5-48FB-88E5-EF320714A6F1";
name = "Bold";
paths = (
{
closed = 1;
nodes = (
"51 -179 LINE",
"114 -122 OFFCURVE",
"70 -69 OFFCURVE",
"20 -77 CURVE",
"92 -29 LINE",
"148 -39 OFFCURVE",
"171 -101 OFFCURVE",
"120 -151 CURVE"
);
},
{
closed = 1;
nodes = (
"115 31 LINE",
"92 -29 LINE",
"20 -77 LINE",
"43 -10 LINE"
);
}
);
width = 125;
}
);
},
{
glyphname = "circumflex.case";
lastChange = "2013-05-31 12:15:09 +0100";
layers = (
{
anchors = (
{
name = "_top";
position = "{75, 370}";
}
);
layerId = "1E238986-8A4D-4620-9F99-918EE406194F";
name = "Light";
paths = (
{
closed = 1;
nodes = (
"105 557 LINE",
"101 518 OFFCURVE",
"83 478 OFFCURVE",
"53 439 CURVE",
"0 396 LINE",
"31 436 OFFCURVE",
"48 476 OFFCURVE",
"53 516 CURVE"
);
},
{
closed = 1;
nodes = (
"104 557 LINE",
"162 439 LINE",
"109 396 LINE",
"52 516 LINE"
);
}
);
width = 162;
},
{
anchors = (
{
name = "_top";
position = "{75, 370}";
}
);
layerId = "05DCEB7D-DEF5-48FB-88E5-EF320714A6F1";
name = "Bold";
paths = (
{
closed = 1;
nodes = (
"130 557 LINE",
"126 518 OFFCURVE",
"93 467 OFFCURVE",
"57 428 CURVE",
"-35 396 LINE",
"26 445 OFFCURVE",
"38 476 OFFCURVE",
"48 516 CURVE"
);
},
{
closed = 1;
nodes = (
"129 557 LINE",
"187 439 LINE",
"104 396 LINE",
"47 516 LINE"
);
}
);
width = 162;
}
);
},
{
glyphname = "dieresis.case";
lastChange = "2013-05-31 12:15:09 +0100";
layers = (
{
anchors = (
{
name = "_top";
position = "{80, 370}";
}
);
layerId = "1E238986-8A4D-4620-9F99-918EE406194F";
name = "Light";
paths = (
{
closed = 1;
nodes = (
"52 557 LINE",
"61 517 OFFCURVE",
"67 478 OFFCURVE",
"70 439 CURVE",
"17 396 LINE",
"15 436 OFFCURVE",
"8 476 OFFCURVE",
"0 516 CURVE"
);
},
{
closed = 1;
nodes = (
"141 557 LINE",
"150 517 OFFCURVE",
"156 478 OFFCURVE",
"159 439 CURVE",
"106 396 LINE",
"104 436 OFFCURVE",
"97 476 OFFCURVE",
"89 516 CURVE"
);
}
);
width = 159;
},
{
anchors = (
{
name = "_top";
position = "{61, 370}";
}
);
layerId = "05DCEB7D-DEF5-48FB-88E5-EF320714A6F1";
name = "Bold";
paths = (
{
closed = 1;
nodes = (
"53 557 LINE",
"62 517 OFFCURVE",
"68 478 OFFCURVE",
"71 439 CURVE",
"-13 397 LINE",
"-15 437 OFFCURVE",
"-22 477 OFFCURVE",
"-30 517 CURVE"
);
},
{
closed = 1;
nodes = (
"173 557 LINE",
"182 517 OFFCURVE",
"188 478 OFFCURVE",
"191 439 CURVE",
"107 397 LINE",
"105 437 OFFCURVE",
"98 477 OFFCURVE",
"90 517 CURVE"
);
}
);
width = 159;
}
);
},
{
glyphname = "dotaccent.case";
lastChange = "2013-05-28 12:26:31 +0100";
layers = (
{
anchors = (
{
name = "_top";
position = "{35, 370}";
}
);
layerId = "1E238986-8A4D-4620-9F99-918EE406194F";
name = "Light";
paths = (
{
closed = 1;
nodes = (
"52 557 LINE",
"61 517 OFFCURVE",
"67 478 OFFCURVE",
"70 439 CURVE",
"17 396 LINE",
"15 436 OFFCURVE",
"8 476 OFFCURVE",
"0 516 CURVE"
);
}
);
width = 70;
},
{
anchors = (
{
name = "_top";
position = "{35, 370}";
}
);
layerId = "05DCEB7D-DEF5-48FB-88E5-EF320714A6F1";
name = "Bold";
paths = (
{
closed = 1;
nodes = (
"65 557 LINE",
"74 517 OFFCURVE",
"80 478 OFFCURVE",
"83 439 CURVE",
"-1 397 LINE",
"-3 437 OFFCURVE",
"-10 477 OFFCURVE",
"-18 517 CURVE"
);
}
);
width = 70;
}
);
},
{
glyphname = "grave.case";
lastChange = "2013-05-31 12:15:09 +0100";
layers = (
{
anchors = (
{
name = "_top";
position = "{70, 370}";
}
);
layerId = "1E238986-8A4D-4620-9F99-918EE406194F";
name = "Light";
paths = (
{
closed = 1;
nodes = (
"72 557 LINE",
"75 508 OFFCURVE",
"97 468 OFFCURVE",
"140 439 CURVE",
"87 396 LINE",
"38 429 OFFCURVE",
"9 473 OFFCURVE",
"0 526 CURVE"
);
}
);
width = 140;
},
{
anchors = (
{
name = "_top";
position = "{70, 370}";
}
);
layerId = "05DCEB7D-DEF5-48FB-88E5-EF320714A6F1";
name = "Bold";
paths = (
{
closed = 1;
nodes = (
"94 557 LINE",
"97 508 OFFCURVE",
"119 468 OFFCURVE",
"162 439 CURVE",
"87 388 LINE",
"38 421 OFFCURVE",
"9 465 OFFCURVE",
"0 518 CURVE"
);
}
);
width = 140;
}
);
},
{
glyphname = "hungarumlaut.case";
lastChange = "2013-05-31 12:15:09 +0100";
layers = (
{
anchors = (
{
name = "_top";
position = "{86, 370}";
}
);
layerId = "1E238986-8A4D-4620-9F99-918EE406194F";
name = "Light";
paths = (
{
closed = 1;
nodes = (
"125 557 LINE",
"121 518 OFFCURVE",
"97 478 OFFCURVE",
"53 439 CURVE",
"0 396 LINE",
"31 439 OFFCURVE",
"52 483 OFFCURVE",
"63 526 CURVE"
);
},
{
closed = 1;
nodes = (
"225 557 LINE",
"221 518 OFFCURVE",
"197 478 OFFCURVE",
"143 439 CURVE",
"80 396 LINE",
"121 439 OFFCURVE",
"152 483 OFFCURVE",
"163 526 CURVE"
);
}
);
width = 225;
},
{
anchors = (
{
name = "_top";
position = "{86, 370}";
}
);
layerId = "05DCEB7D-DEF5-48FB-88E5-EF320714A6F1";
name = "Bold";
paths = (
{
closed = 1;
nodes = (
"125 557 LINE",
"121 518 OFFCURVE",
"97 478 OFFCURVE",
"53 439 CURVE",
"-22 396 LINE",
"9 439 OFFCURVE",
"30 483 OFFCURVE",
"41 526 CURVE"
);
},
{
closed = 1;
nodes = (
"245 557 LINE",
"241 518 OFFCURVE",
"217 478 OFFCURVE",
"163 439 CURVE",
"80 396 LINE",
"121 439 OFFCURVE",
"152 483 OFFCURVE",
"163 526 CURVE"
);
}
);
width = 225;
}
);
},
{
glyphname = "macron.case";
lastChange = "2013-05-31 12:15:09 +0100";
layers = (
{
anchors = (
{
name = "_top";
position = "{91, 370}";
}
);
layerId = "1E238986-8A4D-4620-9F99-918EE406194F";
name = "Light";
paths = (
{
closed = 1;
nodes = (
"65 499 LINE",
"120 496 OFFCURVE",
"175 497 OFFCURVE",
"230 500 CURVE",
"181 443 LINE",
"120 438 OFFCURVE",
"60 437 OFFCURVE",
"3 442 CURVE"
);
}
);
width = 230;
},
{
anchors = (
{
name = "_top";
position = "{91, 370}";
}
);
layerId = "05DCEB7D-DEF5-48FB-88E5-EF320714A6F1";
name = "Bold";
paths = (
{
closed = 1;
nodes = (
"80 501 LINE",
"131 495 OFFCURVE",
"226 496 OFFCURVE",
"285 502 CURVE",
"198 443 LINE",
"139 431 OFFCURVE",
"39 430 OFFCURVE",
"-20 442 CURVE"
);
}
);
width = 230;
}
);
},
{
glyphname = "ogonek.case";
lastChange = "2013-05-31 12:15:09 +0100";
layers = (
{
anchors = (
{
name = "_ogonek";
position = "{113, 10}";
}
);
layerId = "1E238986-8A4D-4620-9F99-918EE406194F";
name = "Light";
paths = (
{
closed = 1;
nodes = (
"75 3 LINE",
"22 -57 OFFCURVE",
"53 -127 OFFCURVE",
"113 -159 CURVE",
"64 -197 LINE",
"-2 -147 OFFCURVE",
"-19 -71 OFFCURVE",
"23 -35 CURVE"
);
}
);
width = 113;
},
{
anchors = (
{
name = "_ogonek";
position = "{113, 10}";
}
);
layerId = "05DCEB7D-DEF5-48FB-88E5-EF320714A6F1";
name = "Bold";
paths = (
{
closed = 1;
nodes = (
"95 3 LINE",
"42 -57 OFFCURVE",
"73 -127 OFFCURVE",
"133 -159 CURVE",
"64 -197 LINE",
"-2 -147 OFFCURVE",
"-19 -71 OFFCURVE",
"23 -35 CURVE"
);
}
);
width = 113;
}
);
},
{
glyphname = "ring.case";
lastChange = "2013-05-31 12:15:09 +0100";
layers = (
{
anchors = (
{
name = "_top";
position = "{69, 370}";
}
);
layerId = "1E238986-8A4D-4620-9F99-918EE406194F";
name = "Light";
paths = (
{
closed = 1;
nodes = (
"75 597 LINE",
"22 537 OFFCURVE",
"53 467 OFFCURVE",
"113 435 CURVE",
"64 397 LINE",
"-2 447 OFFCURVE",
"-19 523 OFFCURVE",
"23 559 CURVE"
);
},
{
closed = 1;
nodes = (
"64 397 LINE",
"137 457 OFFCURVE",
"73 567 OFFCURVE",
"23 559 CURVE",
"75 597 LINE",
"131 587 OFFCURVE",
"175 471 OFFCURVE",
"113 435 CURVE"
);
}
);
width = 143;
},
{
anchors = (
{
name = "_top";
position = "{69, 370}";
}
);
layerId = "05DCEB7D-DEF5-48FB-88E5-EF320714A6F1";
name = "Bold";
paths = (
{
closed = 1;
nodes = (
"100 597 LINE",
"40 532 OFFCURVE",
"71 462 OFFCURVE",
"138 435 CURVE",
"64 387 LINE",
"-2 437 OFFCURVE",
"-19 513 OFFCURVE",
"23 549 CURVE"
);
},
{
closed = 1;
nodes = (
"64 387 LINE",
"144 449 OFFCURVE",
"80 559 OFFCURVE",
"23 549 CURVE",
"100 597 LINE",
"156 587 OFFCURVE",
"200 471 OFFCURVE",
"138 435 CURVE"
);
}
);
width = 143;
}
);
},
